<svg width="64" height="64" viewBox="0 0 64 64" fill="none" xmlns="http://www.w3.org/2000/svg">
<path d="M20.4123 25.5464L25.3099 25.7039H32.0327C34.278 25.7039 36.5102 25.612 38.7555 25.5726L43.0886 25.4807H45.3207C45.4404 25.4843 45.5569 25.4411 45.6452 25.3601C45.7335 25.2792 45.7867 25.167 45.7935 25.0474C45.7952 24.9888 45.7854 24.9304 45.7646 24.8755C45.7438 24.8207 45.7123 24.7705 45.6721 24.7278C45.6318 24.6852 45.5835 24.6508 45.5301 24.6268C45.4765 24.6028 45.4188 24.5896 45.3601 24.5878L43.0886 24.4303L38.7555 24.2858C36.5102 24.2858 34.2649 24.1545 32.0327 24.1545C29.8006 24.1545 27.5421 24.2333 25.2968 24.299L20.4254 24.4959C19.9033 24.4799 19.3807 24.5063 18.8629 24.5747C18.4558 24.5747 18.2457 25.4676 18.8629 25.4807L20.4123 25.5464Z" fill="#111111"/>
<path d="M17.4886 44.2495L17.4885 25.2808H46.7209L45.5623 44.2495H17.4886Z" fill="#FFE253"/>
<path d="M47.553 24.0495C47.6114 23.0158 47.5807 21.979 47.4611 20.9507C47.3779 20.4169 47.1561 19.9143 46.8177 19.4932C46.5493 19.1918 46.1974 18.977 45.8067 18.876C45.3761 18.7675 44.9367 18.6972 44.4937 18.666C43.7977 18.6003 43.1018 18.5609 42.4059 18.5215H39.3071C36.2476 18.5215 33.2015 18.3771 30.1158 18.3508C28.0674 18.3508 26.0191 18.3508 23.9839 18.4427L20.0447 18.7316C19.6114 18.7316 19.1124 18.7316 18.6397 18.8235C18.2928 18.8877 17.9506 18.9754 17.6156 19.0861C17.448 19.1318 17.2986 19.2283 17.1881 19.3623C17.0776 19.4963 17.0113 19.6613 16.9984 19.8346C16.9459 20.6618 16.8803 21.5021 16.8277 22.4475C16.7096 24.5222 16.6439 26.5968 16.5257 28.6845C16.447 29.9319 16.3025 31.1662 16.25 32.4136V34.0549C16.25 34.8164 16.4338 40.6201 16.6177 42.6422C16.6474 43.1635 16.74 43.6793 16.8934 44.1785C16.9435 44.3345 17.0397 44.4718 17.1691 44.5723C17.3829 44.7334 17.6294 44.8455 17.8913 44.9006C18.3264 44.9703 18.7646 45.0185 19.2044 45.0451L20.8588 45.137L23.3273 45.3077L27.2008 45.3996C28.7765 45.3996 30.3915 45.5835 31.9934 45.6491H34.1206C36.2083 45.6491 40.9352 45.4915 43.8241 45.2551C44.6064 45.2101 45.3838 45.1002 46.1481 44.9268C46.3812 44.86 46.5877 44.7224 46.739 44.533C46.9684 44.2019 47.125 43.826 47.1985 43.4301C47.2881 42.7158 47.3276 41.9963 47.3167 41.2766L47.75 33.0439L47.553 24.0495ZM45.8067 41.2635V42.9704C45.7837 43.1783 45.7307 43.3819 45.6491 43.5744C45.4916 43.5744 45.2027 43.6663 44.9138 43.6927C43.7977 43.8371 42.012 43.9421 40.1606 44.0341C37.8497 44.1391 35.4468 44.2047 34.1206 44.2572H32.8076C30.9693 44.2572 29.0916 44.0472 27.2796 44.0603H23.4455L21.0295 43.9421L19.3882 43.8239H18.3246L18.0226 43.7583C18.0226 43.6794 17.9438 43.5876 17.9176 43.4826C17.7935 42.6864 17.7102 41.8843 17.6681 41.0796C17.5499 39.1232 17.3398 34.6326 17.3004 33.9893C17.261 33.3459 17.3004 32.5973 17.3004 31.9146C17.3004 30.8511 17.4449 29.8005 17.4843 28.7239C17.5237 27.6472 17.6418 23.2616 17.6812 22.4869C17.7206 21.7122 17.76 20.7406 17.8257 19.8608C17.8913 19.8608 18.5084 19.6639 18.7842 19.6376C19.0599 19.6114 19.7296 19.6376 20.0972 19.6376L23.9707 19.4013H30.0501C33.0963 19.4013 36.1558 19.6245 39.2415 19.7033C40.2525 19.7033 41.2766 19.7033 42.3009 19.8083C42.9705 19.8083 43.6139 19.9002 44.3098 19.979C44.6277 20.0005 44.9436 20.0444 45.2552 20.1103C45.4573 20.1407 45.6453 20.2323 45.7936 20.3729C46.0406 20.738 46.1772 21.1665 46.1875 21.6072C46.2662 22.4738 46.1875 23.4323 46.1875 24.102L46.2793 32.453V33.5559L45.8067 41.2635Z" fill="#111111"/>
<path d="M20.8843 21.1078C20.6171 21.0126 20.3242 21.019 20.0615 21.1258C19.7987 21.2327 19.5845 21.4325 19.4596 21.6872C19.3347 21.9419 19.3078 22.2336 19.3842 22.5068C19.4606 22.78 19.6348 23.0155 19.8737 23.1684C20.8712 23.7197 22.8006 22.1972 20.8843 21.1078Z" fill="#111111"/>
<path d="M25.0337 21.1998C23.8393 20.6354 22.8024 22.2892 23.9443 22.9979C24.2331 23.0878 24.5405 23.1 24.8354 23.0331C25.1304 22.9663 25.4025 22.8229 25.6243 22.6173C25.9 22.3023 25.8737 21.6329 25.0337 21.1998Z" fill="#111111"/>
<path d="M27.4504 22.8141C27.6097 22.9442 27.7973 23.0351 27.9982 23.0794C28.1991 23.1237 28.4076 23.1202 28.6068 23.0691C28.8061 23.018 28.9905 22.9208 29.1453 22.7853C29.3001 22.6498 29.4209 22.4798 29.4978 22.2891C29.5216 22.1111 29.5041 21.9301 29.4465 21.76C29.389 21.5899 29.293 21.4354 29.166 21.3085C29.0391 21.1815 28.8845 21.0855 28.7145 21.0279C28.5444 20.9704 28.3633 20.9528 28.1854 20.9766C27.9652 20.9596 27.7453 21.0133 27.5577 21.13C27.3702 21.2467 27.2248 21.4202 27.1428 21.6253C27.0607 21.8304 27.0463 22.0563 27.1017 22.2701C27.157 22.484 27.2792 22.6745 27.4504 22.8141Z" fill="#111111"/>
<path fill-rule="evenodd" clip-rule="evenodd" d="M26.9644 31.4813C26.5049 28.8552 26.3604 28.8552 24.1939 28.9865C22.2506 29.0915 21.9223 28.8026 21.5678 30.4833C21.489 30.9036 21.4628 31.5995 21.384 32.2035C21.3197 32.5756 21.3797 32.9585 21.5547 33.2932C22.1456 34.3175 23.6818 34.2911 24.7323 34.3175C26.6624 34.37 27.122 33.3195 26.9644 31.4813ZM25.5463 32.4135C25.5463 32.8075 25.5463 32.7286 24.7585 32.8337C21.8567 32.9519 22.5263 32.9912 22.6576 29.945C23.5743 30.0867 24.5006 30.157 25.4282 30.155C25.5782 30.8981 25.618 31.659 25.5463 32.4135Z" fill="#111111"/>
<path d="M25.5463 32.4135C25.5463 32.8075 25.5463 32.7286 24.7585 32.8337C21.8567 32.9519 22.5263 32.9912 22.6576 29.945C23.5743 30.0867 24.5006 30.157 25.4282 30.155C25.5782 30.8981 25.618 31.659 25.5463 32.4135Z" fill="white"/>
<path fill-rule="evenodd" clip-rule="evenodd" d="M26.5311 37.0222C26.1241 36.1556 25.0474 36.3656 24.1939 36.4182C22.2375 36.5101 21.9223 36.2343 21.5678 37.9019C21.489 38.3221 21.4628 39.0311 21.384 39.6351C21.3197 40.0072 21.3797 40.3902 21.5547 40.7249C22.1456 41.7361 23.6818 41.7228 24.7323 41.7492C27.4503 41.8148 27.2533 39.5826 26.5311 37.0222ZM25.5463 39.8847C25.5463 40.2654 25.5463 40.1867 24.7585 40.3048C21.8698 40.4098 22.5132 40.4623 22.6576 37.4161C23.5766 37.5316 24.502 37.5886 25.4282 37.5867C25.5825 38.3425 25.6224 39.1171 25.5463 39.8847Z" fill="#111111"/>
<path fill-rule="evenodd" clip-rule="evenodd" d="M35.1051 31.4813C34.6454 28.8552 34.501 28.8552 32.3345 28.9865C30.3912 29.0915 30.063 28.8026 29.7085 30.4833C29.6296 30.9036 29.5902 31.5995 29.5114 32.2035C29.4512 32.577 29.5158 32.9601 29.6953 33.2932C30.2731 34.3175 31.8092 34.2911 32.8729 34.3175C34.8031 34.37 35.2494 33.3195 35.1051 31.4813ZM33.6738 32.4135C33.6738 32.8075 33.6738 32.7286 32.8991 32.8337C29.9973 32.9519 30.6539 32.9912 30.7982 29.945C31.7149 30.0867 32.6412 30.157 33.5688 30.155C33.7088 30.8994 33.7441 31.6594 33.6738 32.4135Z" fill="#111111"/>
<path d="M33.6738 32.4135C33.6738 32.8075 33.6738 32.7286 32.8991 32.8337C29.9973 32.9519 30.6539 32.9912 30.7982 29.945C31.7149 30.0867 32.6412 30.157 33.5688 30.155C33.7088 30.8994 33.7441 31.6594 33.6738 32.4135Z" fill="white"/>
<path fill-rule="evenodd" clip-rule="evenodd" d="M34.6197 37.0222C34.2127 36.1556 33.1361 36.3656 32.2957 36.4182C30.3393 36.5101 30.0241 36.2343 29.6696 37.9019C29.5908 38.3221 29.5514 39.0311 29.4726 39.6351C29.4124 40.0087 29.477 40.3918 29.6565 40.7249C30.2341 41.7361 31.7704 41.7228 32.8341 41.7492C35.5914 41.8148 35.3814 39.5826 34.6197 37.0222ZM33.6743 39.8847C33.6743 40.2654 33.6743 40.1867 32.8997 40.3048C29.9979 40.4098 30.6544 40.4623 30.7988 37.4161C31.7169 37.5447 32.6423 37.6149 33.5693 37.6261C33.7098 38.3704 33.7451 39.1306 33.6743 39.8847Z" fill="#111111"/>
<path fill-rule="evenodd" clip-rule="evenodd" d="M43.2464 31.4813C42.7736 28.8552 42.6292 28.8552 40.4627 28.9865C38.5194 29.0915 38.1911 28.8026 37.8366 30.4833C37.7446 30.9036 37.7184 31.5995 37.6396 32.2035C37.5753 32.5756 37.6353 32.9585 37.8102 33.2932C38.4011 34.3175 39.9374 34.2911 40.9879 34.3175C42.9312 34.37 43.3907 33.3195 43.2464 31.4813ZM41.8151 32.4135C41.7495 32.8075 41.8151 32.7286 41.0273 32.8337C38.1254 32.9519 38.7951 32.9912 38.9264 29.945C39.843 30.0867 40.7694 30.157 41.697 30.155C41.847 30.8981 41.8867 31.659 41.8151 32.4135Z" fill="#111111"/>
<path d="M41.8151 32.4135C41.7495 32.8075 41.8151 32.7286 41.0273 32.8337C38.1254 32.9519 38.7951 32.9912 38.9264 29.945C39.843 30.0867 40.7694 30.157 41.697 30.155C41.847 30.8981 41.8867 31.659 41.8151 32.4135Z" fill="white"/>
<path fill-rule="evenodd" clip-rule="evenodd" d="M42.7998 37.0222C42.3928 36.1556 41.3162 36.3656 40.4627 36.4182C38.5063 36.5101 38.1911 36.2343 37.8366 37.9019C37.7446 38.3221 37.7184 39.0311 37.6396 39.6351C37.5753 40.0072 37.6353 40.3902 37.8102 40.7249C38.4011 41.7361 39.9374 41.7228 40.9879 41.7492C43.719 41.8148 43.5221 39.5826 42.7998 37.0222ZM41.8151 39.8847C41.7495 40.2654 41.8151 40.1867 41.0273 40.3048C38.1385 40.4098 38.7951 40.4623 38.9264 37.4161C39.8445 37.5447 40.7699 37.6149 41.697 37.6261C41.8474 38.3691 41.8871 39.1301 41.8151 39.8847Z" fill="#111111"/>
</svg>
