<svg width="28" height="29" viewBox="0 0 28 29" fill="none" xmlns="http://www.w3.org/2000/svg">
<path d="M4.07377 5.26448C3.98027 5.42654 3.88776 6.04324 3.88506 6.61085C3.86939 7.15995 3.85928 7.67756 3.84818 7.74053C3.8343 7.81924 3.8732 7.87479 3.9519 7.88867C4.01487 7.89977 4.11206 7.62475 4.17035 7.29417C4.23141 6.94785 4.22582 6.7034 4.15731 6.72378C4.08601 6.7599 4.08966 6.371 4.147 5.86171C4.2321 5.19501 4.21263 5.02927 4.07377 5.26448Z" fill="#111111"/>
<path d="M3.76233 7.72509C3.75234 7.78171 3.76018 7.83999 3.79423 7.88863C3.8283 7.93729 3.88036 7.96456 3.937 7.97454L3.99323 7.97058C4.00948 7.9648 4.02248 7.95553 4.03193 7.9479C4.05107 7.93244 4.06615 7.91193 4.07796 7.89354C4.10189 7.85616 4.12457 7.80565 4.14506 7.74919C4.1867 7.63444 4.22763 7.47773 4.25736 7.30913C4.28835 7.13326 4.30278 6.9788 4.30027 6.86897C4.29903 6.81594 4.29264 6.76538 4.27857 6.72632C4.27174 6.70743 4.25982 6.68135 4.23618 6.66158C4.22595 6.65317 4.21282 6.64922 4.20094 6.64495C4.19561 6.61391 4.1909 6.56478 4.19052 6.49735C4.18972 6.34588 4.20471 6.12455 4.2332 5.87147C4.25444 5.70498 4.26967 5.56856 4.2778 5.46111C4.2858 5.35505 4.28844 5.27054 4.28152 5.21362C4.27831 5.18749 4.27106 5.15444 4.2534 5.1271C4.24349 5.11177 4.2269 5.09319 4.20042 5.08305C4.17291 5.07256 4.14614 5.0749 4.12598 5.08207C4.092 5.09426 4.06821 5.12209 4.05322 5.14039C4.0357 5.16179 4.01759 5.18861 3.99938 5.2194L3.9974 5.22078C3.96748 5.27276 3.94212 5.35267 3.92001 5.44315C3.89738 5.53587 3.87627 5.64835 3.85848 5.77242C3.82279 6.02157 3.79889 6.32234 3.79751 6.61026C3.79362 6.74684 3.78979 6.88142 3.78648 7.00745C3.78317 7.13386 3.78025 7.25201 3.77732 7.35464C3.77439 7.45753 3.77118 7.54629 3.76845 7.61164C3.76709 7.64406 3.7662 7.67067 3.7649 7.69084C3.76426 7.70064 3.76299 7.70853 3.76242 7.7147C3.76213 7.71781 3.76255 7.72326 3.76233 7.72509ZM3.93539 7.78684C3.93342 7.78281 3.93085 7.77318 3.93399 7.75536C3.93801 7.73228 3.94165 7.68111 3.94427 7.61834C3.94705 7.5519 3.94853 7.46381 3.95146 7.36105C3.9544 7.25797 3.95759 7.13886 3.96092 7.01217C3.96424 6.88552 3.96834 6.75037 3.97225 6.6133C3.97358 6.33367 3.99812 6.03951 4.03272 5.79794C4.05002 5.67721 4.06891 5.56942 4.0899 5.48351C4.0932 5.47003 4.09852 5.45779 4.10177 5.44569L4.10316 5.44767C4.09535 5.55109 4.08093 5.68539 4.05976 5.8513L4.02773 6.21008C4.0203 6.31951 4.01645 6.41724 4.01688 6.49797C4.01731 6.57718 4.02152 6.64614 4.03245 6.69507C4.03742 6.71729 4.04548 6.74911 4.06543 6.77377C4.07539 6.78604 4.09231 6.79889 4.11513 6.80683C4.11768 6.82196 4.12364 6.84307 4.12435 6.87266C4.12649 6.9664 4.11399 7.10843 4.08401 7.27856C4.05552 7.44013 4.01759 7.58635 3.98042 7.68893C3.96459 7.73254 3.9478 7.76481 3.93539 7.78684Z" fill="#111111"/>
<path d="M3.92786 8.48486C3.9271 9.68583 3.89919 12.2748 3.96315 12.7405C3.99467 13.022 3.99455 13.6308 3.96315 14.1771C3.93174 14.7235 4.09548 15.2666 4.16586 15.3277C4.33255 15.4869 4.36674 14.9249 4.31365 12.7405C4.29502 11.9257 4.2338 11.1683 4.19026 11.047C4.13098 10.9229 4.16984 10.7025 4.2476 10.5377C4.3411 10.3756 4.3346 10.2284 4.25589 10.2145C4.17718 10.2006 4.13174 9.72192 4.1687 9.14411C4.2214 8.56908 4.17596 8.09037 4.08151 8.07372C3.98706 8.05706 3.92227 8.24041 3.92786 8.48486Z" fill="#111111"/>
<path d="M4.2449 15.4372C4.30484 15.4213 4.3342 15.3668 4.34873 15.3305C4.38059 15.2509 4.39808 15.113 4.40936 14.9178C4.42084 14.719 4.42525 14.4473 4.4236 14.0891L4.40143 12.7385C4.39209 12.3298 4.37239 11.9353 4.3492 11.6274C4.33761 11.4734 4.32449 11.3399 4.31212 11.2373C4.30028 11.1392 4.28773 11.0583 4.27289 11.017L4.26903 11.0093C4.25003 10.9696 4.24291 10.9033 4.25395 10.8193C4.26442 10.7399 4.28995 10.6548 4.32362 10.5816L4.38389 10.4465C4.39731 10.4028 4.40392 10.3604 4.40417 10.3217C4.40431 10.2831 4.39738 10.2414 4.37772 10.2059C4.36161 10.1771 4.33417 10.1579 4.30187 10.144C4.29831 10.1369 4.29469 10.1223 4.2888 10.1C4.27594 10.0512 4.2641 9.97714 4.256 9.88253C4.23995 9.69435 4.23849 9.4353 4.25669 9.15033C4.28324 8.85966 4.28426 8.59159 4.26718 8.3921C4.25867 8.29275 4.24543 8.20637 4.22626 8.14193C4.2168 8.11017 4.2045 8.07922 4.18803 8.05363C4.17281 8.02999 4.14438 7.99584 4.09734 7.98732C4.0401 7.97722 3.99019 7.99994 3.95558 8.03347C3.92322 8.06486 3.9005 8.10759 3.88452 8.15109C3.85232 8.23875 3.83841 8.35708 3.8412 8.48532C3.84082 9.08409 3.83289 10.0346 3.83381 10.8892C3.83428 11.3169 3.83621 11.7224 3.84259 12.05C3.84892 12.3749 3.85996 12.6292 3.87674 12.7519C3.90724 13.0266 3.90732 13.629 3.87605 14.173C3.85991 14.4555 3.89447 14.736 3.9415 14.9533C3.96502 15.0619 3.99153 15.1564 4.01786 15.2288C4.03101 15.2649 4.04523 15.2967 4.05856 15.3227C4.06978 15.3446 4.08509 15.3708 4.1057 15.39C4.13124 15.4144 4.18158 15.4537 4.2449 15.4372ZM4.18279 15.1694C4.15965 15.1058 4.13352 15.0184 4.11127 14.9155C4.06682 14.7099 4.03454 14.4459 4.04959 14.1828C4.08107 13.6352 4.08295 13.0195 4.05058 12.7305L4.04919 12.7285C4.03406 12.618 4.0249 12.3745 4.01851 12.0463C4.01216 11.7203 4.0096 11.3163 4.00914 10.8889C4.00822 10.0326 4.01446 9.08692 4.01484 8.4847C4.0122 8.3691 4.02689 8.27196 4.04916 8.21136C4.0514 8.20526 4.05499 8.20035 4.05718 8.19542C4.07108 8.24331 4.08492 8.31421 4.09284 8.40648C4.10889 8.59384 4.10805 8.85324 4.08206 9.13689C4.06337 9.42909 4.06434 9.69969 4.08137 9.89859C4.08983 9.99729 4.10293 10.0819 4.11952 10.1448C4.12762 10.1755 4.13762 10.2055 4.15131 10.2302C4.16118 10.2479 4.18415 10.2792 4.22349 10.2933C4.22476 10.2968 4.22919 10.3048 4.22914 10.3203C4.22896 10.36 4.21373 10.4227 4.17243 10.4943L4.16788 10.5004C4.12547 10.5904 4.09439 10.6953 4.0811 10.7957C4.06856 10.8908 4.07126 10.9935 4.10797 11.0764L4.13829 11.2587C4.15021 11.3576 4.16202 11.4876 4.17348 11.6398C4.19643 11.9444 4.21623 12.3363 4.22551 12.7422C4.25207 13.835 4.25662 14.5183 4.23413 14.9077C4.22586 15.0508 4.21005 15.1468 4.19675 15.2083C4.192 15.1969 4.18799 15.1836 4.18279 15.1694Z" fill="#111111"/>
<path d="M4.18594 16.045C4.00365 16.9867 4.00541 22.9601 4.21287 23.2563C4.36569 23.4943 4.45451 22.9906 4.37477 22.2461C4.3488 21.9331 4.33009 20.5664 4.32157 19.234C4.33157 17.8885 4.31564 16.5061 4.31374 16.1487L4.31457 15.4996L4.18594 16.045Z" fill="#111111"/>
<path d="M4.30632 23.4018C4.33323 23.397 4.35483 23.3827 4.37126 23.3681C4.40162 23.3412 4.42108 23.3035 4.43401 23.2681C4.44775 23.2304 4.4598 23.184 4.46815 23.1336C4.50115 22.9338 4.50066 22.6145 4.4608 22.2403C4.44799 22.086 4.43812 21.6667 4.42916 21.1207L4.40949 19.2343C4.41949 17.8883 4.40383 16.5042 4.40194 16.1476L4.40155 15.5002L4.22978 15.4803L4.10076 16.025L4.10017 16.0284C4.053 16.2721 4.0181 16.83 3.99594 17.525C3.97368 18.2232 3.96348 19.0689 3.96528 19.8935C3.96708 20.718 3.98141 21.5236 4.00796 22.1414C4.02123 22.4499 4.03859 22.7128 4.05836 22.9086C4.06824 23.0065 4.07775 23.0898 4.08978 23.1536C4.0957 23.185 4.10258 23.2131 4.10979 23.237C4.11658 23.2594 4.12629 23.2858 4.14088 23.3067C4.16268 23.3403 4.19186 23.3743 4.23168 23.3921C4.25364 23.4018 4.27935 23.4065 4.30632 23.4018ZM4.26233 23.1199C4.25169 23.0632 4.24123 22.9858 4.23161 22.8906C4.21236 22.6998 4.19599 22.4409 4.18279 22.134C4.15638 21.5195 4.1424 20.7164 4.14061 19.8932C4.13881 19.0699 4.14987 18.2259 4.17206 17.53C4.18591 17.0955 4.20356 16.7216 4.22606 16.4463C4.23072 17.0171 4.2426 18.1372 4.23446 19.233C4.24297 20.5626 4.26045 21.9351 4.28676 22.253L4.28815 22.255C4.32758 22.6232 4.32392 22.9265 4.2945 23.1047C4.28962 23.1342 4.28179 23.159 4.2761 23.1796C4.27187 23.1645 4.26692 23.1442 4.26233 23.1199Z" fill="#111111"/>
<path d="M4.14841 23.8945C4.07898 24.0121 4.0383 24.427 4.05039 24.8186L4.08845 25.5233L4.26518 24.613C4.43636 23.7343 4.39929 23.4843 4.14841 23.8945Z" fill="#111111"/>
<path d="M4.17377 25.5401L4.35174 24.6292C4.39467 24.4087 4.42414 24.2261 4.44116 24.0827C4.45787 23.9418 4.4635 23.8302 4.45181 23.7566C4.44656 23.7235 4.43438 23.6765 4.39863 23.6448C4.37743 23.6261 4.35017 23.6152 4.32052 23.6154C4.29333 23.6156 4.26991 23.6251 4.2529 23.6347C4.22044 23.6534 4.19028 23.6834 4.16391 23.7162C4.13601 23.7509 4.10686 23.7967 4.07444 23.8497C4.04964 23.8917 4.02964 23.9513 4.01585 24.0146C4.00157 24.0803 3.99111 24.159 3.98223 24.2447C3.96447 24.4161 3.95608 24.6215 3.96221 24.8208L3.96359 24.8228L4.00052 25.5286L4.17377 25.5401ZM4.13684 24.8047C4.13152 24.6161 4.13942 24.4231 4.15597 24.2632C4.16443 24.1816 4.17553 24.1093 4.18802 24.0519C4.20073 23.9935 4.21351 23.9574 4.22334 23.9401L4.28006 23.8547C4.27992 23.9051 4.2782 23.9741 4.26771 24.0625C4.25138 24.2 4.22123 24.3785 4.17869 24.5969L4.13684 24.8047Z" fill="#111111"/>
<path d="M4.31045 25.4651C4.14843 25.6475 4.07718 25.9596 4.11611 26.2911L4.15045 26.8328L4.39665 26.0809C4.67802 25.2215 4.64559 25.0373 4.31045 25.4651Z" fill="#111111"/>
<path d="M4.23437 26.8597L4.47968 26.1082C4.55034 25.8924 4.60284 25.7168 4.63494 25.582C4.6509 25.5149 4.66101 25.4563 4.66749 25.4072C4.67377 25.3594 4.67667 25.3147 4.67123 25.2777C4.66652 25.246 4.65104 25.1859 4.59083 25.1629C4.53579 25.1422 4.48462 25.1695 4.45827 25.1864C4.39856 25.2248 4.32478 25.3056 4.24149 25.412C4.06074 25.6201 3.98893 25.9584 4.02917 26.3012L4.0629 26.8382L4.23437 26.8597ZM4.2038 26.2851L4.20271 26.2815C4.17475 26.0434 4.20696 25.8233 4.2841 25.6624L4.37645 25.5225L4.37872 25.5194C4.42422 25.4614 4.46248 25.4177 4.49235 25.3868C4.48686 25.4275 4.47823 25.4788 4.46337 25.5413C4.43292 25.6692 4.38404 25.8395 4.31415 26.053L4.20916 26.3728L4.2038 26.2851Z" fill="#111111"/>
<path d="M5.95143 26.6677L5.56681 4.86247L9.06517 4.21078L10.1607 5.67251L18.3347 5.84526L19.1549 4.55197L22.9089 4.36788L22.9405 22.8969L20.3155 22.4341L19.6501 26.2075L5.95143 26.6677Z" fill="#EBE2C2"/>
<path d="M13.8812 1.07696C13.747 1.10197 13.409 1.26962 13.134 1.44837C12.7507 1.68917 12.5961 1.92161 12.5156 2.37812C12.4296 2.86611 12.3472 2.9652 12.0527 2.97821C11.8398 2.98935 11.2221 2.99406 10.6517 3.00711C10.0999 3.00718 9.5869 3.06281 9.54432 3.12023C9.40082 3.2897 9.30112 5.51202 9.43078 5.69719C9.52154 5.82682 10.3383 5.88967 11.9124 5.8913C16.1987 5.88422 18.646 5.81258 18.8784 5.69125C19.2191 5.50786 19.2875 4.65967 19.0457 3.82171C18.7909 2.96523 18.8039 2.98375 17.0335 2.89881L16.038 2.83691L15.8805 2.25728C15.6388 1.41932 14.7868 0.912008 13.8812 1.07696ZM15.049 1.81849C15.1925 1.92495 15.4018 2.30272 15.5352 2.65086C15.802 3.34714 15.8492 3.35547 17.8937 3.35889C18.5586 3.3625 18.6466 3.50787 18.656 4.7431C18.6514 5.22923 18.5977 5.34961 18.3635 5.38946C18.195 5.42467 18.0588 5.3682 18.044 5.2682C18.019 5.13394 17.9403 5.12006 17.7764 5.22101C17.631 5.309 17.3625 5.35904 17.1523 5.35444C16.9394 5.36558 15.7541 5.3676 14.5032 5.37425C13.2494 5.39665 11.691 5.39779 11.0419 5.39696L9.84094 5.3962L10.0214 4.92486C10.1371 4.63687 10.1408 4.5239 10.0214 4.64892C9.80105 4.886 9.74269 4.6647 9.87778 3.99059L9.97493 3.43963L11.1185 3.3978C12.5065 3.35038 12.6806 3.28369 12.7666 2.79569C12.9637 1.67803 14.1933 1.14821 15.049 1.81849Z" fill="#111111"/>
<path d="M13.7753 2.22715C13.3411 2.57259 13.5115 3.17074 14.0625 3.26789C14.519 3.34838 14.8847 2.74738 14.6364 2.31407C14.4243 1.95205 14.1697 1.92338 13.7753 2.22715ZM14.3957 2.75856C14.3735 2.8845 14.2439 2.97526 14.118 2.95305C13.9921 2.93085 13.9013 2.80122 13.9235 2.67529C13.9457 2.54936 14.0753 2.45859 14.2013 2.4808C14.3272 2.50301 14.418 2.63263 14.3957 2.75856Z" fill="#111111"/>
<path d="M21.358 4.14851C19.7496 4.15706 19.4311 4.21452 19.5997 4.45524C19.7293 4.64042 20.4988 4.69494 22.5489 4.66688C22.9406 4.65479 22.9823 4.6946 22.9101 5.10388C22.8685 5.34001 22.852 7.09008 22.8949 8.96422C22.9192 10.8513 22.9399 13.4033 22.9466 14.6542C22.9533 15.9052 22.9637 17.871 22.987 19.0275C23.0327 21.4378 22.9301 22.2962 22.5755 22.5583C22.4301 22.6463 21.9116 22.7334 21.4227 22.7446C20.0087 22.755 19.9504 22.8096 19.5766 24.5616C19.398 25.3903 19.186 26.132 19.1249 26.2024C18.899 26.471 10.9812 26.7304 7.43194 26.6078C6.67542 26.5718 5.99762 26.5496 5.90039 26.5487C5.81891 26.5506 5.73921 26.0821 5.74468 25.4987C5.7654 21.331 5.75411 20.0142 5.70665 18.3503C5.55231 13.7946 5.53347 4.88037 5.69271 4.71367C5.7353 4.65626 6.13253 4.61268 6.55292 4.62188C8.06872 4.67815 8.87893 4.59378 8.91224 4.40488C8.93999 4.24746 8.72238 4.19286 8.07606 4.17628C6.98064 4.12921 5.41024 4.29055 5.24822 4.47298C5.18711 4.54337 5.11962 5.29433 5.11696 6.13788C5.09579 6.9944 5.04776 7.9111 4.9978 8.19445C4.94784 8.47781 4.95069 9.01394 5.01556 9.38246C5.09712 9.93247 5.11614 13.5067 5.04698 15.5558C5.03405 15.8133 5.00241 16.7796 5.04698 17.6314C5.10728 18.4861 5.07876 19.9171 5.07518 20.8579C5.08754 23.1811 5.24642 24.8265 5.3151 25.9099C5.36985 26.796 5.38282 26.8145 5.98287 27.0015C6.32086 27.1098 6.7144 27.1792 6.85144 27.1384C7.32551 27.0272 8.6515 27.1474 8.5293 27.2882C8.46542 27.3743 8.4858 27.4428 8.56451 27.4567C8.65896 27.4734 8.74877 27.4243 8.75987 27.3613C8.77375 27.2826 8.97189 27.1715 9.20893 27.1159C10.1784 26.8648 10.1886 27.175 9.24882 27.6261C8.48865 27.979 8.52755 28.0345 9.33867 27.8529C9.65996 27.7797 9.89236 27.6584 9.87476 27.5741C9.85438 27.5056 10.0266 27.3574 10.2562 27.2519C10.7682 27.0175 11.8146 26.9748 11.6127 27.1989C11.5489 27.285 12.0044 27.1868 12.0044 27.1868C12.0044 27.1868 13.272 27.0857 13.6758 27.1893C13.9091 27.2467 14.1536 27.2411 14.2332 27.1578C14.2943 27.0874 14.4971 27.042 14.6702 27.0725C14.8434 27.1031 14.9267 27.1827 14.8629 27.2688C14.8018 27.3392 15.0962 27.3262 15.5388 27.2094C15.9786 27.1085 16.5286 27.0269 16.7546 27.0343C17.175 27.0435 17.7666 27.0017 18.9611 26.8553C19.4083 26.8043 19.7889 26.5792 20.3935 26.0041C20.8573 25.5827 21.2813 25.203 21.3526 25.1669C21.4239 25.1308 21.8961 24.6622 22.3951 24.1334L23.3135 23.1591L23.1572 23.862C22.9425 24.8954 22.8344 26.889 22.9752 27.0112C23.241 27.2528 23.2909 26.9695 23.3768 25.1018C23.5171 21.9128 23.7762 21.149 23.7509 18.5313C23.6966 14.5127 23.5027 11.9605 23.6571 10.0725C23.8189 7.95849 23.8925 4.87133 23.7509 5.12228C23.7027 5.21118 23.6334 5.88066 23.6029 6.60569C23.5106 8.87801 23.3218 9.12064 23.2891 7.00483C23.2759 5.88256 23.223 4.80197 23.1647 4.58068C23.0609 4.1566 22.9664 4.13995 21.358 4.14851ZM22.3533 23.2658C22.2552 23.3621 21.8386 23.7918 21.4405 24.2085C21.0424 24.6252 20.5119 25.1485 20.2443 25.3772L19.7517 25.7773L20.0349 24.4476L20.3023 23.1151L21.1986 23.0946C22.4394 23.0537 22.5654 23.0759 22.3533 23.2658Z" fill="#111111" stroke="#111111" stroke-width="0.35"/>
<path d="M7.55986 11.149L7.71785 8.90961L9.47068 8.94788L9.65824 11.1466L7.55986 11.149Z" fill="#FFE253"/>
<path d="M19.6864 9.09432C19.2762 9.11938 17.4205 9.14927 15.5307 9.18935C13.6436 9.21369 12.037 9.30373 11.9287 9.36578C11.7222 9.52415 11.6907 9.5186 15.3094 9.52365C19.9818 9.53596 20.8152 9.50436 20.9114 9.32657C21.0133 9.11728 20.7299 9.06732 19.6864 9.09432Z" fill="#111111"/>
<path d="M10.1562 8.37181C9.92197 8.6876 9.72661 8.783 9.48029 8.7071C9.29417 8.65805 8.7534 8.59516 8.26727 8.5906L7.39501 8.56665L7.32847 9.49632C7.30539 9.99542 7.31011 10.613 7.36014 10.8816C7.44539 11.3186 7.48984 11.3427 8.21488 11.3731C9.79642 11.4248 9.86494 11.4044 9.94266 10.9636C9.9843 10.7275 9.9935 10.3071 9.96198 10.0256C9.93137 9.64689 10.01 9.38483 10.3109 8.96718C10.5424 8.66714 10.7349 8.31154 10.7543 8.20135C10.8182 7.83929 10.4941 7.92823 10.1562 8.37181ZM9.44425 9.18768C9.41649 9.3451 9.25634 9.60902 9.08135 9.77294C8.84526 10.0072 8.72675 10.035 8.51282 9.86747C7.8581 9.34624 7.6711 9.67035 8.31008 10.1888C8.91759 10.7017 9.17501 10.7146 9.26105 10.2266C9.36375 9.64419 9.70825 9.89971 9.66296 10.5247C9.626 11.1025 9.576 11.11 8.43336 11.0546L7.67962 11.0028L7.71563 10.2463C7.72483 9.82591 7.75532 9.37681 7.76178 9.2481C7.76825 9.11939 8.02194 8.96935 8.3562 8.91467C9.19048 8.78585 9.50254 8.8571 9.44425 9.18768Z" fill="#111111"/>
<path d="M14.5658 10.3338C13.162 10.3784 11.9472 10.4564 11.8546 10.5212C11.6666 10.6666 13.3028 10.7766 15.4158 10.7596C16.3094 10.7549 19.0602 10.7132 19.4019 10.7085C19.725 10.7168 20.0121 10.6538 20.026 10.5751C20.0704 10.3232 17.2362 10.2853 14.5658 10.3338Z" fill="#111111"/>
<path d="M7.665 17.0112L7.68995 14.6274L9.8661 14.6157L10.1097 16.7833L7.665 17.0112Z" fill="#FFE253"/>
<path d="M20.3134 14.6734C20.1347 14.6743 18.3105 14.7098 16.2734 14.7564C14.2206 14.8002 12.3566 14.8773 12.1224 14.9171C11.1668 15.0895 11.9567 15.2125 14.0067 15.1845C15.1947 15.1667 17.0791 15.1581 18.1986 15.1607C20.4218 15.1632 21.0348 15.0927 20.9347 14.8316C20.9042 14.7289 20.818 14.665 20.7551 14.6539C20.6893 14.6585 20.4949 14.6567 20.3134 14.6734Z" fill="#111111"/>
<path d="M10.1306 14.0632C9.89456 14.2975 9.64364 14.4318 9.57326 14.3707C9.51862 14.3123 9.03526 14.292 8.49636 14.3106L7.54448 14.37L7.41588 15.1914C7.29193 16.0784 7.42262 16.9942 7.69023 17.0414C8.36712 17.1607 9.94772 17.0337 10.0597 16.8586C10.1292 16.741 10.168 16.2447 10.1568 15.7558C10.1113 15.0012 10.1576 14.8308 10.415 14.5678C10.7492 14.2372 10.9066 13.713 10.7019 13.677C10.6232 13.6631 10.3797 13.8474 10.1306 14.0632ZM9.27059 15.2587C8.99565 15.7134 8.83268 15.7171 8.35852 15.2764C7.82973 14.7774 7.82239 15.2793 8.35583 15.844C8.80869 16.3134 9.12443 16.2717 9.41881 15.7068C9.68079 15.2336 9.87064 15.4457 9.75684 16.0911C9.65969 16.642 9.60136 16.6967 9.14394 16.7134C8.868 16.7134 8.43465 16.6857 8.19852 16.6441C7.82072 16.5775 7.75589 16.4849 7.75304 15.9487C7.76133 15.6256 7.74182 15.1839 7.7279 14.9867C7.71768 14.6765 7.80471 14.6431 8.58252 14.6504C9.05291 14.6522 9.44923 14.7059 9.46961 14.7744C9.47702 14.8244 9.38816 15.0522 9.27059 15.2587Z" fill="#111111"/>
<path d="M14.5587 16.0122C12.1485 16.0579 10.9901 16.2756 12.4661 16.3736C13.8106 16.4808 18.058 16.4182 18.2247 16.3015C18.558 16.0681 17.0533 15.9488 14.5587 16.0122Z" fill="#111111"/>
<path d="M17.3725 20.6769C13.1826 20.7821 11.9835 20.8628 11.9557 21.0202C11.928 21.1776 12.3011 21.1785 16.9772 21.0779C19.0643 21.0239 20.8366 20.9143 20.8875 20.8097C21.0078 20.5875 20.8004 20.5671 17.3725 20.6769Z" fill="#111111"/>
<path d="M8.57667 20.3919C7.55719 20.3745 7.53589 20.4032 7.56571 21.7069C7.56487 22.356 7.59643 22.9135 7.63533 22.969C7.76499 23.1542 9.9799 23.2039 10.0947 23.0131C10.1641 22.8955 10.1751 22.2807 10.1389 21.6575C10.0536 20.3927 10.0823 20.414 8.57667 20.3919ZM9.78803 21.8066C9.81594 22.753 9.79742 22.7659 9.3789 22.8382C9.1576 22.8966 8.7085 22.8661 8.41496 22.7819C7.88807 22.6403 7.85936 22.619 7.84442 21.6912C7.81742 20.6476 7.81742 20.6476 8.76284 20.7169C9.74251 20.7761 9.76844 20.8131 9.78803 21.8066Z" fill="#111111"/>
<path d="M15.0319 21.9848C13.468 22.0174 12.1059 22.1018 11.9948 22.1796C11.7541 22.3482 12.6708 22.3962 15.6144 22.3634C17.683 22.3224 18.2802 22.2491 17.9931 22.0362C17.9385 21.9779 16.5931 21.9679 15.0319 21.9848Z" fill="#111111"/>
</svg>
