<svg width="16" height="16" viewBox="0 0 16 16" fill="none" xmlns="http://www.w3.org/2000/svg">
<path d="M2.84985 5.13177L5.02659 5.2018H8.01449C9.0124 5.2018 10.0045 5.16096 11.0024 5.14345L12.9282 5.1026H13.9203C13.9735 5.10421 14.0252 5.08497 14.0645 5.049C14.1037 5.01304 14.1274 4.96317 14.1304 4.91002C14.1311 4.88396 14.1268 4.858 14.1176 4.83363C14.1083 4.80926 14.0943 4.78695 14.0764 4.76798C14.0585 4.74901 14.0371 4.73375 14.0133 4.72308C13.9895 4.7124 13.9638 4.70652 13.9378 4.70577L12.9282 4.63574L11.0024 4.57154C10.0045 4.57154 9.00657 4.51318 8.01449 4.51318C7.02242 4.51318 6.01867 4.5482 5.02075 4.57738L2.85568 4.66491C2.62363 4.6578 2.39139 4.66951 2.16123 4.69993C1.98032 4.69993 1.88694 5.09676 2.16123 5.1026L2.84985 5.13177Z" fill="#111111"/>
<path d="M1.55058 13.4442L1.55054 5.01367H14.5427L14.0278 13.4442H1.55058Z" fill="#FFE253"/>
<path d="M14.9124 4.46656C14.9384 4.00716 14.9247 3.54638 14.8716 3.08932C14.8346 2.85209 14.736 2.62872 14.5857 2.44155C14.4664 2.30759 14.31 2.21212 14.1363 2.16726C13.9449 2.11904 13.7496 2.0878 13.5527 2.0739C13.2434 2.04472 12.9341 2.02721 12.6248 2.0097H11.2476C9.88784 2.0097 8.53398 1.94551 7.16257 1.93384C6.25219 1.93384 5.34181 1.93384 4.43727 1.97469L2.68653 2.10307C2.49396 2.10307 2.2722 2.10307 2.06211 2.14393C1.90791 2.17245 1.75582 2.21145 1.60692 2.26064C1.53243 2.28093 1.46605 2.32382 1.41694 2.38339C1.36782 2.44295 1.33837 2.51628 1.33264 2.59328C1.3093 2.96093 1.28012 3.33442 1.25677 3.7546C1.20425 4.67665 1.17507 5.5987 1.12255 6.52659C1.08754 7.08099 1.02334 7.62956 1 8.18396V8.91342C1 9.25187 1.0817 11.8313 1.1634 12.73C1.17662 12.9617 1.21777 13.1909 1.28595 13.4128C1.30824 13.4821 1.35096 13.5432 1.4085 13.5878C1.5035 13.6594 1.61308 13.7092 1.72947 13.7337C1.92283 13.7647 2.11759 13.7861 2.31305 13.798L3.04835 13.8388L4.14548 13.9147L5.86703 13.9555C6.56732 13.9555 7.28512 14.0372 7.99708 14.0664H8.94249C9.87034 14.0664 11.9712 13.9963 13.2551 13.8913C13.6029 13.8713 13.9484 13.8225 14.288 13.7454C14.3916 13.7157 14.4834 13.6545 14.5507 13.5703C14.6526 13.4232 14.7222 13.2562 14.7549 13.0802C14.7947 12.7627 14.8123 12.4429 14.8074 12.1231L15 8.46407L14.9124 4.46656ZM14.1363 12.1173V12.8759C14.1261 12.9683 14.1025 13.0588 14.0663 13.1443C13.9963 13.1443 13.8679 13.1852 13.7395 13.1969C13.2434 13.2611 12.4498 13.3077 11.6269 13.3486C10.5999 13.3953 9.53189 13.4244 8.94249 13.4478H8.35892C7.54191 13.4478 6.70738 13.3544 5.90204 13.3603H4.198L3.12422 13.3077L2.39475 13.2552H1.92205L1.78783 13.2261C1.78783 13.191 1.75281 13.1502 1.74114 13.1035C1.686 12.7496 1.64899 12.3932 1.63026 12.0355C1.57774 11.166 1.48437 9.1702 1.46686 8.88425C1.44935 8.5983 1.46686 8.26562 1.46686 7.96217C1.46686 7.4895 1.53105 7.0226 1.54856 6.54409C1.56607 6.06556 1.61859 4.11641 1.6361 3.7721C1.65361 3.4278 1.67111 2.99595 1.70029 2.60495C1.72947 2.60495 2.00375 2.51741 2.1263 2.50574C2.24885 2.49407 2.54647 2.50574 2.70988 2.50574L4.43143 2.4007H7.1334C8.48726 2.4007 9.84701 2.4999 11.2184 2.53492C11.6678 2.53492 12.1229 2.53492 12.5782 2.58161C12.8758 2.58161 13.1617 2.62246 13.471 2.65747C13.6123 2.66702 13.7527 2.68652 13.8912 2.71583C13.981 2.72932 14.0646 2.77006 14.1305 2.83254C14.2403 2.99482 14.301 3.18525 14.3055 3.38111C14.3405 3.76627 14.3055 4.19228 14.3055 4.4899L14.3464 8.20146V8.69163L14.1363 12.1173Z" fill="#111111"/>
<path d="M3.0597 3.15919C2.94095 3.11686 2.81077 3.11972 2.69399 3.16721C2.5772 3.2147 2.48198 3.3035 2.42647 3.41669C2.37096 3.52988 2.35904 3.65954 2.39298 3.78095C2.42693 3.90236 2.50436 4.00704 2.61053 4.07502C3.05386 4.32002 3.91136 3.64336 3.0597 3.15919Z" fill="#111111"/>
<path d="M4.90398 3.20017C4.37314 2.94934 3.91231 3.68434 4.41981 3.99934C4.54815 4.0393 4.68476 4.0447 4.81585 4.015C4.94695 3.9853 5.06789 3.92155 5.16648 3.83017C5.28898 3.69017 5.27731 3.39267 4.90398 3.20017Z" fill="#111111"/>
<path d="M5.97778 3.91743C6.04858 3.97527 6.13198 4.01567 6.22126 4.03536C6.31054 4.05505 6.4032 4.05347 6.49176 4.03076C6.58032 4.00805 6.6623 3.96485 6.73109 3.90463C6.79988 3.84442 6.85358 3.76887 6.88776 3.6841C6.89832 3.605 6.89056 3.52453 6.86496 3.44894C6.83941 3.37335 6.79672 3.30468 6.74029 3.24825C6.68386 3.19182 6.61519 3.14916 6.5396 3.12358C6.46401 3.09801 6.38355 3.09019 6.30445 3.10076C6.20658 3.0932 6.10884 3.11709 6.02549 3.16894C5.94214 3.22081 5.87753 3.29793 5.84107 3.38908C5.80461 3.48022 5.79821 3.58063 5.8228 3.67567C5.84739 3.77071 5.90169 3.85541 5.97778 3.91743Z" fill="#111111"/>
<path fill-rule="evenodd" clip-rule="evenodd" d="M5.76186 7.76956C5.55762 6.60238 5.49342 6.60238 4.53052 6.66074C3.66683 6.70742 3.52093 6.57904 3.36337 7.32599C3.32835 7.51278 3.31668 7.82206 3.28167 8.09051C3.25309 8.25589 3.27975 8.4261 3.35753 8.57485C3.62014 9.03009 4.30292 9.01836 4.76978 9.03009C5.62765 9.05342 5.83189 8.58652 5.76186 7.76956ZM5.1316 8.18384C5.1316 8.35896 5.1316 8.3239 4.78146 8.37063C3.49175 8.42313 3.78938 8.44063 3.84773 7.08677C4.25514 7.14971 4.66683 7.18098 5.07908 7.1801C5.14576 7.51033 5.16346 7.84854 5.1316 8.18384Z" fill="#111111"/>
<path d="M5.1316 8.18384C5.1316 8.35896 5.1316 8.3239 4.78146 8.37063C3.49175 8.42313 3.78938 8.44063 3.84773 7.08677C4.25514 7.14971 4.66683 7.18098 5.07908 7.1801C5.14576 7.51033 5.16346 7.84854 5.1316 8.18384Z" fill="white"/>
<path fill-rule="evenodd" clip-rule="evenodd" d="M5.56928 10.2324C5.38838 9.8472 4.90984 9.94053 4.53052 9.96392C3.66099 10.0048 3.52093 9.8822 3.36337 10.6233C3.32835 10.8101 3.31668 11.1252 3.28167 11.3937C3.25309 11.559 3.27975 11.7293 3.35753 11.878C3.62014 12.3274 4.30292 12.3215 4.76978 12.3332C5.97779 12.3624 5.89025 11.3703 5.56928 10.2324ZM5.1316 11.5046C5.1316 11.6738 5.1316 11.6388 4.78146 11.6913C3.49759 11.738 3.78354 11.7613 3.84773 10.4074C4.25616 10.4588 4.66744 10.4841 5.07908 10.4833C5.14767 10.8191 5.16538 11.1634 5.1316 11.5046Z" fill="#111111"/>
<path fill-rule="evenodd" clip-rule="evenodd" d="M9.38008 7.76956C9.1758 6.60238 9.11163 6.60238 8.14872 6.66074C7.28504 6.70742 7.13915 6.57904 6.98159 7.32599C6.94653 7.51278 6.92903 7.82206 6.89403 8.09051C6.86726 8.25653 6.89596 8.4268 6.97576 8.57485C7.23254 9.03009 7.91527 9.01836 8.38801 9.03009C9.24586 9.05342 9.44425 8.58652 9.38008 7.76956ZM8.74396 8.18384C8.74396 8.35896 8.74396 8.3239 8.39967 8.37063C7.10998 8.42313 7.40177 8.44063 7.46593 7.08677C7.87333 7.14971 8.28505 7.18098 8.69729 7.1801C8.75953 7.51091 8.77522 7.84872 8.74396 8.18384Z" fill="#111111"/>
<path d="M8.74396 8.18384C8.74396 8.35896 8.74396 8.3239 8.39967 8.37063C7.10998 8.42313 7.40177 8.44063 7.46593 7.08677C7.87333 7.14971 8.28505 7.18098 8.69729 7.1801C8.75953 7.51091 8.77522 7.84872 8.74396 8.18384Z" fill="white"/>
<path fill-rule="evenodd" clip-rule="evenodd" d="M9.1643 10.2324C8.98341 9.8472 8.5049 9.94053 8.13139 9.96392C7.26187 10.0048 7.12181 9.8822 6.96426 10.6233C6.9292 10.8101 6.9117 11.1252 6.8767 11.3937C6.84992 11.5597 6.87862 11.73 6.95842 11.878C7.21515 12.3274 7.89794 12.3215 8.37067 12.3332C9.59614 12.3624 9.50281 11.3703 9.1643 10.2324ZM8.74412 11.5046C8.74412 11.6738 8.74412 11.6388 8.39984 11.6913C7.11015 11.738 7.40193 11.7613 7.4661 10.4074C7.87414 10.4646 8.28545 10.4958 8.69746 10.5008C8.75987 10.8316 8.77556 11.1694 8.74412 11.5046Z" fill="#111111"/>
<path fill-rule="evenodd" clip-rule="evenodd" d="M12.9984 7.76956C12.7883 6.60238 12.7241 6.60238 11.7612 6.66074C10.8975 6.70742 10.7516 6.57904 10.5941 7.32599C10.5532 7.51278 10.5415 7.82206 10.5065 8.09051C10.4779 8.25589 10.5046 8.4261 10.5824 8.57485C10.845 9.03009 11.5278 9.01836 11.9947 9.03009C12.8584 9.05342 13.0626 8.58652 12.9984 7.76956ZM12.3623 8.18384C12.3331 8.35896 12.3623 8.3239 12.0122 8.37063C10.7224 8.42313 11.0201 8.44063 11.0784 7.08677C11.4858 7.14971 11.8975 7.18098 12.3098 7.1801C12.3765 7.51033 12.3941 7.84854 12.3623 8.18384Z" fill="#111111"/>
<path d="M12.3623 8.18384C12.3331 8.35896 12.3623 8.3239 12.0122 8.37063C10.7224 8.42313 11.0201 8.44063 11.0784 7.08677C11.4858 7.14971 11.8975 7.18098 12.3098 7.1801C12.3765 7.51033 12.3941 7.84854 12.3623 8.18384Z" fill="white"/>
<path fill-rule="evenodd" clip-rule="evenodd" d="M12.8 10.2324C12.6191 9.8472 12.1406 9.94053 11.7612 9.96392C10.8917 10.0048 10.7516 9.8822 10.5941 10.6233C10.5532 10.8101 10.5415 11.1252 10.5065 11.3937C10.4779 11.559 10.5046 11.7293 10.5824 11.878C10.845 12.3274 11.5278 12.3215 11.9947 12.3332C13.2085 12.3624 13.121 11.3703 12.8 10.2324ZM12.3623 11.5046C12.3331 11.6738 12.3623 11.6388 12.0122 11.6913C10.7283 11.738 11.0201 11.7613 11.0784 10.4074C11.4865 10.4646 11.8978 10.4958 12.3098 10.5008C12.3766 10.831 12.3943 11.1692 12.3623 11.5046Z" fill="#111111"/>
</svg>
