<svg width="64" height="64" viewBox="0 0 64 64" fill="none" xmlns="http://www.w3.org/2000/svg">
<path fill-rule="evenodd" clip-rule="evenodd" d="M32.1238 13.6688C32.3187 13.5646 32.4014 13.2115 32.3973 12.8531C32.605 14.8021 32.3891 16.7652 32.6242 18.7166C32.6451 18.897 32.7848 19.5131 33.0972 19.3269C33.8198 18.8964 34.5855 18.5456 35.3198 18.1365C35.599 19.4875 35.8201 20.8501 36.0057 22.2168C36.1198 23.0581 36.2227 23.9041 36.2984 24.7524C35.7067 23.6295 35.0981 22.5159 34.5355 21.379C34.4697 21.2464 34.3382 21.0427 34.1614 21.1539C33.291 21.7008 32.2984 21.9975 31.4128 22.513C30.2102 20.5883 29.1054 18.5985 28.0051 16.6122C29.2915 15.5242 30.6483 14.4583 32.1238 13.6688ZM31.1417 24.216C31.2022 24.312 31.3355 24.369 31.4385 24.3044C32.3019 23.761 33.2851 23.4648 34.166 22.9575C34.934 24.4795 35.7718 25.9661 36.5282 27.4945C36.872 28.1898 37.1891 27.2187 37.1857 26.8766C37.1438 23.4683 36.5974 19.9995 35.8643 16.6773C35.8271 16.508 35.6659 16.1345 35.4297 16.2753C34.735 16.6884 34.0002 17.0288 33.2921 17.418C33.1827 15.6842 33.3317 13.9416 33.1228 12.2084C33.0961 11.9873 32.9768 11.4567 32.6498 11.5981C32.388 11.7115 32.356 12.2218 32.3705 12.5278C32.3089 12.1525 32.1494 11.8605 31.9196 11.9838C30.1881 12.9095 28.619 14.2163 27.1347 15.4945C26.7868 15.7947 26.7507 16.5697 26.9654 16.9549C28.3199 19.3927 29.6558 21.8555 31.1417 24.216ZM52.3944 33.0515L50.0817 39.6597C49.9886 39.9256 49.7768 39.8669 49.6732 39.6597C49.5342 39.3805 49.5743 39.0151 49.6732 38.7323L51.6002 33.2266L51.0789 33.212L43.1702 32.9904C42.8683 32.9822 42.8648 32.3323 42.8921 32.1601L43.1685 30.4193L45.1502 17.9492C45.1752 17.7927 45.2549 17.3837 45.5051 17.4913C45.7372 17.5914 45.7378 18.0981 45.7064 18.2977L45.43 20.0385L43.5781 31.69L44.2821 31.7104L52.1907 31.9315C52.598 31.9431 52.47 32.8344 52.3944 33.0515ZM54.4814 35.37L48.0232 46.0679L47.1632 47.4933L48.239 37.784L48.4194 36.1566C48.4368 35.9978 48.4467 35.3205 48.1413 35.3269L39.4757 35.5027L38.6262 35.5201L39.592 28.938L41.3288 17.1073L41.6569 14.8708L50.5797 14.9685L51.4489 14.9784L50.621 19.032C49.9524 22.3077 49.2833 25.5833 48.6137 28.8589C48.5742 29.0538 48.4997 29.8456 48.8627 29.8456H57.8158L54.4814 35.37ZM58.699 28.5348H49.3131L50.1398 24.4859L51.7701 16.5051L52.1471 14.659C52.1878 14.4612 52.2617 13.6769 51.8981 13.6723L42.7676 13.5722L41.4492 13.5582C41.2467 13.5559 41.1443 13.8881 41.1449 14.218L40.0819 21.4587L38.3452 33.29L37.9461 36.0094C37.9228 36.1688 37.9222 36.8455 38.2242 36.8397L46.8892 36.6634L47.7695 36.6459L46.5919 47.2833L46.4115 48.9101C46.3883 49.1224 46.39 49.4163 46.5151 49.5995C46.5896 49.7083 46.7339 49.8177 46.8351 49.6501L50.9073 42.9051L57.3654 32.2067L58.8444 29.756C58.9695 29.5483 59.1435 28.5348 58.699 28.5348Z" fill="#111111"/>
<path d="M15.3555 33.0642V46.0642L21.3555 48.0642L30.8555 46.5642V41.0642V31.5642L27.8555 27.5642L23.8555 26.5642L19.3555 27.0642L16.8555 29.5642L15.3555 33.0642Z" fill="#FFE253"/>
<mask id="mask0_9373_418519" style="mask-type:luminance" maskUnits="userSpaceOnUse" x="10" y="25" width="25" height="28">
<path d="M10.8555 25.4087H34.8164V52.414H10.8555V25.4087Z" fill="white"/>
</mask>
<g mask="url(#mask0_9373_418519)">
<path d="M34.341 47.9878C34.1032 48.5998 32.4072 49.4606 31.7361 49.7833C28.953 51.1211 25.6903 51.5642 22.629 51.5255C19.6112 51.4873 16.3672 50.9953 13.6823 49.546C12.8632 49.1038 11.5361 48.3313 11.2587 47.3744C11.1761 47.0891 11.1792 46.7335 11.2014 46.3771C12.9072 49.6038 18.9694 50.266 22.0001 50.3815C24.6636 50.4824 27.3756 50.1793 29.9201 49.37C31.4454 48.8855 33.4143 48.146 34.3912 46.77C34.4303 47.2104 34.4596 47.6806 34.341 47.9878ZM11.5898 44.9522C11.9054 44.3664 12.2956 44.3264 12.869 44.1513C13.5125 43.954 14.1632 43.7766 14.8112 43.5931V44.6944C14.7971 44.7917 14.7971 44.8905 14.8112 44.9878V45.9011C14.1236 45.582 13.6098 45.2886 13.7507 45.178C13.969 45.006 13.845 44.1713 13.6476 44.3269C12.7161 45.0615 13.5281 46.1113 14.2761 46.6273C16.541 48.1909 19.9618 48.434 22.6058 48.4673C25.3925 48.502 28.6885 48.2624 31.1818 46.8722C32.2143 46.2971 33.1361 45.1406 31.9707 44.1922C31.7814 44.0384 31.6485 44.8651 31.8672 45.0433C32.153 45.2753 31.713 45.6122 31.0485 45.9429V43.1082C31.6796 43.2815 32.3418 43.4264 32.9387 43.682C33.5876 43.9602 34.4121 45.2033 34.2516 45.9322C34.1987 46.1695 33.7134 46.5109 33.549 46.6513C33.0658 47.062 32.5063 47.3838 31.9423 47.6686C28.8538 49.2304 25.1058 49.6602 21.6867 49.4869C18.645 49.3331 15.0832 48.7513 12.5952 46.8522C11.9036 46.3242 11.1565 45.7589 11.5898 44.9522ZM19.8672 42.6091V47.4095C19.0669 47.3167 18.2729 47.1763 17.4894 46.9891C17.4156 46.9713 16.2227 46.526 15.1992 46.0762V44.9842C15.2129 44.8869 15.2129 44.7882 15.1992 44.6909V41.09C16.4521 42.0033 18.1947 42.4206 19.8672 42.6091ZM14.8112 39.3913V39.8393C14.5356 39.602 14.4258 39.4304 14.8112 39.3913ZM19.8672 34.8046V41.6918C18.8334 41.5522 17.813 41.326 16.845 40.9673C16.2792 40.7575 15.6938 40.4998 15.1992 40.1402V39.4798C15.1992 39.358 15.1974 39.2335 15.1956 39.1091C15.2164 38.9862 15.2141 38.8605 15.189 38.7384C15.149 37.022 15.013 35.1131 15.2796 33.3615C16.5054 34.2246 18.2205 34.6238 19.8672 34.8046ZM14.6494 31.8558C14.5152 31.4086 14.8574 31.5193 15.313 31.5562C15.2374 31.8162 15.1738 32.0806 15.1192 32.3482C14.8845 32.1935 14.7005 32.0255 14.6494 31.8558ZM19.8987 27.4269C19.9685 27.9558 19.8672 28.6024 19.8672 29.1113V33.8829C18.6796 33.7238 17.5085 33.4491 16.4298 32.9882C16.2227 32.8993 15.8143 32.738 15.4392 32.5375C15.5721 31.9878 15.7534 31.4598 16.0063 30.9678C16.8721 29.2793 18.2818 28.0869 19.8987 27.4269ZM18.3254 26.9575C18.5983 26.2731 19.2841 26.1953 19.6761 26.6002C19.1919 26.811 18.7303 27.0702 18.2983 27.374C18.2863 27.2198 18.2827 27.0638 18.3254 26.9575ZM25.7854 27.334C25.6836 29.1811 25.8076 31.0789 25.8076 32.9215V33.8793C24.8187 34.0118 23.8183 34.066 22.8414 34.0673C21.9775 34.0707 21.114 34.0256 20.2552 33.9322V32.9215C20.2552 31.058 20.3681 29.1509 20.2712 27.2851C22.0378 26.6642 24.0134 26.6629 25.7854 27.334ZM27.3525 26.6246C27.7627 26.9744 27.7525 27.1131 27.7414 27.5126C27.2903 27.1806 26.8056 26.897 26.2952 26.6664C26.6996 25.874 26.9841 26.3095 27.3525 26.6246ZM30.3414 32.4753C29.9254 32.7091 29.4596 32.902 29.2534 32.9882C28.2836 33.3953 27.249 33.6593 26.1956 33.8251V29.2282C26.1956 28.7006 26.0934 28.0402 26.1556 27.4864C27.0739 27.8879 27.9025 28.4693 28.5925 29.1962C29.5392 30.1944 30.057 31.3038 30.3414 32.4753ZM31.1236 31.7438C31.1036 31.8962 30.9592 32.0549 30.7574 32.2078C30.7085 31.9839 30.6511 31.762 30.5854 31.5424C30.8778 31.5211 31.1538 31.5202 31.1236 31.7438ZM30.6601 38.1175V38.7962C30.6461 38.8935 30.6461 38.9923 30.6601 39.0895V40.0202C30.5281 40.1162 30.3996 40.2011 30.3187 40.2553C29.6227 40.718 28.7743 41.0198 27.9783 41.2438C27.3934 41.4082 26.7974 41.5331 26.1961 41.63V34.7549C27.765 34.5451 29.3418 34.1149 30.4983 33.2629C30.7441 34.8255 30.6601 36.4775 30.6601 38.1175ZM31.0485 39.6886V39.4055C31.1952 39.4513 31.1627 39.5602 31.0485 39.6886ZM20.2552 41.7406V34.8446C21.1907 34.9291 22.089 34.9495 22.8418 34.9495C23.7183 34.9495 24.7525 34.9202 25.8076 34.802V41.6886C24.7196 41.8398 23.6165 41.8944 22.5245 41.8798C21.7662 41.871 21.0088 41.8246 20.2552 41.7406ZM22.5245 42.7615C23.5045 42.7749 24.6498 42.7558 25.8076 42.6255V47.4278C24.7445 47.5478 23.673 47.598 22.6058 47.5846C21.8207 47.5754 21.0364 47.531 20.2552 47.4518V42.6482C21.0098 42.7157 21.7669 42.7535 22.5245 42.7615ZM28.1681 47.0335C27.5165 47.1799 26.8584 47.2961 26.1961 47.3815V42.5753C27.8445 42.3531 29.4783 41.8855 30.6601 40.9513V46.1246C29.5925 46.5989 28.2423 47.0166 28.1681 47.0335ZM34.0596 43.5158C33.3236 42.7202 32.0752 42.5042 31.0485 42.226V40.6126C31.6618 39.974 32.2014 38.6464 31.0485 38.5135V37.9526C31.0485 36.2713 31.1401 34.5691 30.8943 32.9384C30.9707 32.8682 31.0503 32.8006 31.1214 32.726C31.4845 32.346 31.9627 31.6593 31.6801 31.0873C31.4103 30.5402 30.8205 30.6722 30.2685 30.6815C30.0921 30.2668 29.8785 29.8689 29.6303 29.4926C29.211 28.8603 28.7019 28.2923 28.1192 27.8064C28.1214 27.7798 28.1267 27.7571 28.1267 27.7264C28.1267 26.89 28.2094 25.4082 26.9676 25.4082C26.2698 25.4082 25.9863 25.9278 25.8707 26.4891C24.0618 25.7926 22.0241 25.7486 20.1783 26.4038C20.0738 25.9429 19.8414 25.5455 19.2841 25.4464C17.937 25.2069 17.9361 26.7429 17.937 27.6438C17.7583 27.786 17.5823 27.9331 17.4134 28.0926C16.6303 28.8271 16.0154 29.7222 15.6107 30.7166C15.5878 30.6953 15.5577 30.6832 15.5263 30.6829C14.9974 30.6829 14.3063 30.5082 14.0134 31.0344C13.721 31.558 14.1347 32.2406 14.4534 32.6175C14.6147 32.8031 14.792 32.9741 14.9832 33.1286C14.8298 34.2389 14.8116 35.3966 14.8116 36.5749V38.51C13.6316 38.6211 13.8054 39.7486 14.5627 40.5424C14.6405 40.6242 14.7263 40.6993 14.8116 40.7753V42.7086C13.3094 43.1109 10.6361 43.5775 10.8721 45.4206C10.8721 45.4251 10.8707 45.4278 10.8707 45.4318C10.8707 47.2424 10.8067 48.3651 12.3392 49.5918C15.0023 51.7224 19.0192 52.3162 22.3138 52.4038C25.7494 52.4944 29.6285 51.9904 32.6418 50.21C33.365 49.7829 34.4441 49.0842 34.7129 48.226C34.9063 47.6069 34.7356 46.7331 34.7307 46.0771C34.9774 45.2015 34.6872 44.1944 34.0596 43.5158Z" fill="#111111"/>
</g>
<path d="M14.9896 27.8381C15.1816 28.0212 15.2354 27.4194 15.1154 27.2937C14.5008 26.6479 13.9265 25.9225 13.2372 25.3563C13.0559 25.207 13.0265 25.9194 13.1279 26.0394C13.679 26.6954 14.3688 27.2483 14.9896 27.8381ZM12.6772 28.5092C13.2621 28.7537 13.8808 28.8825 14.4936 29.0381C14.7145 29.0941 14.7603 28.2301 14.5248 28.1568C13.9239 27.971 13.3305 27.7528 12.707 27.6621C12.4612 27.6261 12.4785 28.4257 12.6772 28.5092ZM15.7745 27.0341C15.819 27.1599 15.8976 27.2981 16.0248 27.175C16.1448 27.0599 16.1168 26.751 16.0759 26.6123C15.8976 26.0114 15.7661 25.3501 15.4612 24.7972C15.283 24.4741 15.1808 25.0181 15.2039 25.1559C15.3128 25.8043 15.5581 26.4159 15.7745 27.0341Z" fill="#111111"/>
<g filter="url(#filter0_g_9373_418519)">
<mask id="mask1_9373_418519" style="mask-type:alpha" maskUnits="userSpaceOnUse" x="15" y="35" width="15" height="7">
<g clip-path="url(#clip0_9373_418519)">
<path d="M15.8555 38.5544C20.3608 34.5681 24.8662 34.5681 29.3715 38.5544C24.8662 42.5407 20.3608 42.5407 15.8555 38.5544Z" fill="black"/>
</g>
</mask>
<g mask="url(#mask1_9373_418519)">
<rect width="13.5104" height="6" transform="translate(15.8555 35.5645)" fill="white"/>
<rect x="19.3672" y="34.0864" width="6.05232" height="6" rx="3" fill="#111111"/>
</g>
</g>
<path d="M53.9594 13.7361C54.5923 13.1348 55.2954 12.5744 55.8558 11.9041C55.9625 11.777 55.8949 11.0784 55.7132 11.2272C55.0238 11.7895 54.4514 12.521 53.8389 13.165C53.7243 13.2864 53.8363 13.853 53.9594 13.7361ZM54.4958 14.9068C55.1092 14.7512 55.7261 14.6215 56.3105 14.3757C56.5132 14.2899 56.4843 13.4948 56.2394 13.5308C55.6336 13.6179 55.0572 13.8299 54.4736 14.0108C54.1918 14.0979 54.2589 14.9664 54.4958 14.9068Z" fill="#111111"/>
<mask id="mask2_9373_418519" style="mask-type:luminance" maskUnits="userSpaceOnUse" x="52" y="10" width="2" height="4">
<path d="M52.8555 10.5642H53.7724V13.0927H52.8555V10.5642Z" fill="white"/>
</mask>
<g mask="url(#mask2_9373_418519)">
<path d="M53.1764 12.9788C53.3924 12.3641 53.6475 11.7494 53.7542 11.1041C53.7755 10.9743 53.7928 10.7863 53.7186 10.6663C53.6777 10.6006 53.5866 10.5028 53.5235 10.6139C53.2013 11.1854 53.0662 11.8632 52.8813 12.4894C52.8382 12.6352 52.8435 12.8912 52.9404 13.017C53.0208 13.121 53.1244 13.1268 53.1764 12.9788Z" fill="#111111"/>
</g>
<defs>
<filter id="filter0_g_9373_418519" x="15.2555" y="34.9642" width="14.7105" height="7.20024" filterUnits="userSpaceOnUse" color-interpolation-filters="sRGB">
<feFlood flood-opacity="0" result="BackgroundImageFix"/>
<feBlend mode="normal" in="SourceGraphic" in2="BackgroundImageFix" result="shape"/>
<feTurbulence type="fractalNoise" baseFrequency="0.1904761791229248 0.1904761791229248" numOctaves="3" seed="2492" />
<feDisplacementMap in="shape" scale="1.2000000476837158" xChannelSelector="R" yChannelSelector="G" result="displacedImage" width="100%" height="100%" />
<feMerge result="effect1_texture_9373_418519">
<feMergeNode in="displacedImage"/>
</feMerge>
</filter>
<clipPath id="clip0_9373_418519">
<rect width="13.5104" height="6" fill="white" transform="translate(15.8555 35.5645)"/>
</clipPath>
</defs>
</svg>
