<svg width="64" height="64" viewBox="0 0 64 64" fill="none" xmlns="http://www.w3.org/2000/svg">
<path d="M43.5 34.5H21.5L18.5 26V17.5L32.5 15L46 16.5L43.5 34.5Z" fill="#F4C1FC"/>
<g clip-path="url(#clip0_9373_418523)">
<path d="M49.9989 41.9111C49.6776 41.1665 49.2963 40.4492 48.8591 39.7663C47.7659 38.087 46.5474 36.4925 45.2142 34.9966C44.4494 34.0966 44.7942 35.6566 45.6642 31.3969C46.4564 27.5333 47.0224 23.6269 47.3591 19.6975C47.4266 18.6879 47.3252 17.674 47.0592 16.6977C46.9359 16.4093 46.7513 16.1513 46.5182 15.9415C46.2849 15.7317 46.0089 15.5751 45.7092 15.4828C41.7045 13.9829 21.9207 14.0729 17.811 16.6077C17.5538 16.7463 17.3278 16.9364 17.1472 17.166C16.9666 17.3957 16.8351 17.66 16.761 17.9426C16.0411 21.2724 18.9059 32.4467 20.2558 35.3416C19.1459 36.4964 15.3211 40.4113 14.4212 41.6711C14.1321 42.0889 13.9849 42.5884 14.0012 43.0961C14.0012 43.2461 14.1812 47.0258 14.2562 47.4008C14.2961 47.6656 14.4166 47.9117 14.6012 48.1058C16.2811 49.9357 45.3192 49.6057 47.7491 49.1257C49.3391 48.7657 49.2491 47.6258 49.4891 46.1258C49.5062 45.9967 49.4717 45.866 49.3931 45.7621C49.3145 45.6583 49.1979 45.5896 49.0691 45.571C48.2141 45.451 48.6191 46.8308 48.1691 47.6108C47.8541 48.1508 48.0641 48.0458 34.55 47.8658C28.4003 47.7758 15.8611 47.8658 15.3361 47.3408C15.127 46.5419 15.0112 45.7216 14.9912 44.896C18.5459 46.3958 42.7694 45.541 46.6242 45.391C46.7568 45.3871 46.8827 45.3316 46.9751 45.2363C47.0675 45.1412 47.1192 45.0137 47.1192 44.881C47.1192 44.101 47.5691 44.491 24.4106 44.056C20.6308 43.996 17.451 43.996 15.9661 43.726C15.5761 43.726 15.3961 43.846 15.3661 43.0661C15.3352 42.8324 15.3827 42.595 15.5011 42.3911C16.2361 41.2511 19.3109 37.7264 20.6308 36.2566C21.1858 35.6566 21.2758 35.5066 21.0358 34.9666C19.8359 32.2217 17.256 21.2574 18.036 18.2276C18.6359 15.7828 39.6197 15.6178 44.5094 16.8477C45.8742 17.1927 45.3042 17.3727 45.5292 17.2677C45.7226 18.052 45.7935 18.8615 45.7392 19.6675C45.3792 24.3733 44.6976 29.0489 43.6994 33.6617C43.4144 33.6617 42.7844 33.8717 42.1995 33.9017C37.1298 34.1266 24.0956 34.1416 22.3107 34.1866C22.1363 34.1542 21.9561 34.1885 21.8059 34.2832C21.6558 34.3777 21.5468 34.5253 21.5008 34.6966C21.5008 34.8278 21.5529 34.9538 21.6457 35.0467C21.7386 35.1394 21.8645 35.1916 21.9957 35.1916H29.3303C28.7531 35.824 28.2866 36.5491 27.9504 37.3364C26.0155 37.4114 24.4406 37.5314 23.6756 37.5914C23.7806 37.3514 23.6756 37.5914 24.4706 36.3316C24.5362 36.236 24.5612 36.1184 24.5401 36.0044C24.519 35.8906 24.4536 35.7896 24.3581 35.7241C24.2626 35.6584 24.145 35.6333 24.0311 35.6545C23.9171 35.6756 23.8163 35.741 23.7506 35.8366C22.8185 37.0336 21.9905 38.3081 21.2758 39.6463C21.1256 39.8758 21.0586 40.1498 21.0858 40.4227C21.1131 40.6957 21.2331 40.951 21.4258 41.1463C22.9257 42.2261 38.7947 42.4961 43.2494 41.4911C45.0192 41.0863 41.7495 36.9914 41.1345 35.2966C41.8845 35.2966 43.3694 35.2966 44.0294 35.1616C44.7045 36.4585 45.4455 37.72 46.2492 38.9413C49.1741 43.6211 48.3791 40.7113 49.0991 44.056C49.107 44.1754 49.1621 44.2867 49.2521 44.3654C49.3421 44.4442 49.4597 44.4839 49.5791 44.476C49.6983 44.468 49.8096 44.413 49.8884 44.323C49.9671 44.233 50.0069 44.1154 49.9989 43.996V41.9111ZM26.7354 40.4113C26.0605 40.4113 23.3456 40.3363 22.6557 40.2613C23.0273 39.7216 23.292 39.1157 23.4356 38.4764C23.5556 38.4764 27.2604 38.7614 27.3804 38.7764C27.1854 39.1213 26.8704 39.9163 26.6904 40.4263L26.7354 40.4113ZM30.5001 35.2666H34.475C34.3412 35.9486 34.271 36.6415 34.265 37.3364C33.02 37.3364 31.6851 37.2464 29.7653 37.3364C30.2751 35.8966 30.3651 35.8216 30.5001 35.2666ZM27.9954 40.4413C28.3695 39.9586 28.7199 39.458 29.0453 38.9413C30.8301 39.0313 32.0451 39.0613 34.46 39.0163C34.46 39.1813 34.88 40.4113 34.91 40.5163C32.0901 40.4563 30.0653 40.4713 27.9954 40.4413ZM41.5845 38.4914C41.8995 39.1663 42.1845 39.8113 42.3644 40.3063C40.8645 40.4413 37.8647 40.4563 36.1998 40.4563C36.1998 40.0363 36.1098 39.4963 36.0198 38.9563C38.0747 38.8813 39.9195 38.7614 41.1945 38.7314C41.2731 38.7224 41.3489 38.6962 41.4162 38.6548C41.4836 38.6132 41.541 38.5576 41.5845 38.4914ZM41.2245 37.7114C41.0745 37.7114 35.9448 37.4264 35.7948 37.4114C35.6448 36.5264 35.4798 35.7316 35.3748 35.2966H40.0995C40.1145 35.4016 40.6545 36.4964 41.2245 37.7114Z" fill="black"/>
<path d="M26.1806 27.5727C27.6058 29.3838 29.4841 30.7861 31.6255 31.6377C32.8754 31.4284 34.0433 30.8782 35.0005 30.0477C35.9969 29.2737 36.7984 28.277 37.3405 27.1377C37.5205 25.7877 37.9105 21.6027 37.8355 21.1377C37.5055 18.9177 33.8755 17.9427 31.5955 17.9727C30.5578 17.9068 29.5175 18.0523 28.5378 18.4004C27.558 18.7485 26.6591 19.2919 25.8956 19.9977C25.1456 20.8827 25.4606 21.5877 25.4156 22.5927C25.286 24.2894 25.5477 25.9932 26.1806 27.5727ZM26.7506 22.6527C26.7506 21.8727 26.6006 21.3027 26.9756 20.8977C28.284 19.8673 29.9162 19.3356 31.5805 19.3977C33.2128 19.3355 34.8121 19.8686 36.0805 20.8977C36.5005 21.3627 36.3655 21.2727 36.1705 26.7777C35.7611 27.7712 35.1179 28.6511 34.2955 29.3427C33.5521 30.0657 32.6137 30.5557 31.5955 30.7527C29.8201 29.8561 28.279 28.5564 27.0956 26.9577C26.7047 25.5583 26.5876 24.0965 26.7506 22.6527Z" fill="black"/>
<path d="M29.2404 24.6174C29.829 24.7558 30.425 24.8609 31.0254 24.9324C31.0254 25.2774 31.2354 26.1924 31.2954 26.5374C31.2954 26.6568 31.3428 26.7712 31.4273 26.8556C31.5116 26.94 31.626 26.9874 31.7454 26.9874C31.8648 26.9874 31.9793 26.94 32.0636 26.8556C32.148 26.7712 32.1954 26.6568 32.1954 26.5374C32.2854 25.9374 32.3754 25.5924 32.4504 24.9324C33.0354 24.9324 34.0704 24.6774 34.2204 24.6474C34.2854 24.6594 34.3521 24.657 34.416 24.6403C34.4799 24.6236 34.5393 24.5931 34.59 24.5508C34.6409 24.5086 34.6817 24.4557 34.7097 24.3959C34.7378 24.3361 34.7523 24.2709 34.7523 24.2049C34.7523 24.1389 34.7378 24.0737 34.7097 24.0139C34.6817 23.9541 34.6409 23.9012 34.59 23.859C34.5393 23.8168 34.4799 23.7862 34.416 23.7695C34.3521 23.7528 34.2854 23.7504 34.2204 23.7624C33.6302 23.6472 33.0344 23.5621 32.4354 23.5074C32.4354 23.0274 32.2554 22.5774 32.1804 22.1124C32.1804 22.009 32.1393 21.9098 32.0663 21.8366C31.9931 21.7635 31.8939 21.7224 31.7904 21.7224C31.6871 21.7224 31.5878 21.7635 31.5147 21.8366C31.4415 21.9098 31.4004 22.009 31.4004 22.1124C31.2582 22.6058 31.143 23.1065 31.0554 23.6124C30.4443 23.6921 29.8382 23.8073 29.2404 23.9574C29.1815 23.9202 29.1135 23.8996 29.0439 23.8976C28.9741 23.8956 28.9052 23.9123 28.8441 23.946C28.7831 23.9797 28.7322 24.0291 28.6967 24.0892C28.6613 24.1492 28.6426 24.2177 28.6426 24.2874C28.6426 24.3571 28.6613 24.4256 28.6967 24.4857C28.7322 24.5457 28.7831 24.5952 28.8441 24.6288C28.9052 24.6625 28.9741 24.6793 29.0439 24.6772C29.1135 24.6752 29.1815 24.6546 29.2404 24.6174Z" fill="black"/>
</g>
<defs>
<clipPath id="clip0_9373_418523">
<rect width="36" height="36" fill="white" transform="translate(14 14)"/>
</clipPath>
</defs>
</svg>
