<svg width="16" height="16" viewBox="0 0 16 16" fill="none" xmlns="http://www.w3.org/2000/svg">
<g clip-path="url(#clip0_8747_232993)">
<path d="M11.5542 9.23743C10.4323 8.78775 9.24567 8.52078 8.0393 8.44658V8.41914C8.5492 7.3523 8.98414 6.25121 9.34093 5.12388C9.65751 4.25269 9.64579 3.29596 9.30798 2.43278C9.05531 1.91653 9.19809 1.91653 8.95098 1.69136C8.68747 1.47672 8.35021 1.37416 8.01185 1.40577C7.61877 1.43745 7.23124 1.51865 6.8585 1.64742C6.13575 1.91227 5.4464 2.26063 4.80448 2.68541C4.15737 3.07908 3.54385 3.52545 2.97013 4.01998C2.93653 4.05565 2.91782 4.1028 2.91782 4.15179C2.91782 4.20079 2.93653 4.24794 2.97013 4.2836C3.00514 4.31848 3.05253 4.33806 3.10194 4.33806C3.15135 4.33806 3.19875 4.31848 3.23375 4.2836C3.80562 3.83934 4.41162 3.44084 5.04613 3.09183C5.66422 2.71891 6.32417 2.42028 7.01228 2.20212C7.34745 2.0985 7.69434 2.0376 8.0448 2.02088C8.21728 2.00555 8.38937 2.05444 8.52808 2.15818C8.56103 2.15818 8.52808 2.22957 8.52808 2.26802C8.50608 2.33785 8.47468 2.40437 8.43475 2.46573C8.34961 2.59075 8.25407 2.70833 8.14913 2.81723C7.5845 3.24455 6.96817 3.59885 6.31479 3.8717C4.94727 4.53075 3.37655 5.18979 3.30515 5.20627C3.19453 5.23052 3.0827 5.24886 2.97013 5.26118H2.77791C2.73397 5.26118 2.77791 5.13487 2.82185 4.99757C2.83102 4.97776 2.83616 4.95633 2.83698 4.93451C2.83779 4.91269 2.83427 4.89094 2.8266 4.8705C2.81894 4.85006 2.80729 4.83134 2.79233 4.81545C2.77737 4.79955 2.7594 4.78678 2.73947 4.77788C2.71966 4.76871 2.69822 4.76357 2.67641 4.76276C2.65459 4.76194 2.63284 4.76546 2.6124 4.77313C2.59196 4.7808 2.57324 4.79245 2.55735 4.80741C2.54145 4.82236 2.52868 4.84033 2.51979 4.86027C2.44617 5.00094 2.40771 5.15734 2.40771 5.31611C2.40771 5.47488 2.44617 5.63128 2.51979 5.77195C2.88594 6.54445 3.47763 7.18785 4.21683 7.61729C5.18688 8.20288 6.24619 8.62583 7.35279 8.86948C6.73156 9.97179 6.27106 11.1573 5.98527 12.3899C5.81501 13.2412 5.8919 13.977 6.26536 14.3341C6.40342 14.4389 6.56095 14.5152 6.72877 14.5586C6.89661 14.602 7.07141 14.6115 7.24295 14.5867C8.31672 14.434 9.35886 14.1095 10.3295 13.6256C11.3112 13.1956 12.2341 12.6419 13.0755 11.978C13.4709 11.621 13.6247 11.275 13.5863 11.0553C13.4654 10.3853 12.6965 9.71521 11.5542 9.23743ZM4.44749 7.26579C3.76256 6.88801 3.20605 6.31429 2.84931 5.61817C3.01717 5.6376 3.18671 5.6376 3.35458 5.61817C4.6234 5.20264 5.86674 4.713 7.07817 4.15179C7.62949 3.92531 8.14407 3.61805 8.60497 3.24011C8.7664 3.07646 8.905 2.89172 9.01687 2.69091C9.21767 3.23819 9.25023 3.83303 9.11026 4.39893C8.76282 5.70613 8.26909 6.96994 7.63835 8.16647C7.5999 8.25436 7.56696 8.33125 7.54501 8.39714C6.45701 8.19402 5.41029 7.81172 4.44749 7.26579ZM12.5538 11.5825C11.5697 12.3084 10.4952 12.9029 9.35737 13.351C8.71156 13.6295 8.03495 13.8304 7.34179 13.9496C7.12366 14.0072 6.89213 13.9859 6.68825 13.8892C6.5125 13.7903 6.49603 13.5212 6.48505 13.2466C6.48907 12.8086 6.55 12.3729 6.66628 11.9505C6.92401 10.9585 7.29245 9.99874 7.76468 9.08915L7.84707 8.94087C9.03749 9.02568 10.2061 9.30392 11.3071 9.76466C11.9517 9.97564 12.5094 10.3924 12.8943 10.951C12.9547 11.0004 12.9986 11.2201 12.5538 11.5825Z" fill="#111111"/>
<path d="M4.44749 7.26579C3.76256 6.88801 3.20605 6.31429 2.84931 5.61817C3.01717 5.6376 3.18671 5.6376 3.35458 5.61817C4.6234 5.20264 5.86674 4.713 7.07817 4.15179C7.62949 3.92531 8.14407 3.61805 8.60497 3.24011C8.7664 3.07646 8.905 2.89172 9.01687 2.69091C9.21767 3.23819 9.25023 3.83303 9.11026 4.39893C8.76282 5.70613 8.26909 6.96994 7.63835 8.16647C7.5999 8.25436 7.56696 8.33125 7.54501 8.39714C6.45701 8.19402 5.41029 7.81172 4.44749 7.26579Z" fill="#F0EACD"/>
<path d="M12.5538 11.5825C11.5697 12.3084 10.4952 12.9029 9.35737 13.351C8.71156 13.6295 8.03495 13.8304 7.34179 13.9496C7.12366 14.0072 6.89213 13.9859 6.68825 13.8892C6.5125 13.7903 6.49603 13.5212 6.48505 13.2466C6.48907 12.8086 6.55 12.3729 6.66628 11.9505C6.92401 10.9585 7.29245 9.99874 7.76468 9.08915L7.84707 8.94087C9.03749 9.02568 10.2061 9.30392 11.3071 9.76466C11.9517 9.97564 12.5094 10.3924 12.8943 10.951C12.9547 11.0004 12.9986 11.2201 12.5538 11.5825Z" fill="#F0EACD"/>
<path d="M7.32533 13.5542C7.72331 12.9098 8.31841 12.411 9.02236 12.1317C9.5063 11.8989 10.0122 11.7149 10.5327 11.5825C11.1377 11.3828 11.7686 11.2718 12.4055 11.253C12.6471 11.2146 12.6251 10.896 12.3396 10.8741C11.7059 10.7913 11.0626 10.8211 10.4393 10.962C10.0791 11.0316 9.72608 11.1346 9.38486 11.2695C9.03869 11.4055 8.70743 11.5766 8.39629 11.7802C7.7171 12.1708 7.18173 12.7697 6.86949 13.4883C6.7926 13.7739 7.21 13.7519 7.32533 13.5542Z" fill="#111111"/>
</g>
<defs>
<clipPath id="clip0_8747_232993">
<rect width="13.2" height="13.2" fill="white" transform="translate(1.40015 1.40015)"/>
</clipPath>
</defs>
</svg>
