<svg width="17" height="17" viewBox="0 0 17 17" fill="none" xmlns="http://www.w3.org/2000/svg">
<path d="M5.94538 5.53024C4.31053 7.4995 3.04724 9.28297 3.1587 9.43159C3.27017 9.61737 3.90182 9.766 4.53346 9.766C6.57703 9.766 7.27388 10.0389 6.97663 12.937C6.53077 17.3214 7.15716 15.9173 10.6695 10.7445C12.713 7.73484 13.1536 7.31372 10.9986 7.09078L9.80958 6.97932L9.69811 4.45273C9.6238 3.07796 9.43802 1.96329 9.25224 1.96329C9.06646 1.96329 7.58023 3.56099 5.94538 5.53024ZM9.99536 7.90821C10.5898 7.90821 11.1843 8.09399 11.2958 8.31692C11.4444 8.5027 10.7385 9.766 9.73527 11.0664L7.95179 13.4073L7.76601 11.3265L7.3613 9.43159L5.94538 9.20571L4.45915 8.8371L6.57703 6.05042L8.6949 3.26374L8.80637 5.5674C8.80656 5.57124 8.80674 5.57507 8.80693 5.57889C8.91784 7.87118 8.91963 7.90821 9.99536 7.90821Z" fill="#111111"/>
<path d="M9.99536 7.90821C10.5898 7.90821 11.1843 8.09399 11.2958 8.31692C11.4444 8.5027 10.7385 9.766 9.73527 11.0664L7.95179 13.4073L7.76601 11.3265L7.3613 9.43159L5.94538 9.20571L4.45915 8.8371L6.57703 6.05042L8.6949 3.26374L8.80637 5.5674L8.80693 5.57889C8.91784 7.87118 8.91963 7.90821 9.99536 7.90821Z" fill="#CFFF29"/>
<path d="M13.3828 4.3391C13.1176 4.59199 13.0434 3.76089 13.2091 3.58718C14.058 2.6953 14.851 1.69356 15.8031 0.911558C16.0535 0.705317 16.094 1.68926 15.9541 1.85499C15.1929 2.76098 14.2403 3.52457 13.3828 4.3391ZM16.5765 5.26596C15.7687 5.60356 14.9143 5.78156 14.0678 5.9964C13.7627 6.07374 13.6995 4.88048 14.0248 4.77921C14.8547 4.52263 15.6742 4.22125 16.5353 4.09603C16.8748 4.04631 16.8508 5.15056 16.5765 5.26596ZM12.2988 3.22871C12.2374 3.40242 12.1288 3.59331 11.9532 3.42329C11.7875 3.26431 11.8262 2.83771 11.8826 2.6462C12.1288 1.81632 12.3105 0.902965 12.7315 0.13938C12.9777 -0.306864 13.1189 0.444445 13.0869 0.634728C12.9365 1.53028 12.5977 2.37489 12.2988 3.22871Z" fill="#111111"/>
</svg>
