<svg width="16" height="16" viewBox="0 0 16 16" fill="none" xmlns="http://www.w3.org/2000/svg">
<path d="M2.77834 14.193C-0.380124 12.6139 1.41995 6.67105 3.01282 3.73401L5.87467 4.05579L6.62373 3.45654L7.37278 4.05579L5.17556 10.5476L5.87467 14.193C6.05776 14.7423 5.87471 15.7411 2.77834 14.193Z" fill="#FFE253"/>
<path d="M11.7236 1.05707C11.7236 1.2046 10.5 2.0377 9.57146 2.52367C8.52141 3.07907 8.39124 2.96626 9.3198 2.30672C10.3785 1.55173 11.7236 0.848799 11.7236 1.05707Z" fill="#111111"/>
<path d="M4.25177 2.71451C5.01544 2.80129 6.91594 3.13974 7.19364 3.24388C7.49738 3.35669 7.73168 3.82531 7.73168 4.31128C7.73168 4.64973 7.61019 5.00553 7.08083 6.15972C5.95267 8.6243 5.45802 10.3426 5.44935 11.8699C5.44067 12.8419 5.65762 13.7357 5.89193 13.7357C6.04813 13.7357 6.82048 13.3105 7.31514 12.946C7.74036 12.6423 7.9226 12.6336 9.28506 12.8592C9.84046 12.9547 10.5087 13.0588 10.769 13.0848C11.3071 13.1543 11.4546 13.2237 11.9145 13.5882C12.0881 13.727 12.2617 13.8225 12.305 13.7964C12.3831 13.7444 15.0126 14.3085 15.0907 14.3866C15.1775 14.4647 14.8217 14.7684 14.5353 14.8639C14.3791 14.9159 14.058 14.968 13.8324 14.9767C13.303 14.9853 11.0554 14.5862 9.90989 14.2651L9.02472 14.0134L8.44329 14.4386C7.80979 14.9072 7.51473 14.994 6.88991 14.9159C6.66428 14.8899 6.03946 14.8291 5.51877 14.7857C4.98941 14.7424 4.2778 14.6382 3.93068 14.5688C3.58355 14.4907 3.27982 14.4299 3.25379 14.4299C3.23643 14.4299 3.21907 14.3866 3.21907 14.3258C3.21907 14.2304 4.86791 14.2737 5.4667 14.3952L5.75308 14.456L5.49274 13.9874C5.10222 13.2844 5.01544 12.7464 5.06751 11.5315C5.14561 9.87394 5.67498 8.15568 6.87255 5.73449C7.2891 4.88404 7.38456 4.60634 7.38456 4.25922C7.38456 3.92077 7.34117 3.7906 7.16761 3.62571C6.87255 3.32198 6.71635 3.35669 6.33451 3.76456L6.00474 4.12904L4.67699 3.89474C3.94803 3.76456 3.26246 3.63439 3.14965 3.60836C2.97609 3.56497 2.95873 3.591 2.95873 3.93813C2.95873 4.52824 2.75046 5.2572 2.21241 6.57627C1.50081 8.3466 1.30989 9.17102 1.30989 10.5161C1.30989 12.191 1.60495 13.241 2.24713 13.8832C2.58557 14.2217 2.55086 14.3779 2.19506 14.1175C1.07558 13.2931 0.554897 10.4641 1.13633 8.37263C1.23179 8.02551 1.56156 7.18373 1.86529 6.49816C2.51615 5.0576 2.69839 4.48485 2.69839 3.92945V3.53026L2.16035 3.42612C1.86529 3.37405 1.58759 3.28727 1.5442 3.24388C1.42271 3.12238 1.61363 2.83601 1.90868 2.71451C2.2992 2.55831 2.43805 2.66244 2.06489 2.83601C1.49213 3.11371 1.37064 3.07899 4.43401 3.58232L5.86589 3.81663L6.05681 3.591L6.23905 3.36537L5.39728 3.26123C4.2778 3.13106 2.61161 2.79262 2.61161 2.70583C2.61161 2.61905 3.33189 2.61905 4.25177 2.71451ZM6.70767 13.701C6.456 13.8138 6.19566 13.9093 6.12624 13.9093C5.75308 13.9093 6.36055 14.482 6.82916 14.5688C7.30646 14.6556 7.61019 14.5514 8.42593 14.0047C8.85116 13.7183 9.27639 13.4667 9.37185 13.432C9.73633 13.3192 9.53673 13.241 8.70363 13.1629C7.90525 13.0848 7.8445 13.0935 7.51473 13.2844C7.32381 13.3973 6.95933 13.5795 6.70767 13.701ZM9.83178 13.6142C9.63219 13.6923 9.4673 13.7878 9.4673 13.8225C9.4673 13.8572 9.80575 13.9353 10.2223 13.996C10.6475 14.0568 11.2723 14.1783 11.6282 14.2651C11.984 14.3605 12.2877 14.4126 12.305 14.3952C12.3658 14.3432 11.524 13.6316 11.2463 13.5101C10.9426 13.3625 10.3785 13.4146 9.83178 13.6142ZM12.6435 14.2477C13.0948 14.6729 13.4853 14.7944 14.1274 14.6903C14.6481 14.6035 14.7696 14.5428 14.5787 14.4733C14.4659 14.4386 12.4352 13.9353 12.3311 13.9179C12.305 13.9179 12.4526 14.0655 12.6435 14.2477Z" fill="#111111"/>
<path d="M7.8316 4.31186C7.83149 4.67651 7.69772 5.05407 7.17145 6.20151C6.04532 8.66171 5.55796 10.3645 5.54938 11.8705L5.55621 12.2249C5.57265 12.5716 5.61714 12.8921 5.67731 13.1439C5.71761 13.3125 5.76376 13.4454 5.8111 13.5335C5.83485 13.5778 5.85632 13.6064 5.8736 13.6224C5.89038 13.638 5.89624 13.6361 5.89215 13.6361C5.89304 13.636 5.89775 13.6352 5.9068 13.6332C5.91676 13.6309 5.92982 13.6277 5.94586 13.6224C5.97863 13.6115 6.02056 13.5946 6.06989 13.5726C6.1685 13.5286 6.29254 13.4651 6.42828 13.39C6.69973 13.2398 7.01239 13.0446 7.25543 12.8656L7.25739 12.8646C7.36551 12.7874 7.46393 12.7244 7.57282 12.68C7.68308 12.6351 7.79996 12.6103 7.94391 12.6039C8.22566 12.5914 8.6237 12.6489 9.30133 12.7611C9.85705 12.8566 10.5225 12.96 10.7789 12.9857H10.7818C11.0526 13.0206 11.2362 13.0564 11.4117 13.1341C11.4989 13.1728 11.5827 13.2212 11.6734 13.2826L11.9771 13.5101C12.0604 13.5767 12.1418 13.6319 12.2056 13.6664C12.238 13.6838 12.263 13.6939 12.2789 13.6986C12.2808 13.6992 12.2825 13.6992 12.2838 13.6996C12.2862 13.6989 12.288 13.697 12.2896 13.6966C12.2983 13.6948 12.3067 13.6941 12.313 13.6937C12.326 13.6929 12.3406 13.693 12.3541 13.6937C12.3815 13.6952 12.417 13.699 12.4576 13.7044C12.5393 13.7153 12.6503 13.7338 12.7798 13.7572C13.0398 13.8042 13.3795 13.8725 13.7183 13.9447C14.0571 14.0169 14.3969 14.0933 14.6568 14.1566C14.7864 14.1882 14.8977 14.2172 14.9791 14.2406C15.0195 14.2522 15.0542 14.2634 15.0806 14.2728C15.0937 14.2775 15.1067 14.2823 15.1177 14.2874C15.1243 14.2905 15.1414 14.2989 15.1568 14.3128C15.1581 14.314 15.1604 14.3146 15.1617 14.3158L15.1607 14.3167C15.1977 14.3525 15.2076 14.3982 15.2027 14.4378C15.1982 14.4744 15.1819 14.5075 15.1656 14.5335C15.1322 14.5869 15.0784 14.6431 15.0181 14.6947C14.8969 14.7986 14.7252 14.9056 14.567 14.9583C14.3994 15.0142 14.0686 15.0676 13.8365 15.0765H13.8345C13.5581 15.081 12.853 14.9815 12.0845 14.8431C11.3121 14.7041 10.4605 14.5234 9.88336 14.3617L9.0445 14.1234L8.5025 14.5199C8.18407 14.7554 7.94065 14.9022 7.69293 14.9779C7.44264 15.0543 7.19628 15.0548 6.8775 15.015L6.87848 15.014C6.65417 14.9881 6.03035 14.9284 5.51032 14.8851C5.1105 14.8523 4.60814 14.786 4.23395 14.7249L3.91071 14.6673L3.90875 14.6664C3.73583 14.6274 3.57357 14.5925 3.45172 14.5677C3.39088 14.5553 3.33993 14.5461 3.30328 14.5394C3.28502 14.536 3.27053 14.5332 3.26032 14.5316C3.24687 14.5295 3.24758 14.5296 3.25348 14.5296C3.20593 14.5295 3.17614 14.501 3.16364 14.4857C3.14979 14.4686 3.14071 14.4492 3.13532 14.4339C3.12423 14.4024 3.11871 14.3643 3.11871 14.3255C3.11885 14.283 3.14336 14.2549 3.15875 14.2416C3.17381 14.2286 3.19001 14.2214 3.20075 14.2171C3.22311 14.2082 3.24972 14.2018 3.27496 14.1976C3.3272 14.1889 3.39906 14.1828 3.482 14.1791C3.64936 14.1715 3.8771 14.172 4.12164 14.1791C4.60918 14.1932 5.17851 14.2346 5.48688 14.2972L5.55914 14.3128L5.40582 14.0365C5.20619 13.6771 5.08145 13.3555 5.0152 12.9681C4.94943 12.5833 4.94126 12.1366 4.96735 11.5277C5.04639 9.85066 5.58234 8.11676 6.78278 5.68979C7.20016 4.83759 7.28473 4.57977 7.28473 4.25913C7.28472 4.09214 7.27361 3.98861 7.24664 3.90952C7.22101 3.83442 7.17838 3.77387 7.09918 3.69858L7.09625 3.69565C6.95055 3.54566 6.87057 3.51473 6.80133 3.52671C6.76171 3.53366 6.71166 3.55678 6.64508 3.60776C6.57876 3.65857 6.50202 3.73268 6.40778 3.83335L6.04157 4.23764L5.98785 4.22788L4.65973 3.9935C3.93217 3.86358 3.24382 3.73223 3.1275 3.70542H3.12555C3.10008 3.69905 3.08243 3.69832 3.07086 3.69663C3.06857 3.70777 3.06574 3.72256 3.06403 3.74253C3.0601 3.78825 3.05915 3.85106 3.05914 3.93784C3.05914 4.54975 2.84304 5.2961 2.30524 6.6146C1.59681 8.37713 1.40975 9.18826 1.40973 10.516C1.40973 12.1842 1.705 13.1999 2.31793 13.8128C2.40527 13.9002 2.47157 13.9788 2.5152 14.0443C2.53669 14.0766 2.55426 14.1082 2.56598 14.138C2.57651 14.165 2.58783 14.205 2.57868 14.2464C2.57352 14.2696 2.56192 14.2943 2.54059 14.3138C2.51986 14.3327 2.49612 14.3423 2.47516 14.346C2.43645 14.3529 2.39723 14.3436 2.36774 14.3333C2.30568 14.3117 2.22755 14.2653 2.13629 14.1986C1.83846 13.9793 1.58652 13.6317 1.38532 13.2093C1.18365 12.786 1.0292 12.2811 0.929261 11.7386C0.754504 10.7899 0.74397 9.71736 0.941957 8.75229L1.03961 8.34604C1.11281 8.07989 1.31829 7.53677 1.5445 6.99253L1.77399 6.45737C2.42574 5.01481 2.5981 4.46059 2.59821 3.93003V3.61362L2.14118 3.52475C1.99027 3.49809 1.84448 3.46281 1.72907 3.42807C1.67151 3.41075 1.62032 3.39296 1.57965 3.37632C1.55939 3.36802 1.54039 3.35877 1.52399 3.34995C1.50931 3.34205 1.48919 3.33077 1.47321 3.31479C1.41676 3.25827 1.40065 3.18461 1.40875 3.11557C1.41666 3.04878 1.44745 2.98255 1.48785 2.92319C1.56895 2.80408 1.70625 2.69013 1.87067 2.62241L1.87164 2.62143C1.97403 2.58049 2.06361 2.55524 2.13532 2.54428C2.17099 2.53884 2.20541 2.53617 2.2359 2.53843C2.26328 2.54048 2.30138 2.54804 2.33356 2.57261C2.35148 2.58631 2.36866 2.60619 2.3775 2.63315C2.38623 2.65986 2.38419 2.68543 2.37848 2.70639C2.36809 2.74451 2.34311 2.77404 2.32184 2.79428C2.2767 2.83722 2.20361 2.88216 2.107 2.9271C2.03374 2.96259 1.97306 2.99015 1.92243 3.01596C1.91682 3.01882 1.91181 3.02309 1.9068 3.02573C1.90988 3.02674 1.9133 3.0286 1.91657 3.02964C2.04959 3.07169 2.29702 3.12164 2.70856 3.1937C3.11831 3.26544 3.68465 3.35786 4.45075 3.48374L5.82672 3.70932L5.98004 3.52964L5.97907 3.52866L6.04938 3.4437L5.38532 3.36069L4.94196 3.30307C4.48164 3.23711 3.98373 3.14984 3.565 3.06577C3.28587 3.00972 3.04032 2.95427 2.86383 2.90757C2.77632 2.8844 2.7033 2.86262 2.65094 2.84311C2.62554 2.83363 2.60043 2.82335 2.58063 2.81186C2.57101 2.80626 2.55735 2.79738 2.54547 2.7855C2.53575 2.77574 2.51147 2.74854 2.51129 2.70639C2.51129 2.66232 2.53525 2.63102 2.55426 2.6146C2.57229 2.59905 2.59314 2.59031 2.60895 2.58432C2.64125 2.57212 2.68202 2.56362 2.72516 2.55796C2.81368 2.54638 2.93844 2.54178 3.08746 2.54233C3.38677 2.54345 3.80028 2.56763 4.26227 2.61557C4.64739 2.65935 5.31679 2.76583 5.92243 2.87436C6.22564 2.9287 6.51433 2.98361 6.74469 3.03159C6.97087 3.0787 7.14966 3.12143 7.22809 3.15073C7.41282 3.21935 7.56303 3.38914 7.66559 3.59311C7.76929 3.79939 7.8316 4.0537 7.8316 4.31186ZM7.53375 14.6185C7.27697 14.7088 7.06359 14.7132 6.8111 14.6673L6.71344 14.6439C6.4829 14.5757 6.2448 14.4221 6.09332 14.2796C6.04925 14.2382 6.01025 14.195 5.98004 14.1537C5.95104 14.1139 5.92473 14.0681 5.91461 14.0208C5.90378 13.9698 5.91081 13.9054 5.96442 13.8587C6.01005 13.819 6.07176 13.8089 6.12653 13.8089C6.12783 13.8088 6.13239 13.8087 6.14118 13.807C6.15207 13.8048 6.16665 13.8012 6.18414 13.7962C6.21907 13.7864 6.26376 13.7718 6.315 13.7533C6.41739 13.7163 6.54279 13.6652 6.66657 13.6097C6.91825 13.4882 7.27711 13.3086 7.46344 13.1986L7.46442 13.1976C7.63117 13.1011 7.74485 13.0424 7.9234 13.0238C8.09196 13.0063 8.31841 13.0252 8.71344 13.0638C8.92239 13.0834 9.09325 13.1029 9.22614 13.1234C9.35666 13.1435 9.45823 13.1654 9.52399 13.1917C9.55376 13.2037 9.59451 13.2231 9.62067 13.2582C9.63593 13.2786 9.6479 13.3074 9.64606 13.3412C9.64421 13.3736 9.63041 13.3993 9.61676 13.4164C9.59206 13.4471 9.55537 13.4674 9.52496 13.4818C9.49134 13.4976 9.44952 13.5129 9.40192 13.5277C9.38431 13.5348 9.34744 13.5526 9.29157 13.5833C9.23313 13.6155 9.15874 13.6582 9.07379 13.7093C8.90387 13.8115 8.69316 13.946 8.482 14.0882C8.07395 14.3617 7.78442 14.5304 7.53375 14.6185ZM6.84723 14.4701C7.07197 14.5109 7.24909 14.5067 7.46735 14.43C7.69169 14.3511 7.96236 14.1952 8.36969 13.9222C8.58373 13.7781 8.7984 13.6424 8.97125 13.5384C9.05761 13.4865 9.13447 13.4423 9.19586 13.4085C9.24757 13.3801 9.29365 13.3583 9.32575 13.3451C9.28928 13.3376 9.24636 13.3284 9.19586 13.3207C9.0685 13.301 8.90131 13.2825 8.69391 13.263C8.29079 13.2236 8.08774 13.207 7.94391 13.222C7.81005 13.236 7.72801 13.2771 7.565 13.3714C7.3698 13.4867 7.0025 13.6702 6.75153 13.7914L6.7486 13.7923C6.62089 13.8496 6.49033 13.9028 6.38239 13.9417C6.3286 13.9611 6.27904 13.977 6.23785 13.9886C6.20072 13.9991 6.16001 14.0089 6.1275 14.0091C6.13188 14.0165 6.1351 14.0268 6.14215 14.0365C6.16314 14.0652 6.19334 14.0987 6.23102 14.1341C6.38564 14.2794 6.63755 14.4312 6.84723 14.4701ZM12.231 14.4955C12.1911 14.4911 12.1379 14.4826 12.0757 14.471C11.951 14.4479 11.7841 14.4106 11.605 14.3626C11.2526 14.2767 10.6306 14.1554 10.2086 14.0951C9.99875 14.0645 9.80648 14.0296 9.66657 13.9974C9.59725 13.9815 9.53781 13.9653 9.49469 13.9505C9.47374 13.9433 9.45184 13.9349 9.43414 13.9251C9.42569 13.9205 9.41344 13.9128 9.40192 13.9017C9.39259 13.8927 9.36775 13.8656 9.36774 13.8226C9.36774 13.7828 9.38871 13.7548 9.39703 13.7445C9.40816 13.7307 9.42116 13.7181 9.43317 13.7083C9.45763 13.6885 9.48978 13.668 9.52496 13.6478C9.59621 13.6069 9.69205 13.5613 9.79547 13.5208L9.79742 13.5199C10.078 13.4174 10.365 13.3527 10.6226 13.3324C10.8761 13.3124 11.1121 13.3356 11.2867 13.4193C11.3668 13.4544 11.4793 13.5271 11.5963 13.6117C11.7155 13.6979 11.8471 13.8017 11.9673 13.9027C12.0872 14.0034 12.1982 14.103 12.2759 14.182C12.3142 14.2209 12.3474 14.2584 12.3697 14.2894C12.3801 14.3039 12.3923 14.323 12.4 14.3441C12.4046 14.3571 12.426 14.4232 12.3707 14.471C12.3575 14.4827 12.3446 14.4879 12.3375 14.4906C12.3285 14.4939 12.3204 14.4955 12.315 14.4964C12.3042 14.4982 12.2935 14.4983 12.2857 14.4984C12.2696 14.4984 12.2505 14.4976 12.231 14.4955ZM12.0738 14.266C12.0081 14.2035 11.9272 14.1296 11.8384 14.055C11.7213 13.9566 11.5937 13.8567 11.4791 13.7738C11.3624 13.6894 11.2653 13.6276 11.2066 13.6019L11.2027 13.5999C11.074 13.5374 10.8777 13.5127 10.6382 13.5316C10.4019 13.5503 10.1341 13.6117 9.86871 13.7083C9.79827 13.7359 9.73315 13.7657 9.67926 13.7933C9.68953 13.7958 9.70034 13.7995 9.71149 13.8021C9.8448 13.8328 10.0307 13.8668 10.2369 13.8968C10.6652 13.958 11.293 14.0808 11.6519 14.1683H11.6539C11.8115 14.2106 11.9588 14.2434 12.0738 14.266ZM13.3423 14.5716C13.5571 14.6363 13.7992 14.6426 14.1109 14.5921C14.2351 14.5714 14.3352 14.5522 14.4127 14.5345C14.2111 14.4828 13.8208 14.3839 13.4273 14.2865C13.132 14.2134 12.8396 14.1442 12.6285 14.0931L12.7125 14.1751C12.9308 14.3809 13.1279 14.507 13.3423 14.5716ZM1.20953 10.516C1.20956 9.15404 1.40536 8.31655 2.11969 6.5394C2.65795 5.2198 2.85895 4.50614 2.85895 3.93784C2.85895 3.85159 2.86009 3.78117 2.86481 3.72593C2.86929 3.67373 2.87779 3.61945 2.90289 3.57651C2.91677 3.5528 2.93617 3.53132 2.96246 3.51596C2.9883 3.50097 3.01553 3.49517 3.03961 3.4935C3.08351 3.49053 3.13236 3.50058 3.17438 3.51108C3.29108 3.53764 3.96979 3.66676 4.69489 3.79624L5.96735 4.02182L6.26032 3.69761L6.26129 3.69663C6.35791 3.59342 6.44444 3.5095 6.52399 3.44858C6.60314 3.38802 6.68232 3.34418 6.76618 3.32944C6.94417 3.29821 7.09074 3.40255 7.23981 3.556C7.33199 3.64419 7.39717 3.73092 7.4361 3.84507C7.4742 3.95683 7.48492 4.08786 7.48492 4.25913C7.48492 4.63266 7.3779 4.93047 6.96246 5.77866L6.54547 6.65268C5.64398 8.61934 5.23508 10.1033 5.16754 11.5365C5.14162 12.1417 5.15032 12.5715 5.21246 12.9349C5.27422 13.2959 5.38978 13.5953 5.58063 13.9388L5.94684 14.5999L5.732 14.5541L5.44586 14.4935C5.15557 14.4346 4.60222 14.3933 4.11578 14.3792C3.88888 14.3727 3.67948 14.3733 3.52203 14.3792C3.64118 14.4037 3.79249 14.435 3.9527 14.471C4.29683 14.5397 5.00256 14.6429 5.52692 14.6859C5.78759 14.7076 6.07468 14.7342 6.32477 14.7582L6.90192 14.8167C7.20796 14.855 7.42252 14.8511 7.63434 14.7865C7.84841 14.7211 8.06979 14.5914 8.38434 14.3587L9.00543 13.9037L9.05231 13.9173L9.93707 14.1693C10.5053 14.3286 11.3499 14.5073 12.1197 14.6458C12.8935 14.7852 13.5775 14.8804 13.8306 14.8763L13.8316 14.8773C14.0505 14.8685 14.3592 14.8169 14.5035 14.7689C14.6316 14.7262 14.7817 14.6346 14.8882 14.5433C14.929 14.5084 14.9587 14.4754 14.9791 14.4496C14.9634 14.4446 14.9452 14.4389 14.9244 14.433C14.8468 14.4107 14.7388 14.3823 14.6099 14.3509C14.3525 14.2882 14.0151 14.213 13.6773 14.141C13.6648 14.1383 13.6517 14.1368 13.6392 14.1341C14.1134 14.2518 14.5539 14.3616 14.608 14.3783L14.6129 14.3792C14.6395 14.3889 14.6653 14.4002 14.6871 14.4134C14.7061 14.425 14.7372 14.4473 14.7535 14.4847C14.7626 14.5058 14.7671 14.5305 14.7623 14.556C14.7576 14.5801 14.746 14.599 14.7349 14.6126C14.7141 14.638 14.6857 14.6547 14.6636 14.6654C14.6172 14.6879 14.5499 14.7077 14.4673 14.7269C14.3828 14.7466 14.2752 14.7676 14.1441 14.7894C13.8142 14.8429 13.5383 14.8393 13.2847 14.763C13.031 14.6866 12.8073 14.5398 12.5748 14.3207C12.4792 14.2295 12.3926 14.1456 12.3336 14.0843C12.3046 14.0543 12.2797 14.027 12.2632 14.0062C12.2566 13.9978 12.2454 13.9823 12.2379 13.9652C12.2361 13.9611 12.2221 13.9308 12.232 13.8939L12.233 13.8929C12.2292 13.8919 12.2249 13.8911 12.2213 13.89C12.187 13.8798 12.1489 13.8626 12.1109 13.8421C12.0338 13.8006 11.9421 13.7384 11.8521 13.6664L11.5611 13.4486C11.478 13.3923 11.405 13.3507 11.3306 13.3177C11.1836 13.2526 11.025 13.2192 10.7603 13.1849C10.4959 13.1585 9.82305 13.0537 9.26813 12.9583C8.5837 12.845 8.20891 12.7927 7.9527 12.8041C7.82814 12.8096 7.7348 12.8306 7.64899 12.8656C7.56172 12.9011 7.47788 12.9532 7.3736 13.0277C7.12223 13.2128 6.80187 13.4116 6.52496 13.5648C6.38639 13.6415 6.25746 13.7081 6.15192 13.7552C6.09921 13.7787 6.05061 13.7981 6.00934 13.8119C5.97106 13.8246 5.92886 13.8362 5.89215 13.8363C5.82915 13.8363 5.77642 13.8056 5.73688 13.7689C5.69753 13.7323 5.66371 13.683 5.63434 13.6283C5.57541 13.5185 5.52412 13.367 5.482 13.1908C5.39739 12.8368 5.34481 12.3621 5.34918 11.8695C5.35798 10.3209 5.85983 8.58712 6.98981 6.1185C7.52176 4.95867 7.6313 4.62382 7.63141 4.31186C7.63141 4.08411 7.57622 3.86066 7.48688 3.68296C7.419 3.54795 7.33548 3.44615 7.24762 3.38511L7.15875 3.33725L6.99567 3.29233C6.91847 3.27364 6.81967 3.25204 6.70368 3.22788C6.47575 3.18041 6.1893 3.12576 5.88727 3.07163C5.28257 2.96326 4.61935 2.85685 4.24078 2.81382C3.78309 2.76632 3.37727 2.74262 3.08649 2.74155C3.06843 2.74148 3.05081 2.7434 3.03375 2.7435C3.19049 2.78178 3.38591 2.82568 3.60407 2.86948C4.15859 2.98082 4.85243 3.09776 5.40875 3.16245L6.25153 3.26596L6.43024 3.28843L6.31696 3.42807L6.13434 3.65366L6.13336 3.65561L5.94196 3.8812L5.90582 3.92417L5.85016 3.91538L4.41754 3.681L2.6734 3.39096C2.26495 3.31945 2.00407 3.26691 1.85602 3.22007C1.81841 3.20816 1.7849 3.1953 1.75739 3.18198C1.73124 3.1693 1.70286 3.15275 1.68121 3.12925C1.66336 3.10979 1.64898 3.08298 1.64508 3.05112C1.62261 3.08733 1.61057 3.11704 1.60797 3.13901C1.60538 3.16119 1.6107 3.16904 1.61481 3.17319C1.60978 3.16819 1.60883 3.16885 1.61871 3.17417C1.62686 3.17853 1.63876 3.18417 1.65485 3.19077C1.68758 3.20418 1.73274 3.21945 1.78668 3.23569C1.89438 3.2681 2.03366 3.30212 2.17731 3.32749L2.17926 3.32846L2.7984 3.44761V3.93003C2.79829 4.50994 2.60616 5.10172 1.9566 6.5394C1.65322 7.22423 1.32644 8.05923 1.23297 8.39878C0.946981 9.42761 0.93141 10.6433 1.12653 11.7025C1.22401 12.2316 1.3734 12.7191 1.56598 13.1234C1.75908 13.5287 1.99257 13.8446 2.25446 14.0374C2.23148 14.0118 2.20573 13.9838 2.17633 13.9544C1.50491 13.283 1.20953 12.1975 1.20953 10.516Z" fill="#111111"/>
<path d="M4.65112 4.33753C5.18916 4.3896 6.24789 4.63259 6.30864 4.71937C6.38674 4.84954 4.85939 4.78879 4.22589 4.64126C3.52297 4.4677 3.3494 4.26811 3.93084 4.29414C4.13043 4.30282 4.4602 4.32017 4.65112 4.33753Z" fill="#111111"/>
<path d="M12.1054 5.04043C12.1835 5.17928 12.088 5.21399 11.2115 5.36152C10.3784 5.50905 9.46725 5.50905 9.45857 5.36152C9.44989 5.16193 11.9839 4.84951 12.1054 5.04043Z" fill="#111111"/>
<path d="M5.71866 5.86478C6.08314 5.9776 6.03107 6.1338 5.61453 6.16852C5.25005 6.20323 4.34752 5.96024 4.34752 5.83875C4.34752 5.72593 5.35418 5.74329 5.71866 5.86478Z" fill="#111111"/>
<path d="M4.56416 6.69777C5.20634 6.79323 5.74438 6.96679 5.69231 7.05357C5.60553 7.19242 4.79847 7.15771 4.10422 6.99283C3.12359 6.7672 3.46204 6.55024 4.56416 6.69777Z" fill="#111111"/>
<path d="M10.2921 7.72151C10.5784 7.78225 11.29 8.1207 11.29 8.1988C11.29 8.34633 10.6218 8.25955 10.1792 8.05127C9.54574 7.75622 9.60649 7.57398 10.2921 7.72151Z" fill="#111111"/>
<path d="M4.79867 7.89551C5.07637 7.96493 5.302 8.06039 5.302 8.10378C5.302 8.23395 4.08707 8.19056 3.54903 8.04304C3.27133 7.96493 3.0457 7.8608 3.0457 7.82608C3.0457 7.70459 4.26063 7.75666 4.79867 7.89551Z" fill="#111111"/>
<path d="M3.8614 9.30992C5.00691 9.55291 5.03295 9.68308 3.91347 9.63969C2.97624 9.5963 1.74395 9.36199 1.74395 9.21446C1.74395 9.08429 3.04566 9.13636 3.8614 9.30992Z" fill="#111111"/>
<path d="M3.66658 11.2494C4.81209 11.4924 4.83812 11.6225 3.71865 11.5791C2.78141 11.5358 1.54912 11.3014 1.54912 11.1539C1.54912 11.0237 2.85084 11.0758 3.66658 11.2494Z" fill="#111111"/>
<path d="M4.07063 12.5113C5.21614 12.7543 5.24218 12.8845 4.1227 12.8411C3.18547 12.7977 1.95318 12.5634 1.95318 12.4159C1.95318 12.2857 3.25489 12.3378 4.07063 12.5113Z" fill="#111111"/>
<path d="M4.27779 10.3166C4.5121 10.386 4.69434 10.4815 4.69434 10.5249C4.69434 10.6464 3.58354 10.6203 3.22774 10.4902C3.06285 10.4294 2.90665 10.334 2.88929 10.2819C2.8459 10.1344 3.76578 10.1604 4.27779 10.3166Z" fill="#111111"/>
</svg>
