<svg width="16" height="16" viewBox="0 0 16 16" fill="none" xmlns="http://www.w3.org/2000/svg">
<path d="M9.85771 10.855H11.6982L10.7033 8.61657L9.85771 2.69701L8.01708 2.00049L3.44057 2.44832L4.93291 3.2939L4.53495 8.61657L5.62934 12.2977L7.61912 12.9941L9.85771 10.855Z" fill="#907800" fill-opacity="0.1"/>
<path fill-rule="evenodd" clip-rule="evenodd" d="M2.39086 2.68041C3.02617 2.34213 3.70772 2.09908 4.41376 1.95906C5.92488 1.68036 7.47099 1.64683 8.99273 1.85974C9.51545 1.92247 10.1532 1.9852 10.4616 2.41905C10.6828 2.84914 10.7788 3.33272 10.7386 3.8147C10.9738 6.17214 10.3936 9.40251 11.9147 10.1396C11.9516 10.1627 11.9788 10.1986 11.991 10.2404C12.0031 10.2822 11.9995 10.3271 11.9808 10.3664C11.9621 10.4058 11.9296 10.4369 11.8895 10.4538C11.8493 10.4708 11.8044 10.4724 11.7631 10.4584C9.92839 9.6482 10.4616 6.27669 10.1532 3.86697C10.0852 3.5063 10.1688 3.0254 9.98067 2.76927C9.79249 2.51314 9.20182 2.47132 8.93523 2.43473C6.32166 2.03224 4.97304 2.20474 3.78651 2.47655C6.75554 3.42266 4.25696 7.86576 5.20304 11.0281C5.64738 12.5179 6.9228 13.0249 7.61277 12.7793C8.19681 12.459 8.68421 11.9878 9.02412 11.415C9.37432 10.8923 9.37955 10.6727 9.63045 10.6832C10.08 10.6832 13.4567 10.8348 13.8958 10.8975C14.0526 10.8975 14.1781 11.002 14.199 11.3104C14.2156 12.0054 14.0205 12.689 13.6397 13.2706C13.4628 13.5197 13.2381 13.7312 12.9788 13.8927C12.7195 14.0543 12.4306 14.1626 12.129 14.2115C11.1274 14.3004 10.1198 14.3004 9.11819 14.2115C8.68672 14.1615 8.26011 14.0758 7.84277 13.9554C7.82304 13.9505 7.80447 13.9418 7.7882 13.9296C7.77193 13.9174 7.75822 13.9021 7.74802 13.8845C7.73776 13.867 7.73117 13.8475 7.72856 13.8274C7.72599 13.8072 7.72751 13.7867 7.733 13.7672C7.8062 13.5058 7.99433 13.7672 9.14955 13.8769C10.116 13.9476 11.0869 13.9319 12.0506 13.8299C12.8922 13.6522 13.5194 13.1034 13.7181 11.7756V11.3993C13.347 11.3366 11.8624 11.3104 9.79249 11.2634C9.62976 11.5745 9.43906 11.8702 9.22273 12.1468C8.41252 13.1085 7.68074 13.7463 6.47846 13.2863C4.13673 12.4029 4.2726 9.62727 4.56533 7.15485C4.74305 5.61284 5.08804 4.04469 4.30923 3.31289C3.65582 2.69086 2.65219 2.55496 2.33337 3.55334C2.20665 4.0498 2.16773 4.56458 2.21837 5.07444C2.26017 5.27307 2.31767 5.31489 2.49016 5.35671C3.07372 5.4746 3.66362 5.55837 4.25696 5.60761C4.30405 5.60761 4.3493 5.62634 4.38263 5.65966C4.41596 5.693 4.43469 5.7382 4.43469 5.78533C4.43469 5.83247 4.41596 5.87767 4.38263 5.911C4.3493 5.94433 4.30405 5.96305 4.25696 5.96305C3.74487 5.93366 3.23513 5.87256 2.73062 5.78011C2.01972 5.69124 1.80542 5.54488 1.80019 4.63013C1.79496 3.96106 1.87338 3.10903 2.39086 2.68041Z" fill="#111111"/>
<path fill-rule="evenodd" clip-rule="evenodd" d="M10.085 8.5453C10.1268 8.62373 10.085 8.70733 9.99615 8.80145C9.60934 9.17778 8.85664 9.01575 8.50642 8.95302C8.29735 8.95302 8.30253 8.6028 8.50642 8.6028C9.91252 8.33624 9.97524 8.36234 10.085 8.5453Z" fill="#111111"/>
<path fill-rule="evenodd" clip-rule="evenodd" d="M9.66698 7.13924C9.28016 7.51562 8.52745 7.35354 8.17723 7.28563C7.97339 7.28563 7.97339 6.9354 8.17723 6.9354C9.59379 6.67404 9.65652 6.69494 9.74538 6.87789C9.80288 6.95108 9.76629 7.04518 9.66698 7.13924Z" fill="#111111"/>
<path fill-rule="evenodd" clip-rule="evenodd" d="M8.17722 5.38296C7.97333 5.38296 7.97333 5.03274 8.17722 5.03274C9.59378 4.76615 9.6565 4.79228 9.74536 4.97001C9.7924 5.05364 9.74536 5.13728 9.6565 5.23137C9.28014 5.59727 8.51698 5.43523 8.17722 5.38296Z" fill="#111111"/>
<path fill-rule="evenodd" clip-rule="evenodd" d="M5.9713 5.38296C5.76219 5.38296 5.76219 5.03274 5.9713 5.03274C7.38788 4.76615 7.44538 4.79228 7.53945 4.97001C7.58648 5.05364 7.53945 5.13728 7.45579 5.23137C7.069 5.59727 6.31629 5.43523 5.9713 5.38296Z" fill="#111111"/>
<path fill-rule="evenodd" clip-rule="evenodd" d="M5.79408 9.00017C5.97129 9.09962 6.16696 9.16188 6.36906 9.18312C6.64175 9.22875 6.90606 9.31507 7.15311 9.43928C7.35699 9.57515 7.33607 9.81037 6.90224 9.84176C6.53486 9.86776 6.16874 9.77626 5.85681 9.58038C5.83965 9.56531 5.81967 9.5537 5.79806 9.54632C5.7764 9.53894 5.75354 9.53591 5.73073 9.53737C5.70791 9.53879 5.68557 9.54475 5.66507 9.5548C5.64456 9.56489 5.62625 9.57891 5.61113 9.59607C5.59601 9.61324 5.58444 9.63322 5.57707 9.65483C5.56969 9.67649 5.5666 9.69935 5.56807 9.72216C5.56953 9.74497 5.5755 9.76726 5.58554 9.78777C5.59564 9.80833 5.60966 9.82664 5.62682 9.84176C5.84373 10.026 6.10198 10.1551 6.37953 10.2181C6.17564 10.5422 6.4161 11.0022 6.57813 11.0022C6.74021 11.0022 6.95451 10.5578 6.82905 10.2965C7.08023 10.3111 7.32995 10.2491 7.54518 10.1188C7.62413 10.0646 7.69058 9.99411 7.73997 9.91208C7.78935 9.83004 7.82054 9.73833 7.83142 9.64321C7.84235 9.54805 7.83267 9.45168 7.80317 9.36059C7.77361 9.2695 7.72485 9.18579 7.66018 9.11516C7.33664 8.84101 6.94446 8.66031 6.52586 8.59245C6.40626 8.57864 6.28755 8.55766 6.17041 8.52972C6.08681 8.48792 6.04495 8.29973 6.3168 8.15339C6.83951 7.8659 7.26811 8.0384 7.36223 8.25792C7.37933 8.29491 7.4102 8.32379 7.44824 8.33844C7.48633 8.35309 7.52855 8.35231 7.56606 8.33635C7.83791 8.21612 7.4406 7.64114 6.84998 7.59929C6.88168 7.4619 6.87765 7.31865 6.83831 7.18325C6.79896 7.0478 6.72556 6.92471 6.62516 6.82568C6.47883 6.82568 6.19657 7.2386 6.35337 7.65155C5.40724 7.89201 5.38113 8.68657 5.79408 9.00017Z" fill="#111111"/>
</svg>
