<svg width="16" height="16" viewBox="0 0 16 16" fill="none" xmlns="http://www.w3.org/2000/svg">
<path d="M12.3119 10.4966C13.2666 14.4619 9.39909 13.7342 7.09213 12.8511C4.78517 11.9679 3.27265 10.3177 3.71382 9.16534C4.15499 8.01296 7.72862 2.41714 10.0356 3.30032C12.3425 4.18349 11.3573 6.53131 12.3119 10.4966Z" fill="#FFE253"/>
<path d="M12.0373 10.3728C11.9694 10.219 11.8473 10.0517 11.7795 9.88429C11.7483 9.82613 11.7387 9.75883 11.7523 9.69429C11.8526 9.37915 11.9297 9.05712 11.983 8.73071C12.0648 8.25179 12.1177 7.7684 12.1413 7.2831C12.1642 6.98196 12.1642 6.6795 12.1413 6.37835C12.1299 6.16853 12.095 5.96065 12.0373 5.75859C11.8885 5.23938 11.6378 4.75498 11.2999 4.33359C11.3449 4.27562 11.3843 4.21352 11.4175 4.14812C11.4528 4.05658 11.4756 3.96073 11.4854 3.86312C11.5227 3.60572 11.4784 3.34309 11.3587 3.11217C11.2217 2.8708 10.9988 2.6899 10.7344 2.6055C10.5799 2.56406 10.4178 2.55882 10.2609 2.5902C10.104 2.62159 9.95642 2.68875 9.82969 2.78645C9.73843 2.86063 9.66329 2.95265 9.6088 3.05688C9.55436 3.16112 9.52175 3.27537 9.51301 3.39265C9.40155 3.38589 9.28972 3.38589 9.17826 3.39265C8.93867 3.42517 8.70351 3.48435 8.47705 3.56907C7.88278 3.80272 7.34245 4.15523 6.88922 4.60502C6.44425 5.02893 6.05509 5.50778 5.73112 6.03002C5.52755 6.35121 5.38279 6.74025 5.19279 7.09311C5.11961 7.23015 5.02998 7.35778 4.92588 7.47309C4.81449 7.59488 4.6901 7.70413 4.55493 7.79883C4.21565 8.04309 3.84017 8.21955 3.50089 8.47286C3.37752 8.55724 3.25966 8.64941 3.14803 8.74882C3.06115 8.82691 2.99177 8.92247 2.94446 9.02931C2.93555 9.0482 2.93059 9.06876 2.92989 9.08964C2.92919 9.11057 2.93276 9.1314 2.94038 9.15088C2.948 9.17035 2.95952 9.18806 2.97422 9.20296C2.98892 9.21782 3.0065 9.22955 3.02589 9.23739C3.22493 9.32335 3.26565 8.96142 3.99398 8.71716C4.35909 8.60647 4.73536 8.53668 5.11588 8.50905C5.5916 8.46 6.07147 8.46761 6.5454 8.5317C7.26768 8.6187 7.98075 8.77011 8.67611 8.98407C9.0244 9.07936 9.35888 9.21927 9.67135 9.40025C9.98459 9.58251 10.2683 9.81132 10.5128 10.0788C10.5398 10.11 10.578 10.1292 10.6192 10.1322C10.6603 10.1352 10.701 10.1217 10.7322 10.0947C10.7634 10.0677 10.7826 10.0294 10.7855 9.98823C10.7885 9.94706 10.775 9.90643 10.748 9.87523C10.4979 9.56688 10.2037 9.29708 9.87494 9.07452C9.54675 8.8525 9.19085 8.67455 8.81633 8.54524C8.21948 8.3316 7.60483 8.17113 6.97967 8.06574C6.34134 7.96396 5.6909 7.96396 5.05255 8.06574C4.91684 8.09287 4.76755 8.12452 4.60017 8.16524L4.74041 8.07479C4.9046 7.96845 5.05635 7.84399 5.19279 7.70381C5.31571 7.56594 5.42199 7.41412 5.50945 7.25144C5.70398 6.93025 5.83516 6.55025 6.05231 6.23811C6.37353 5.7476 6.7567 5.30058 7.19231 4.90811C7.60718 4.51426 8.0962 4.20672 8.63087 4.00336C8.82748 3.93644 9.0307 3.89094 9.23705 3.86764C9.43452 3.84335 9.63462 3.85098 9.82969 3.89026C10.2639 4.01755 10.644 4.28472 10.9108 4.65026C11.2061 5.02181 11.4259 5.44749 11.5577 5.90335C11.601 6.07233 11.6283 6.24499 11.6392 6.41907C11.6574 6.69472 11.6574 6.97127 11.6392 7.24691C11.6121 7.63596 11.5804 8.02502 11.5216 8.41407C11.4653 8.79421 11.3791 9.16936 11.2637 9.53595C11.216 9.68297 11.216 9.8413 11.2637 9.98832C11.3535 10.201 11.4562 10.408 11.5713 10.6081C11.737 10.9383 11.8353 11.2981 11.8609 11.6666C11.8697 11.8798 11.8005 12.0889 11.6664 12.2548C11.4798 12.46 11.245 12.6154 10.9833 12.7071C10.5617 12.8692 10.1177 12.9654 9.66682 12.9922C9.21966 12.9956 8.77304 12.9593 8.3323 12.8836C7.88473 12.826 7.44182 12.7368 7.00684 12.6167C6.55445 12.4629 6.06136 12.3045 5.60445 12.1055C5.30474 11.9782 5.01578 11.8269 4.74041 11.6531C4.30807 11.4069 3.92099 11.0887 3.59589 10.7121C3.40371 10.4576 3.27359 10.1617 3.21589 9.8481C3.20428 9.81739 3.18226 9.79171 3.15367 9.77554C3.12507 9.75942 3.09171 9.7538 3.05941 9.75973C3.0271 9.76562 2.9979 9.7827 2.9769 9.80797C2.95589 9.8332 2.94441 9.86504 2.94446 9.89787C3.00614 10.2554 3.14847 10.5942 3.36065 10.8886C3.69546 11.2965 4.09791 11.6439 4.55041 11.9155C4.83865 12.1058 5.14114 12.2737 5.45517 12.4176C5.90755 12.6302 6.40516 12.8067 6.87563 12.974C7.33027 13.1132 7.79442 13.2191 8.26446 13.2907C8.7359 13.3807 9.21409 13.4307 9.69395 13.44C10.1926 13.4155 10.6849 13.318 11.1552 13.1505C11.5003 13.036 11.8113 12.8369 12.0599 12.5714C12.2736 12.319 12.3879 11.9973 12.3811 11.6666C12.3568 11.2163 12.2398 10.7759 12.0373 10.3728ZM9.9066 3.43336H9.81157C9.85596 3.31085 9.94256 3.20819 10.0559 3.14384C10.1352 3.10123 10.223 3.0767 10.313 3.07201C10.4029 3.06732 10.4928 3.08257 10.5761 3.11669C10.7244 3.15764 10.853 3.25082 10.938 3.37907C11.0368 3.52015 11.0933 3.68651 11.1008 3.85859C11.1101 3.92008 11.1101 3.98259 11.1008 4.04407C11.1008 4.04407 11.1008 4.08478 11.0782 4.10288C10.7603 3.77152 10.3535 3.53903 9.9066 3.43336Z" fill="#111111"/>
<path d="M10.2511 2.5407C10.4155 2.50784 10.5853 2.51391 10.7472 2.5573L10.7501 2.55828C10.9918 2.63555 11.2006 2.78946 11.3448 2.99578L11.4025 3.08758L11.4034 3.08953C11.5277 3.32947 11.5739 3.60238 11.5353 3.8698C11.525 3.97119 11.5006 4.0706 11.464 4.1657L11.462 4.17058C11.4333 4.22714 11.3987 4.2804 11.3614 4.33172C11.6918 4.75142 11.9378 5.23112 12.0851 5.7448C12.1437 5.95015 12.1798 6.16145 12.1915 6.37469L12.2042 6.60223C12.2129 6.83041 12.2089 7.05899 12.1915 7.2868C12.1737 7.65187 12.1387 8.01579 12.088 8.37762L12.0323 8.73894C11.9789 9.06614 11.9012 9.3888 11.8009 9.70476L11.7989 9.78484L11.8234 9.86101L11.8263 9.86492L11.8253 9.8659C11.8577 9.94585 11.9037 10.0269 11.9513 10.1091C11.9977 10.1892 12.047 10.271 12.0821 10.3503L12.1554 10.5055C12.3161 10.8714 12.4092 11.2638 12.4308 11.6637V11.6657C12.4378 12.0085 12.3194 12.3425 12.0978 12.6042L12.0968 12.6061L12.0958 12.6052C11.8417 12.8766 11.5239 13.0798 11.171 13.197C10.6963 13.3659 10.1997 13.4652 9.6964 13.4899H9.6925C9.21057 13.4805 8.73044 13.4298 8.25695 13.3395C7.78468 13.2675 7.31825 13.162 6.86144 13.0221L6.85851 13.0212C6.38882 12.8541 5.88943 12.6762 5.43469 12.4626C5.11883 12.3178 4.8145 12.1491 4.52453 11.9577C4.06742 11.6832 3.66068 11.3327 3.32238 10.9206L3.32043 10.9177C3.10381 10.6171 2.95859 10.271 2.89562 9.90594L2.89367 9.89812C2.8936 9.85359 2.91008 9.8103 2.93859 9.77605C2.96697 9.74193 3.00628 9.7187 3.04992 9.71062L3.11633 9.70965C3.13786 9.71327 3.15855 9.72126 3.17785 9.73211C3.19721 9.74306 3.21436 9.75748 3.22863 9.7741L3.26281 9.83074L3.26574 9.83855L3.21589 9.8481L3.26476 9.83953C3.32091 10.1443 3.44757 10.4318 3.6339 10.6794L3.75695 10.8161C4.00927 11.0843 4.29461 11.3196 4.60656 11.5153L4.76476 11.61L4.76672 11.611C4.97166 11.7403 5.18451 11.857 5.40344 11.9606L5.62414 12.0593C6.07749 12.2568 6.56695 12.4142 7.01965 12.568C7.34426 12.6577 7.67386 12.7301 8.00598 12.7848L8.33898 12.8337L8.34094 12.8346C8.77794 12.9097 9.2208 12.9444 9.66418 12.9411C10.1096 12.9146 10.5484 12.8209 10.965 12.6608L10.9669 12.6598C11.22 12.5711 11.4464 12.4205 11.6271 12.2223C11.753 12.0665 11.8185 11.8708 11.8107 11.6706L11.7784 11.4011C11.7331 11.1336 11.6485 10.8739 11.5265 10.6305C11.4111 10.4297 11.308 10.2209 11.2179 10.0075L11.2159 10.0036C11.1651 9.84661 11.165 9.67717 11.2159 9.52019C11.3304 9.15639 11.4159 8.78415 11.4718 8.40691C11.5303 8.0201 11.5619 7.63252 11.589 7.24383C11.607 6.97043 11.607 6.69594 11.589 6.42254C11.5783 6.25159 11.5514 6.08164 11.5089 5.9157C11.3788 5.46715 11.1628 5.04704 10.8722 4.68133L10.8702 4.67937C10.6103 4.32339 10.2403 4.06251 9.8175 3.93816C9.62848 3.90038 9.43458 3.89413 9.24328 3.91766C9.04096 3.94053 8.84038 3.98394 8.64758 4.04949L8.64855 4.05047C8.12021 4.25146 7.63666 4.55485 7.22668 4.94402L7.2257 4.945C6.79328 5.33458 6.41273 5.7784 6.09387 6.26531L6.09289 6.26629C5.98679 6.41881 5.90173 6.58923 5.8175 6.76336C5.73428 6.93539 5.65092 7.11173 5.55285 7.2741L5.55383 7.27508C5.46456 7.4411 5.356 7.59628 5.23058 7.73699L5.22863 7.73894C5.11345 7.85727 4.98662 7.96332 4.85168 8.05828C4.91854 8.04386 4.98216 8.02847 5.04308 8.01629H5.04504C5.68844 7.91375 6.34404 7.91373 6.98742 8.01629C7.61529 8.12216 8.23368 8.28318 8.83312 8.49773L9.1134 8.60516C9.38977 8.72141 9.65468 8.86461 9.90344 9.03289C10.2358 9.25792 10.5333 9.53081 10.7862 9.84246L10.8087 9.87566C10.8286 9.91074 10.838 9.95101 10.8351 9.99187C10.8312 10.0462 10.806 10.0968 10.7648 10.1325C10.7236 10.1681 10.6697 10.1863 10.6154 10.1823C10.5611 10.1783 10.5103 10.1531 10.4747 10.112C10.234 9.84887 9.95486 9.62242 9.6466 9.44305C9.3379 9.26424 9.00728 9.12607 8.6632 9.03191H8.66125C8.14194 8.87213 7.61283 8.74683 7.07726 8.65789L6.53918 8.58172C6.06922 8.51817 5.59295 8.51063 5.12121 8.55926H5.11926C4.74263 8.58662 4.37029 8.65577 4.0089 8.76531L4.00793 8.76434C3.65326 8.88355 3.46733 9.03129 3.34484 9.13836C3.28554 9.19022 3.23293 9.24042 3.18469 9.26922C3.15895 9.28451 3.1307 9.29641 3.09973 9.29949C3.06856 9.30259 3.03809 9.29624 3.00695 9.28289C2.98142 9.2725 2.95793 9.25751 2.93859 9.23797C2.91918 9.21827 2.90376 9.19443 2.89367 9.16863C2.88369 9.14295 2.87907 9.11513 2.88 9.08758C2.88098 9.06005 2.88775 9.03246 2.89953 9.0075C2.94966 8.89489 3.02273 8.79399 3.11437 8.7116L3.28918 8.56609L3.47277 8.43133C3.64416 8.30356 3.82425 8.19532 4.00207 8.08953C4.18118 7.98297 4.35806 7.879 4.52551 7.75848L4.52648 7.7575C4.65852 7.66495 4.77994 7.55814 4.88879 7.43914L5.03039 7.26238C5.07363 7.20079 5.11303 7.13649 5.14855 7.07C5.24267 6.89519 5.32542 6.71046 5.41125 6.52801C5.49661 6.34654 5.58513 6.16689 5.68859 6.00359L5.94543 5.61785C6.21424 5.2404 6.5186 4.88915 6.85461 4.56902C7.31256 4.11471 7.85874 3.75819 8.4591 3.52215C8.68904 3.43612 8.92871 3.37647 9.17199 3.34344L9.17492 3.34246C9.27268 3.33654 9.37103 3.33622 9.46887 3.34051C9.48261 3.23354 9.51454 3.12968 9.56457 3.03387C9.62217 2.92367 9.70149 2.82618 9.79797 2.74773L9.79894 2.74676C9.93176 2.64435 10.0866 2.57359 10.2511 2.5407ZM10.6105 2.63055C10.4979 2.61382 10.3828 2.6169 10.2706 2.63933C10.1214 2.6692 9.98102 2.73297 9.86047 2.82586C9.77493 2.89555 9.70461 2.98198 9.65344 3.07976C9.60217 3.17792 9.57087 3.28575 9.56262 3.39617L9.55969 3.44598L9.50988 3.44207C9.40131 3.4355 9.29228 3.43462 9.18371 3.44109L9.18469 3.44207C8.94889 3.4741 8.71713 3.53154 8.49426 3.61492L8.49523 3.6159C7.90752 3.847 7.3732 4.19553 6.92492 4.64031L6.92394 4.64129C6.5925 4.95704 6.29163 5.30316 6.02648 5.67547L5.77355 6.05633C5.67358 6.21406 5.58739 6.38961 5.50207 6.57098C5.41716 6.75148 5.33228 6.93889 5.23644 7.11687C5.1614 7.25735 5.06973 7.3883 4.96301 7.50652C4.90614 7.56869 4.84555 7.62776 4.78234 7.68328L4.5841 7.83953C4.41244 7.96311 4.2319 8.06952 4.05383 8.17547C3.87498 8.28187 3.69766 8.38847 3.53039 8.51336L3.52941 8.51434C3.40796 8.5974 3.29167 8.68797 3.18176 8.78582C3.10015 8.85916 3.0348 8.94915 2.99035 9.04949L2.98937 9.05047C2.98338 9.06317 2.98008 9.07738 2.97961 9.09148C2.97916 9.10556 2.9823 9.11942 2.98742 9.1325C2.99254 9.14559 2.99996 9.15758 3.00988 9.16766C3.01982 9.1777 3.03198 9.18582 3.04504 9.19109C3.0634 9.199 3.07818 9.20105 3.08996 9.19988C3.10211 9.19865 3.11556 9.1936 3.13293 9.18328C3.17091 9.16071 3.21188 9.12137 3.27844 9.06316C3.40792 8.94994 3.60584 8.79436 3.97765 8.66961H3.97961C4.34767 8.55803 4.72689 8.48763 5.11047 8.45965L5.47082 8.43328C5.83168 8.41758 6.19345 8.43366 6.55187 8.48211C7.27702 8.56946 7.99242 8.72142 8.69055 8.93621C9.04287 9.03264 9.38032 9.17403 9.6964 9.35711C9.93467 9.49574 10.1561 9.6609 10.3566 9.8493L10.5499 10.0446L10.5509 10.0466C10.5692 10.0675 10.5954 10.0807 10.6232 10.0827C10.6508 10.0846 10.6783 10.0754 10.6993 10.0573C10.7204 10.0391 10.7334 10.0128 10.7355 9.98504C10.7375 9.95711 10.7284 9.92907 10.7101 9.90789L10.7091 9.90691C10.4621 9.60238 10.1715 9.33571 9.8468 9.1159C9.6034 8.95124 9.34477 8.81068 9.07433 8.69695L8.79992 8.59246C8.20597 8.37986 7.59391 8.21983 6.9718 8.11492C6.33915 8.01406 5.69432 8.01323 5.06164 8.11394C4.92663 8.14094 4.77853 8.17316 4.61242 8.21355L4.57336 8.12371L4.71301 8.03289C4.87406 7.92858 5.02351 7.80613 5.15734 7.66863C5.27677 7.53437 5.37982 7.38645 5.46496 7.2282L5.46691 7.22527C5.56256 7.06731 5.64289 6.89463 5.72765 6.71941C5.79086 6.58877 5.85605 6.45676 5.93176 6.33172L6.01086 6.20965C6.33431 5.7159 6.72076 5.26588 7.1593 4.87078C7.5787 4.47295 8.07309 4.16223 8.6134 3.95672L8.61437 3.95574C8.81412 3.88776 9.02095 3.84178 9.23058 3.81805L9.3839 3.80535C9.48561 3.8011 9.5875 3.80504 9.68859 3.81707L9.83996 3.84148L9.84387 3.84246C10.2878 3.97262 10.6761 4.24555 10.9493 4.61883C11.2486 4.99544 11.4719 5.42727 11.6056 5.88933L11.6066 5.89129C11.6505 6.0631 11.6785 6.23871 11.6896 6.4157C11.7079 6.69355 11.7069 6.97283 11.6886 7.25066C11.6615 7.63982 11.6305 8.03053 11.5714 8.42156C11.5147 8.80426 11.4278 9.18237 11.3116 9.55144C11.2674 9.68791 11.2667 9.83482 11.3107 9.97137C11.3993 10.1812 11.5008 10.3853 11.6144 10.5827L11.6163 10.5856C11.7427 10.8376 11.83 11.1066 11.8771 11.3835L11.9112 11.6628V11.6647C11.9205 11.8899 11.8468 12.1106 11.7052 12.2858L11.7032 12.2887C11.5111 12.4999 11.2695 12.6601 11.0001 12.7546L10.9991 12.7536C10.5734 12.9171 10.1253 13.0146 9.67004 13.0417L9.66711 13.0427C9.21701 13.0461 8.76698 13.0095 8.32336 12.9333C7.87434 12.8754 7.42968 12.7852 6.99328 12.6647L6.99035 12.6637C6.53932 12.5104 6.04329 12.3511 5.5841 12.1511C5.28301 12.0231 4.99267 11.8705 4.71594 11.696C4.27865 11.447 3.88656 11.1257 3.55773 10.7448L3.55578 10.7419C3.36087 10.4836 3.22896 10.1838 3.16906 9.8659L3.15344 9.83855C3.14667 9.83068 3.1382 9.82421 3.12902 9.81902C3.11061 9.80867 3.0892 9.80545 3.06848 9.80926C3.04791 9.813 3.02923 9.82351 3.01574 9.83953C3.00279 9.85508 2.99481 9.87498 2.99426 9.89519C3.05517 10.2431 3.1949 10.5725 3.40148 10.8591C3.69076 11.211 4.03069 11.5176 4.41027 11.7682L4.57629 11.8727L4.57824 11.8737C4.86417 12.0625 5.16421 12.229 5.4757 12.3718L5.47668 12.3727C5.92635 12.584 6.42185 12.759 6.89269 12.9264C7.34442 13.0647 7.8046 13.1697 8.2716 13.2409L8.27355 13.2419C8.74111 13.3311 9.21563 13.3799 9.69152 13.3893C10.1852 13.3651 10.6732 13.269 11.1388 13.1032C11.4759 12.9913 11.7808 12.7961 12.0236 12.5368C12.2278 12.2945 12.3372 11.9864 12.3312 11.6696L12.3175 11.5036C12.2767 11.1181 12.1667 10.7424 11.9923 10.3952L11.9913 10.3932C11.9588 10.3195 11.9134 10.2418 11.8653 10.1589C11.8189 10.0787 11.7707 9.9936 11.7355 9.90789L11.713 9.85516C11.695 9.8003 11.6913 9.74139 11.7032 9.68426L11.7042 9.67937C11.8038 9.36656 11.8808 9.04636 11.9337 8.72234L11.9894 8.36394C12.0397 8.00474 12.0733 7.64336 12.0909 7.28094L12.0919 7.27898C12.1146 6.98062 12.1146 6.68088 12.0919 6.3825L12.0909 6.38152C12.0797 6.17543 12.046 5.97063 11.9894 5.77215C11.8424 5.25938 11.5945 4.78108 11.2609 4.36492L11.2364 4.33367L11.2609 4.3034C11.3039 4.24793 11.3414 4.1882 11.3732 4.12566C11.4058 4.03972 11.4265 3.94958 11.4357 3.85808V3.85613C11.4715 3.60918 11.4293 3.357 11.3146 3.13543C11.1841 2.90683 10.9723 2.73466 10.7218 2.65398L10.6105 2.63055ZM10.3107 3.02215C10.4078 3.01713 10.5049 3.03322 10.5948 3.07C10.7524 3.11465 10.8878 3.21394 10.9786 3.35027C11.0819 3.49773 11.1407 3.67151 11.1495 3.85125C11.1595 3.91759 11.1605 3.98511 11.1505 4.05144C11.1504 4.05253 11.1506 4.05407 11.1505 4.05535C11.15 4.06109 11.1486 4.06899 11.1466 4.07781C11.143 4.09378 11.1341 4.12253 11.1095 4.14226L11.0734 4.17058L11.0421 4.13738C10.7317 3.81389 10.3347 3.58692 9.89855 3.48308H9.74035L9.76476 3.41668C9.8132 3.28299 9.90769 3.17051 10.0314 3.10027L10.0323 3.0993C10.1181 3.0533 10.2135 3.02722 10.3107 3.02215ZM10.3155 3.12176C10.233 3.12607 10.1521 3.14905 10.0792 3.18816C9.99845 3.23437 9.93361 3.30249 9.88976 3.38348H9.91808C10.3465 3.48478 10.7379 3.7025 11.0528 4.00848C11.0576 3.961 11.059 3.91316 11.0519 3.8659L11.0509 3.86101C11.0438 3.69844 10.99 3.54117 10.8966 3.40789C10.8182 3.28969 10.6993 3.20246 10.5626 3.16473L10.5568 3.16375C10.4804 3.13254 10.398 3.11746 10.3155 3.12176Z" fill="#111111"/>
<path d="M10.2771 11.9263C10.0885 12.0121 9.88494 12.0604 9.67782 12.0683C9.64609 12.0741 9.61742 12.0908 9.59676 12.1156C9.57614 12.1403 9.5648 12.1715 9.5648 12.2037C9.5648 12.236 9.57614 12.2672 9.59676 12.2919C9.61742 12.3166 9.64609 12.3333 9.67782 12.3391C9.97689 12.3445 10.2717 12.2678 10.5301 12.1172C10.5974 12.0667 10.649 11.9982 10.6788 11.9197C10.7087 11.8411 10.7156 11.7556 10.6988 11.6733C10.6702 11.5109 10.6016 11.3584 10.4991 11.2293C10.372 11.0619 10.2226 10.9125 10.0552 10.7854C9.71667 10.529 9.35902 10.2989 8.98529 10.0973C8.61507 9.90246 8.23245 9.73192 7.84 9.58686C7.29458 9.38575 6.73119 9.23712 6.15755 9.1429C5.77192 9.0785 5.37994 9.06059 4.99005 9.08966C4.74895 9.11655 4.51691 9.1969 4.31085 9.32495C4.22765 9.37015 4.15571 9.43357 4.10038 9.51041C4.04505 9.58726 4.00774 9.67561 3.99123 9.76886C3.98559 9.95703 4.04695 10.1411 4.16436 10.2882C4.30687 10.4714 4.4795 10.629 4.67487 10.7543L5.58934 11.3581C5.60624 11.3685 5.62505 11.3756 5.64468 11.3789C5.66432 11.3821 5.68439 11.3814 5.70377 11.3769C5.72315 11.3723 5.74143 11.364 5.7576 11.3524C5.77376 11.3408 5.78748 11.3261 5.79798 11.3093C5.80847 11.2923 5.81553 11.2735 5.81875 11.2539C5.82198 11.2342 5.82131 11.2142 5.81677 11.1948C5.81224 11.1754 5.80393 11.1571 5.79233 11.141C5.78073 11.1248 5.76605 11.1111 5.74915 11.1006L4.86131 10.4613C4.74439 10.3705 4.6386 10.2662 4.54613 10.1506C4.46127 10.0619 4.41225 9.94486 4.40851 9.8221C4.40851 9.72446 4.5195 9.67561 4.61272 9.63566C4.7455 9.5817 4.88676 9.55166 5.03 9.5469C5.38736 9.53561 5.74484 9.56539 6.0954 9.63566C6.26409 9.66232 6.43278 9.70223 6.60147 9.74219C6.44036 9.93081 6.33011 10.1574 6.28116 10.4006C6.23222 10.6438 6.2462 10.8954 6.3218 11.1317C6.41114 11.3664 6.56503 11.5711 6.76572 11.7221C7.05134 11.9387 7.3904 12.0737 7.74676 12.1127C8.18151 12.1414 8.61111 12.0051 8.94978 11.7309C9.20702 11.5093 9.38862 11.2129 9.46916 10.8831C9.58903 10.9541 9.71334 11.0251 9.8332 11.105C9.98511 11.204 10.1238 11.3218 10.246 11.4557C10.3171 11.5328 10.3688 11.6256 10.397 11.7265C10.4103 11.8242 10.3526 11.8819 10.2771 11.9263ZM8.68342 11.4025C8.42427 11.5812 8.10725 11.6557 7.7956 11.6111C7.53089 11.5758 7.27916 11.4751 7.06316 11.3181C6.92498 11.2261 6.81205 11.1009 6.73464 10.9541C6.66245 10.7667 6.63924 10.564 6.66721 10.3652C6.69517 10.1663 6.77339 9.97788 6.89445 9.81766C7.16969 9.89312 7.43605 9.97748 7.67574 10.0663C8.05422 10.192 8.4248 10.3402 8.78556 10.5102C8.91871 10.5723 9.04302 10.6433 9.17174 10.71C9.09245 10.9896 8.92018 11.2338 8.68342 11.4025Z" fill="#111111"/>
<path d="M9.52799 11.0361C9.43011 11.3339 9.25405 11.6009 9.01529 11.8066L9.01236 11.8086C8.65415 12.0985 8.1997 12.2432 7.7399 12.2129L7.73599 12.2119C7.36174 12.171 7.00571 12.0292 6.70572 11.8017C6.48999 11.6394 6.32423 11.4193 6.22818 11.167L6.22623 11.1621C6.14548 10.9097 6.13096 10.6407 6.18326 10.3808C6.22503 10.1733 6.30972 9.97794 6.42935 9.80467C6.31163 9.77761 6.19551 9.75266 6.07974 9.73436L6.07584 9.73338C5.73278 9.66462 5.38258 9.63542 5.03287 9.64647C4.90156 9.65088 4.77178 9.67904 4.65006 9.7285C4.60246 9.74892 4.5636 9.76643 4.5358 9.78709C4.50929 9.80688 4.50846 9.81777 4.50846 9.82225C4.51124 9.89464 4.53375 9.96448 4.57291 10.0244L4.61881 10.082L4.62467 10.0879C4.7114 10.1963 4.81014 10.2945 4.91959 10.3799L5.80728 11.0195C5.83331 11.0365 5.85557 11.0577 5.87369 11.083C5.89284 11.1097 5.90623 11.14 5.91373 11.1719C5.92125 11.204 5.92299 11.2379 5.91763 11.2705C5.91225 11.303 5.90076 11.3344 5.88346 11.3623C5.8661 11.3901 5.84271 11.4144 5.81607 11.4336C5.78926 11.4528 5.75842 11.4671 5.72623 11.4746C5.71017 11.4783 5.69377 11.4799 5.6774 11.4805L5.62857 11.4775C5.59612 11.4722 5.56475 11.4606 5.53678 11.4433L5.53385 11.4414L4.62076 10.8379C4.41602 10.7065 4.23498 10.5416 4.0856 10.3496C3.9542 10.1842 3.88494 9.97683 3.89127 9.76561V9.75877L3.89322 9.75096C3.91238 9.64317 3.95523 9.541 4.0192 9.45213C4.0833 9.36311 4.16691 9.28968 4.26334 9.23729C4.4808 9.10319 4.72523 9.01854 4.97916 8.99022H4.98306C5.38081 8.9606 5.78109 8.97823 6.17447 9.04393C6.75415 9.13918 7.32348 9.28991 7.87467 9.49315L8.17056 9.6074C8.36616 9.68705 8.5587 9.77397 8.74869 9.86619L9.03189 10.0088L9.03287 10.0097C9.41103 10.2138 9.77338 10.4466 10.1159 10.706C10.2898 10.8381 10.4446 10.9932 10.5768 11.167C10.6897 11.309 10.766 11.4775 10.7975 11.6562C10.8174 11.7563 10.8084 11.8597 10.7721 11.9551C10.7356 12.0513 10.6728 12.1355 10.5905 12.1972L10.5807 12.2041L10.5797 12.2031C10.3057 12.3627 9.99351 12.4451 9.67642 12.4394H9.66763L9.65982 12.4375C9.60522 12.4275 9.55578 12.3989 9.52017 12.3564C9.48479 12.3139 9.46459 12.2596 9.46451 12.2041C9.46451 12.1485 9.48458 12.0944 9.52017 12.0517C9.55582 12.009 9.60507 11.9797 9.65982 11.9697L9.66666 11.9687H9.67447C9.86622 11.9614 10.0542 11.9156 10.2292 11.8369C10.2592 11.8189 10.2778 11.8042 10.2878 11.79C10.2953 11.7791 10.2997 11.7659 10.2975 11.7441C10.2794 11.6834 10.2515 11.6263 10.2145 11.5752L10.1725 11.5234C10.056 11.3958 9.92374 11.2828 9.77896 11.1885C9.69758 11.1342 9.6121 11.0858 9.52799 11.0361ZM6.92056 9.72166C7.19711 9.79748 7.46556 9.88207 7.70767 9.97166L7.99283 10.0713C8.27619 10.1749 8.55475 10.2912 8.82779 10.4199C8.96301 10.483 9.09394 10.5571 9.21744 10.6211L9.29068 10.6592L9.26822 10.7373C9.18273 11.0387 8.99709 11.3026 8.74185 11.4844H8.7399C8.46015 11.6773 8.1183 11.758 7.78189 11.7099C7.50107 11.6724 7.23374 11.5659 7.00455 11.3994C6.85414 11.2984 6.73067 11.1612 6.64615 11.001L6.64029 10.9902C6.56234 10.7874 6.53781 10.5668 6.56803 10.3515C6.59835 10.1359 6.68381 9.93157 6.8151 9.75779L6.85513 9.70311L6.92056 9.72166ZM6.93619 9.93358C6.84751 10.0675 6.78875 10.2193 6.76627 10.3789C6.74097 10.5588 6.76156 10.7423 6.82584 10.9121C6.87776 11.0092 6.94707 11.0954 7.02994 11.167L7.11881 11.2353L7.12174 11.2373C7.32429 11.3845 7.56101 11.4787 7.80924 11.5117C8.09582 11.5526 8.3883 11.4846 8.62662 11.3203C8.82213 11.1807 8.96857 10.9846 9.04947 10.7597C8.9456 10.7045 8.84854 10.6499 8.74283 10.6006C8.38572 10.4323 8.01886 10.2855 7.6442 10.1611L7.64127 10.1601C7.42452 10.0798 7.1847 10.0034 6.93619 9.93358ZM9.67349 12.2275L9.69107 12.2383C9.9652 12.2412 10.2347 12.171 10.4723 12.0342C10.5231 11.9953 10.5629 11.9435 10.5856 11.8838C10.6086 11.8231 10.6142 11.757 10.6012 11.6933L10.6003 11.6904C10.5745 11.5446 10.5126 11.4079 10.4206 11.292L10.4196 11.29C10.298 11.1298 10.155 10.9868 9.99478 10.8652C9.66047 10.6119 9.30724 10.3847 8.93814 10.1855C8.57208 9.99288 8.19335 9.82408 7.80533 9.68065C7.40082 9.5315 6.98638 9.41124 6.5651 9.32127L6.14127 9.24119C5.76458 9.17829 5.38149 9.16033 5.00064 9.18846C4.77453 9.21374 4.55718 9.29007 4.36392 9.41014L4.35904 9.41307C4.28907 9.45108 4.22787 9.50465 4.18131 9.56932C4.13651 9.63165 4.106 9.70298 4.09146 9.7783C4.08896 9.89945 4.11733 10.0186 4.17447 10.124L4.24283 10.2256C4.34446 10.3562 4.46253 10.4746 4.59342 10.5752L4.72916 10.6699L4.73013 10.6709L5.64224 11.2734L5.6608 11.2803L5.68131 11.2793C5.68758 11.2778 5.69357 11.2752 5.69888 11.2715C5.70424 11.2676 5.70903 11.2624 5.71256 11.2568C5.71617 11.251 5.71928 11.2439 5.72037 11.2373C5.72138 11.2308 5.72087 11.2242 5.71939 11.2178C5.71785 11.2112 5.71543 11.2046 5.71158 11.1992C5.70767 11.1938 5.70157 11.189 5.69596 11.1855L5.6901 11.1816L4.8024 10.543L4.79947 10.54C4.67672 10.4446 4.56555 10.3343 4.46842 10.2129C4.37048 10.1071 4.31265 9.96945 4.30826 9.82518V9.82225C4.30826 9.72909 4.36339 9.66597 4.41568 9.62694C4.46609 9.5893 4.52845 9.56298 4.57291 9.54393L4.57486 9.54295C4.71856 9.48456 4.87199 9.45239 5.02701 9.44725C5.39029 9.43578 5.75358 9.46604 6.11002 9.53709C6.28308 9.56445 6.45661 9.60471 6.62467 9.64451L6.78385 9.6826L6.6774 9.8076C6.52761 9.98308 6.42515 10.1937 6.37955 10.4199C6.33436 10.6444 6.34588 10.8773 6.41471 11.0957C6.49734 11.3128 6.64022 11.5029 6.82584 11.6426C7.09568 11.8472 7.41609 11.975 7.7526 12.0127C8.1621 12.0397 8.56734 11.9114 8.88638 11.6533C9.12677 11.4455 9.29635 11.168 9.37174 10.8594L9.40396 10.7285L9.52017 10.7969C9.63806 10.8667 9.76571 10.9397 9.88834 11.0215C10.0471 11.1248 10.1913 11.2479 10.319 11.3877C10.4006 11.4762 10.4604 11.5832 10.4928 11.6992L10.4967 11.7129C10.5067 11.7863 10.4892 11.8505 10.4528 11.9033C10.4186 11.9528 10.3708 11.9873 10.3278 12.0127L10.319 12.0176C10.1226 12.107 9.91047 12.1561 9.69498 12.166C9.68652 12.1677 9.67904 12.173 9.67349 12.1797C9.66789 12.1864 9.66471 12.1953 9.66471 12.2041C9.66478 12.2126 9.66801 12.2208 9.67349 12.2275Z" fill="#111111"/>
</svg>
