<svg width="17" height="16" viewBox="0 0 17 16" fill="none" xmlns="http://www.w3.org/2000/svg">
<path d="M1.09961 12.9321V2.43213L13.5996 1.93213L15.0996 7.93213L13.0996 12.9321H1.09961Z" fill="#A9E8C8"/>
<path d="M6.09961 9.93213V4.93213L10.5996 7.43213L6.09961 9.93213Z" fill="#FEFEFC"/>
<path d="M15.3536 11.5066C14.8267 11.452 14.3173 11.3521 13.7904 11.2976H13.6148C13.5708 10.7707 13.483 10.2528 13.4742 9.70769C13.4749 9.64119 13.4521 9.57677 13.4101 9.52653C13.3682 9.4762 13.3098 9.44358 13.2462 9.43459C13.1825 9.42569 13.1179 9.44113 13.0645 9.47802C13.0111 9.5149 12.9725 9.57078 12.9561 9.63501C12.8073 10.1547 12.7014 10.6866 12.64 11.2249C12.0481 11.2653 11.4607 11.3564 10.8836 11.4975C10.8454 11.4944 10.8072 11.4999 10.7713 11.5136C10.7356 11.5275 10.7031 11.5491 10.6761 11.5772C10.6493 11.6051 10.6285 11.6389 10.6154 11.6761C10.6025 11.7132 10.5974 11.7529 10.6005 11.7922C10.6038 11.8315 10.6153 11.8698 10.6342 11.9041C10.653 11.9385 10.6789 11.9681 10.71 11.9911C10.7411 12.014 10.7767 12.0297 10.8143 12.037C10.8518 12.0443 10.8904 12.0431 10.9275 12.0335C11.4456 12.0335 11.9374 12.1607 12.438 12.2152H12.64V12.515C12.7014 13.0601 12.8156 13.5871 12.8771 14.1322C12.877 14.1723 12.8848 14.212 12.8999 14.249C12.915 14.286 12.9371 14.3194 12.965 14.3474C12.9928 14.3754 13.0258 14.3973 13.062 14.4118C13.0982 14.4264 13.1368 14.4332 13.1757 14.432C13.2548 14.432 13.3307 14.3995 13.3868 14.3415C13.4427 14.2835 13.4742 14.205 13.4742 14.1231C13.5269 13.5053 13.5884 12.9057 13.5972 12.3061V12.2515H13.7553C14.2755 12.2271 14.7944 12.1755 15.3097 12.0971C15.3485 12.0971 15.3869 12.089 15.4226 12.0734C15.4584 12.0578 15.4907 12.0349 15.5177 12.0061C15.5448 11.9773 15.5659 11.9431 15.58 11.9057C15.594 11.8682 15.6006 11.8283 15.5995 11.7882C15.5979 11.7185 15.5722 11.6518 15.527 11.6001C15.4819 11.5484 15.4203 11.5152 15.3536 11.5066Z" fill="#111111"/>
<path d="M7.63126 13.0966C7.39059 13.0587 7.14799 13.0342 6.90459 13.0233H5.85117C5.49782 13.0233 5.18447 13.0233 4.87112 12.99C4.38442 12.99 3.89106 12.9233 3.3977 12.8833C2.95788 12.8597 2.52079 12.7995 2.09096 12.7033C1.85267 12.6437 1.6269 12.5421 1.42426 12.4033C1.23045 12.258 1.10122 12.0426 1.06424 11.8032C0.993144 11.3626 0.970784 10.9154 0.997571 10.4698L0.877564 6.09625C0.827537 5.45719 0.827537 4.8152 0.877564 4.17614C0.915204 3.80602 1.0666 3.45665 1.31092 3.17609C1.46602 3.01267 1.6615 2.89308 1.87762 2.8294C2.27947 2.73054 2.69069 2.67466 3.10436 2.66273L6.34454 2.39604L9.35139 2.25604C10.0181 2.25604 10.7248 2.20937 11.4115 2.2227C11.8577 2.23198 12.3029 2.2676 12.7449 2.32938C12.9689 2.35608 13.1914 2.39391 13.4116 2.44272C13.5357 2.46808 13.6536 2.51794 13.7583 2.58939C13.9301 2.72237 14.0654 2.89669 14.1517 3.09608C14.2527 3.3076 14.3245 3.5319 14.365 3.76279C14.405 3.98947 14.425 4.22281 14.445 4.42949C14.445 4.78951 14.445 5.14953 14.4783 5.50955V7.98969C14.4818 8.04864 14.5081 8.10388 14.5517 8.14375C14.5953 8.18362 14.6527 8.20488 14.7117 8.20302C14.7411 8.20222 14.7702 8.19542 14.797 8.18315C14.8238 8.17089 14.8479 8.15335 14.8678 8.13155C14.8877 8.10982 14.903 8.08425 14.9129 8.05645C14.9227 8.02863 14.9268 7.99913 14.925 7.96969L14.9917 5.49622V4.40282C14.9808 4.15056 14.9563 3.89907 14.9183 3.64945C14.8687 3.30894 14.7604 2.97962 14.5983 2.67606C14.4862 2.4552 14.3322 2.2582 14.145 2.09603C13.9807 1.9773 13.7951 1.89128 13.5983 1.84268C13.3495 1.79069 13.098 1.75285 12.8449 1.72934C12.3751 1.6502 11.9008 1.6012 11.4248 1.58267C10.7248 1.54933 10.0247 1.58267 9.33139 1.58267L6.3112 1.64934L3.03768 1.89602C2.56934 1.90974 2.10408 1.97684 1.65094 2.09603C1.30768 2.20132 0.999091 2.39706 0.757558 2.66273C0.414868 3.05462 0.19669 3.53972 0.130857 4.05614C0.0854685 4.73559 0.0899251 5.41745 0.144191 6.09625L0.337535 10.4898C0.323507 10.9772 0.363757 11.4648 0.457541 11.9432C0.537473 12.3204 0.759505 12.6522 1.07758 12.87C1.3582 13.0481 1.67062 13.1704 1.99762 13.23C2.44848 13.3148 2.90567 13.3617 3.36437 13.37C3.85773 13.37 4.35776 13.4234 4.85778 13.4367H6.89792C7.12099 13.4412 7.34366 13.459 7.56459 13.49C7.59006 13.4948 7.61619 13.4944 7.64146 13.4889C7.66672 13.4834 7.69066 13.4728 7.71179 13.458C7.73292 13.443 7.75086 13.424 7.76452 13.402C7.77819 13.38 7.78726 13.3556 7.79126 13.33C7.79613 13.3042 7.79579 13.2776 7.79039 13.252C7.78492 13.2262 7.77446 13.2018 7.75959 13.1802C7.74479 13.1585 7.72579 13.14 7.70379 13.1256C7.68172 13.1113 7.65713 13.1014 7.63126 13.0966Z" fill="#111111"/>
<path d="M11.4299 1.48289L11.429 1.48387C11.9087 1.50256 12.3871 1.54965 12.8606 1.62938C13.1152 1.65326 13.3681 1.69231 13.6184 1.74461L13.6223 1.74559L13.7766 1.79149C13.8781 1.82716 13.9758 1.87285 14.0686 1.92723L14.2034 2.01512L14.2112 2.02C14.4081 2.19058 14.5698 2.39803 14.6877 2.63035C14.8548 2.94353 14.9655 3.28305 15.0168 3.63426C15.0554 3.88745 15.081 4.14305 15.092 4.39891V5.49852L15.0247 7.97215C15.026 8.01201 15.0203 8.0517 15.0071 8.08934C14.9928 8.12946 14.9704 8.16722 14.9417 8.19871C14.9127 8.2304 14.8771 8.25606 14.8381 8.27391C14.7993 8.29163 14.757 8.30106 14.7141 8.30223C14.6293 8.30473 14.5473 8.27449 14.4846 8.21727C14.4218 8.15981 14.3832 8.08048 14.3782 7.99559V5.50926C14.3455 5.15026 14.345 4.79204 14.345 4.43895C14.3248 4.23056 14.306 4.00157 14.2668 3.77977C14.2279 3.55792 14.1589 3.34235 14.0618 3.13914L14.0598 3.13621C13.9809 2.95391 13.8579 2.7936 13.7014 2.67137C13.6079 2.60768 13.5026 2.56317 13.3918 2.54051H13.3899C13.1729 2.49242 12.9534 2.45452 12.7327 2.4282H12.7307C12.4022 2.38229 12.0717 2.35112 11.7405 2.33445L11.4094 2.32274C11.0689 2.31613 10.7228 2.32446 10.3772 2.33445C10.0333 2.3444 9.68886 2.35488 9.35474 2.35496L9.35571 2.35594L6.35181 2.49461L6.35279 2.49559L3.11255 2.76219L3.10767 2.76317C2.70217 2.77486 2.29851 2.82858 1.90454 2.92527C1.70711 2.98368 1.52822 3.09285 1.38599 3.24168C1.15535 3.50658 1.01239 3.83659 0.976809 4.18602C0.927356 4.81915 0.927253 5.45523 0.976809 6.08836L0.977785 6.09324L1.0979 10.4673V10.4761C1.07158 10.9142 1.09342 11.3542 1.16333 11.7876L1.17896 11.8667C1.22509 12.0471 1.33116 12.2075 1.48072 12.3208C1.67356 12.4529 1.88872 12.5492 2.11548 12.6059C2.5392 12.7007 2.96903 12.7604 3.40259 12.7837H3.40552C3.9062 12.8243 4.38996 12.8901 4.87134 12.8901H4.88208L5.11255 12.9096C5.34536 12.9235 5.58505 12.9233 5.85083 12.9233H6.90943L7.27857 12.9507C7.40165 12.9631 7.52448 12.9783 7.64673 12.9975L7.64966 12.9985C7.68837 13.0057 7.7252 13.0202 7.75806 13.0415C7.79094 13.0629 7.81977 13.091 7.84204 13.1235C7.86428 13.1559 7.87974 13.1925 7.88794 13.2309C7.896 13.2692 7.89713 13.3094 7.88989 13.3481L7.88892 13.3471C7.88273 13.3851 7.87018 13.4218 7.84986 13.4546C7.82916 13.4879 7.80169 13.5169 7.76978 13.5395C7.73792 13.5619 7.70141 13.578 7.66333 13.5864C7.62633 13.5945 7.58797 13.5946 7.55103 13.5884C7.33405 13.5579 7.11484 13.541 6.89575 13.5366H4.85474C4.60281 13.5299 4.3508 13.5134 4.10279 13.4985C3.85376 13.4835 3.60786 13.4702 3.3645 13.4702H3.36255C2.89825 13.4618 2.43512 13.4145 1.97876 13.3286C1.63938 13.2666 1.31494 13.1395 1.02368 12.9546L1.02075 12.9526C0.681654 12.7204 0.444931 12.3664 0.359621 11.9643V11.9624C0.264905 11.4792 0.22395 10.9869 0.237551 10.4946L0.0441917 6.10399L0.0129417 5.59129C-0.00925137 5.07754 -0.00279577 4.56265 0.0314964 4.0493V4.04344L0.0646995 3.84422C0.158664 3.38321 0.370723 2.95311 0.681887 2.59715L0.68384 2.5952C0.937348 2.31646 1.26114 2.111 1.62134 2.00047L1.62525 1.99949C2.08437 1.87873 2.556 1.81059 3.03052 1.79637L6.30396 1.5493H6.30884L9.32935 1.48289H9.3313C10.0179 1.48289 10.7272 1.44942 11.4299 1.48289ZM11.4202 1.68211C10.7232 1.64892 10.0321 1.68208 9.33228 1.68211L9.33325 1.68309L6.31763 1.74852L6.31861 1.74949L3.04517 1.99559L3.04029 1.99656C2.58086 2.01004 2.12449 2.07523 1.67993 2.19188L1.55982 2.23289C1.2826 2.3387 1.03289 2.5078 0.832278 2.72801C0.503951 3.10348 0.294926 3.56844 0.230715 4.06297L0.206301 4.56883C0.196129 4.9067 0.198552 5.2448 0.213137 5.5825L0.24341 6.08836L0.244387 6.09227L0.437746 10.4858V10.4927C0.423932 10.9726 0.463554 11.4531 0.55591 11.9243C0.630606 12.2744 0.836289 12.5827 1.13111 12.7856L1.33911 12.9038C1.48102 12.9757 1.62943 13.0341 1.78247 13.0776L2.01587 13.1313C2.46123 13.2152 2.91336 13.2618 3.36646 13.27C3.61602 13.27 3.86562 13.2833 4.1145 13.2983C4.36465 13.3134 4.61271 13.3298 4.8606 13.3364H6.89966C7.01334 13.3387 7.12717 13.3449 7.24048 13.354L7.57837 13.3911L7.58325 13.3921C7.59567 13.3943 7.60851 13.3937 7.62036 13.3911C7.63252 13.3884 7.64436 13.3836 7.65454 13.3764C7.6647 13.3692 7.6734 13.3596 7.67993 13.3491C7.68636 13.3387 7.69069 13.327 7.69263 13.3149V13.2729C7.68988 13.26 7.68444 13.2476 7.677 13.2368L7.64966 13.2095C7.63924 13.2027 7.62741 13.1983 7.61548 13.1958L7.25904 13.1489L6.89966 13.1235H5.85083C5.50258 13.1235 5.18722 13.1222 4.87134 13.0893C4.37942 13.0893 3.87585 13.0223 3.38989 12.9829C2.94555 12.9589 2.50385 12.8984 2.06958 12.8013L2.06665 12.8003C1.81685 12.7378 1.57986 12.6313 1.36743 12.4858L1.3645 12.4829C1.17662 12.342 1.04337 12.1421 0.985598 11.9165L0.96509 11.8188C0.89331 11.3738 0.871261 10.9222 0.897707 10.4721L0.77759 6.10399C0.727167 5.4598 0.727169 4.81262 0.77759 4.16844V4.16649C0.817313 3.77588 0.977794 3.40694 1.2356 3.11082L1.23853 3.10692C1.40557 2.93099 1.61621 2.80252 1.84888 2.73387L1.85376 2.73192C2.26067 2.63181 2.6771 2.57544 3.09595 2.56297L6.33618 2.29637H6.34009L9.34693 2.15574H9.35181C9.68318 2.15573 10.0248 2.14428 10.3713 2.13426C10.7171 2.12426 11.0675 2.11583 11.4133 2.12254C11.8635 2.1319 12.3132 2.16764 12.759 2.22996C12.9858 2.25704 13.21 2.2958 13.4329 2.3452C13.5354 2.36618 13.6333 2.40174 13.7249 2.45164L13.8147 2.50633L13.8196 2.51024L13.9504 2.62547C14.074 2.74886 14.1736 2.8949 14.2434 3.05613C14.3477 3.27504 14.4212 3.50678 14.4631 3.74559C14.5039 3.97685 14.5244 4.21464 14.5442 4.41942L14.5452 4.42918L14.5491 4.96727C14.5532 5.14553 14.562 5.32316 14.5784 5.50047V7.98387L14.5901 8.03074C14.5971 8.04544 14.6072 8.05862 14.6194 8.06981C14.6437 8.09201 14.6755 8.10399 14.7083 8.10301C14.724 8.10254 14.7406 8.09888 14.7551 8.09227C14.7697 8.08558 14.7833 8.07586 14.7942 8.06395C14.8049 8.05215 14.8132 8.03811 14.8186 8.02293L14.8254 7.97606L14.8245 7.96727L14.8918 5.49656V4.40672L14.8655 4.03465C14.8534 3.91092 14.8383 3.78748 14.8196 3.66453C14.7716 3.33556 14.6666 3.01641 14.51 2.72313L14.509 2.72117C14.4036 2.51348 14.2588 2.32828 14.0833 2.17527C13.9309 2.06579 13.7594 1.98627 13.5774 1.9409L13.2083 1.87449C13.0845 1.85588 12.9599 1.84017 12.8352 1.8286H12.8284C12.3629 1.75017 11.8918 1.70049 11.4202 1.68211Z" fill="#111111"/>
<path d="M10.5052 7.736C10.5874 7.67031 10.6554 7.58867 10.7052 7.496C10.7462 7.39743 10.7567 7.28883 10.7353 7.18424C10.7139 7.07965 10.6616 6.98388 10.5852 6.90933C10.3225 6.66779 10.026 6.46569 9.70525 6.30933C9.03858 5.956 8.37191 5.60267 7.70525 5.22267C7.26078 4.96933 6.81631 4.70933 6.3719 4.44267C5.8319 4.06933 5.93857 5.496 5.9119 8.44267V9.83601C5.88443 9.94287 5.86878 10.0524 5.86523 10.1627C5.86847 10.2128 5.88278 10.2616 5.90714 10.3055C5.93149 10.3495 5.96529 10.3875 6.00609 10.4168C6.04689 10.4461 6.09368 10.4661 6.1431 10.4751C6.19252 10.4842 6.24334 10.4823 6.2919 10.4693C6.39285 10.46 6.49177 10.4353 6.58523 10.396C6.74132 10.3258 6.89271 10.2456 7.03858 10.156L8.25858 9.35601L9.92525 8.096C10.0519 8.02933 10.3386 7.876 10.5052 7.736ZM7.78525 8.69601L6.62523 9.47601H6.5719V9.42934L6.53857 8.40934L6.35857 4.976C6.70523 5.216 7.02525 5.44933 7.42525 5.676C8.06385 6.121 8.73205 6.52193 9.42525 6.876C10.3919 7.32267 10.0319 7.196 9.53858 7.54267L7.78525 8.69601Z" fill="#111111"/>
</svg>
