<svg width="16" height="16" viewBox="0 0 16 16" fill="none" xmlns="http://www.w3.org/2000/svg">
<path d="M1.66626 13.3389V4.6856L14.4729 4.54565L14.0413 12.7477L1.66626 13.3389Z" fill="#CFFF29"/>
<path d="M2.90635 4.96388L5.05931 5.03315H8.01457C9.00157 5.03315 9.98281 4.99275 10.9698 4.97543L12.8746 4.93502H13.8558C13.9084 4.93661 13.9596 4.91759 13.9984 4.88202C14.0373 4.84644 14.0606 4.79712 14.0636 4.74455C14.0644 4.71877 14.0601 4.6931 14.0509 4.669C14.0418 4.64489 14.0279 4.62283 14.0103 4.60407C13.9926 4.5853 13.9713 4.57021 13.9478 4.55965C13.9243 4.54909 13.8989 4.54328 13.8731 4.54253L12.8746 4.47326L10.9698 4.40977C9.98281 4.40977 8.9958 4.35205 8.01457 4.35205C7.03333 4.35205 6.04055 4.38669 5.05354 4.41554L2.91212 4.50212C2.68261 4.49508 2.4529 4.50667 2.22526 4.53676C2.04633 4.53676 1.95397 4.92925 2.22526 4.93502L2.90635 4.96388Z" fill="#111111"/>
<path d="M14.8371 4.30583C14.8628 3.85144 14.8493 3.3957 14.7967 2.94363C14.7601 2.709 14.6626 2.48807 14.5139 2.30294C14.3959 2.17045 14.2412 2.07603 14.0694 2.03166C13.8801 1.98396 13.687 1.95306 13.4922 1.93931C13.1863 1.91045 12.8804 1.89313 12.5745 1.87581H11.2123C9.86739 1.87581 8.52832 1.81233 7.17189 1.80078C6.27146 1.80078 5.37103 1.80078 4.47637 1.84119L2.74476 1.96817C2.55429 1.96817 2.33496 1.96817 2.12716 2.00857C1.97465 2.03679 1.82423 2.07536 1.67695 2.12401C1.60327 2.14408 1.53762 2.1865 1.48904 2.24542C1.44046 2.30433 1.41133 2.37686 1.40566 2.45302C1.38258 2.81665 1.35372 3.18606 1.33063 3.60164C1.27868 4.51362 1.24982 5.4256 1.19787 6.34334C1.16324 6.89169 1.09975 7.43426 1.07666 7.98261V8.70409C1.07666 9.03885 1.15747 11.5901 1.23828 12.479C1.25135 12.7081 1.29205 12.9349 1.35949 13.1543C1.38154 13.2229 1.42378 13.2832 1.4807 13.3274C1.57466 13.3982 1.68304 13.4475 1.79816 13.4717C1.9894 13.5024 2.18204 13.5236 2.37536 13.5353L3.10263 13.5757L4.18777 13.6507L5.89051 13.6911C6.58315 13.6911 7.29311 13.7719 7.99729 13.8008H8.93236C9.85008 13.8008 11.928 13.7315 13.1979 13.6276C13.5418 13.6078 13.8835 13.5595 14.2195 13.4833C14.322 13.4539 14.4127 13.3934 14.4793 13.3101C14.5801 13.1646 14.6489 12.9994 14.6812 12.8253C14.7207 12.5113 14.738 12.195 14.7332 11.8787L14.9237 8.25966L14.8371 4.30583ZM14.0694 11.8729V12.6233C14.0593 12.7147 14.036 12.8041 14.0001 12.8888C13.9309 12.8888 13.8039 12.9292 13.6769 12.9408C13.1863 13.0042 12.4013 13.0504 11.5875 13.0908C10.5716 13.137 9.51532 13.1658 8.93236 13.1889H8.35518C7.54709 13.1889 6.72168 13.0966 5.92514 13.1024H4.23971L3.17767 13.0504L2.45617 12.9985H1.98864L1.85588 12.9696C1.85588 12.9349 1.82125 12.8946 1.8097 12.8484C1.75516 12.4984 1.71856 12.1458 1.70004 11.7921C1.64809 10.9321 1.55574 8.95807 1.53842 8.67525C1.5211 8.39242 1.53842 8.06338 1.53842 7.76325C1.53842 7.29574 1.60191 6.83394 1.61923 6.36066C1.63654 5.88736 1.68849 3.95951 1.70581 3.61896C1.72313 3.27841 1.74044 2.85129 1.7693 2.46456C1.79816 2.46456 2.06945 2.37798 2.19065 2.36644C2.31187 2.35489 2.60624 2.36644 2.76785 2.36644L4.47059 2.26254H7.14304C8.48211 2.26254 9.827 2.36066 11.1834 2.3953C11.6279 2.3953 12.0781 2.3953 12.5283 2.44147C12.8227 2.44147 13.1055 2.48188 13.4114 2.51651C13.5512 2.52596 13.69 2.54524 13.827 2.57423C13.9159 2.58757 13.9985 2.62786 14.0637 2.68967C14.1723 2.85017 14.2323 3.03851 14.2368 3.23223C14.2714 3.61319 14.2368 4.03454 14.2368 4.32891L14.2772 7.99992V8.48473L14.0694 11.8729Z" fill="#111111"/>
<path d="M3.11348 3.01287C2.99603 2.97101 2.86728 2.97383 2.75177 3.0208C2.63626 3.06777 2.54208 3.1556 2.48718 3.26756C2.43227 3.3795 2.42048 3.50775 2.45405 3.62783C2.48763 3.74792 2.56422 3.85145 2.66923 3.9187C3.10771 4.16102 3.95585 3.49175 3.11348 3.01287Z" fill="#111111"/>
<path d="M4.93779 3.05337C4.41276 2.80528 3.95696 3.53225 4.45891 3.84381C4.58585 3.88333 4.72097 3.88868 4.85063 3.8593C4.98029 3.82992 5.09991 3.76686 5.19742 3.67649C5.31858 3.53802 5.30704 3.24377 4.93779 3.05337Z" fill="#111111"/>
<path d="M5.99985 3.76295C6.06988 3.82016 6.15237 3.86012 6.24067 3.87959C6.32898 3.89906 6.42062 3.8975 6.50821 3.87504C6.59581 3.85258 6.67689 3.80985 6.74493 3.75029C6.81297 3.69073 6.86608 3.61601 6.89989 3.53217C6.91033 3.45393 6.90266 3.37435 6.87733 3.29958C6.85206 3.22481 6.80984 3.15689 6.75403 3.10109C6.69822 3.04527 6.6303 3.00308 6.55553 2.97778C6.48077 2.95248 6.40119 2.94475 6.32295 2.95521C6.22615 2.94772 6.12948 2.97135 6.04704 3.02264C5.9646 3.07394 5.9007 3.15022 5.86463 3.24037C5.82857 3.33052 5.82224 3.42983 5.84657 3.52383C5.87089 3.61783 5.92459 3.7016 5.99985 3.76295Z" fill="#111111"/>
<path d="M13.7346 9.11381C13.9712 8.67515 13.3305 8.83676 11.5123 8.99259C11.5123 8.94067 11.4373 8.84829 11.42 8.80214C11.3392 8.55393 11.1545 7.94789 10.9005 7.80359C10.254 7.44571 9.79231 8.95797 9.51525 9.39664C9.39403 8.85989 9.3998 8.66361 9.33057 8.39232C9.24547 7.99399 9.0227 7.63835 8.70139 7.38801C8.62899 7.34785 8.54879 7.32374 8.46623 7.31733C8.38372 7.31093 8.30075 7.32229 8.22298 7.3508C8.14526 7.37924 8.07453 7.42413 8.01568 7.48234C7.95677 7.54056 7.91113 7.61072 7.88177 7.68815C7.81253 7.8209 7.88177 7.54962 7.09099 10.5222C7.09099 10.5972 6.96405 10.7588 6.90053 10.9089C6.45032 9.62177 6.8255 6.86852 5.97124 6.59724C5.6711 6.50489 5.44022 6.7473 5.24397 6.98974C4.79375 7.56693 4.81107 8.19033 4.40703 8.65207C4.17615 8.91182 3.63359 8.86566 2.37529 8.7906C2.33344 8.79354 2.29438 8.8127 2.26638 8.84391C2.23837 8.87518 2.22361 8.91609 2.22522 8.95797C2.22522 9.14849 2.38683 9.12535 2.96981 9.17733C3.91064 9.17733 4.48207 9.44285 4.97268 8.60014C4.97268 8.60014 4.87456 8.60014 5.8558 7.15134C6.23676 7.89597 5.68841 11.9652 7.07945 11.769C7.56432 11.7112 7.62779 11.0879 7.73747 10.6723L8.31466 8.43848C8.31466 8.33463 8.48786 8.13835 8.4994 7.99982C8.93806 8.73867 8.75909 9.47747 9.17467 9.94498C9.21616 10.0045 9.27143 10.0532 9.33576 10.0867C9.40009 10.1203 9.47158 10.1379 9.5441 10.1379C9.61668 10.1379 9.68817 10.1203 9.7525 10.0867C9.81677 10.0532 9.87204 10.0045 9.91353 9.94498C10.1019 9.40298 10.3396 8.87939 10.6235 8.38078C10.6523 8.29418 10.6235 8.1961 10.7389 8.38078C11.0737 9.17733 11.0679 9.49478 11.5816 9.45439C11.7836 9.45439 12.1127 9.39087 12.1934 9.37933C13.7692 9.19464 13.6826 9.21195 13.7346 9.11381Z" fill="#111111"/>
</svg>
