<svg width="16" height="16" viewBox="0 0 16 16" fill="none" xmlns="http://www.w3.org/2000/svg">
<path d="M2.5 12.5L3 4H13L13.5 12.5H2.5Z" fill="#E3FF80"/>
<g clip-path="url(#clip0_8524_189975)">
<path fill-rule="evenodd" clip-rule="evenodd" d="M8.64946 6.39274C8.74046 6.28098 8.80613 6.15081 8.84186 6.01119C8.87766 5.87159 8.88266 5.72588 8.85666 5.58414C8.85193 5.39239 8.80446 5.20411 8.71773 5.03301C8.63106 4.86192 8.50726 4.71231 8.35546 4.5951C8.03619 4.42338 7.66406 4.37805 7.31293 4.46813C7.15653 4.49266 7.00719 4.5506 6.87513 4.638C6.74306 4.72541 6.63141 4.84023 6.54771 4.97465C6.46401 5.10908 6.41025 5.25995 6.39009 5.41702C6.36991 5.57408 6.38381 5.73365 6.43083 5.88486C6.82513 7.22809 8.30866 6.79369 8.64946 6.39274ZM7.11913 5.72447C7.11159 5.67621 7.11426 5.6269 7.12706 5.57975C7.13986 5.53261 7.16239 5.48868 7.19333 5.45085C7.22419 5.41301 7.26273 5.38211 7.30639 5.36017C7.34999 5.33823 7.39779 5.32574 7.44659 5.32351C7.59339 5.27043 7.75419 5.27043 7.90099 5.32351C8.05473 5.40371 8.07479 5.59082 8.10153 5.69106C8.12826 5.7913 8.16166 5.945 8.10153 6.01851C8.04133 6.09202 7.23273 6.62663 7.13253 5.74452L7.11913 5.72447Z" fill="#111111"/>
<path fill-rule="evenodd" clip-rule="evenodd" d="M11.6765 7.10124C11.4546 6.91397 11.1947 6.77717 10.9147 6.7003C10.4579 6.5771 9.97514 6.58871 9.52474 6.7337C9.09374 6.86617 8.69847 7.09464 8.36861 7.40197C8.08154 7.68257 7.83827 8.0047 7.64687 8.35757C7.21861 9.13844 7.00854 10.0203 7.03874 10.9104C7.03694 10.9408 7.04127 10.9712 7.05147 10.9999C7.06167 11.0286 7.07754 11.0549 7.09807 11.0774C7.11867 11.0998 7.14354 11.1179 7.17121 11.1305C7.19894 11.1432 7.22887 11.1501 7.25927 11.151C7.29054 11.1528 7.32187 11.1482 7.35134 11.1377C7.38087 11.1272 7.40794 11.1108 7.43101 11.0896C7.45407 11.0685 7.47261 11.0428 7.48561 11.0144C7.49861 10.9858 7.50567 10.955 7.50654 10.9237C7.62867 10.0069 8.02734 9.1491 8.64927 8.4645C8.91687 8.13217 9.24867 7.8571 9.62494 7.6559C9.97721 7.45484 10.3857 7.37497 10.7877 7.4287C10.9783 7.45624 11.1607 7.52464 11.3223 7.62917C11.6097 7.8163 11.8637 8.06357 12.1644 8.29744C12.2192 8.33384 12.2855 8.3487 12.3506 8.33924C12.4157 8.32977 12.475 8.29664 12.5172 8.24617C12.5594 8.1957 12.5815 8.13144 12.5793 8.0657C12.5771 7.9999 12.5507 7.9373 12.5052 7.88977C12.1844 7.6091 11.9505 7.35517 11.6765 7.10124Z" fill="#111111"/>
<path fill-rule="evenodd" clip-rule="evenodd" d="M7.45322 8.0234C7.15655 7.8418 6.84049 7.69386 6.51099 7.58233C6.15571 7.46553 5.78182 7.41566 5.40834 7.43533C4.82763 7.5032 4.27356 7.717 3.79782 8.0568C3.48373 8.29073 3.3033 9.45353 3.99161 8.97907C4.23183 8.8168 4.48179 8.66953 4.74007 8.538C4.98439 8.40933 5.24523 8.31493 5.51527 8.25733C5.79147 8.20733 6.0744 8.20733 6.3506 8.25733C6.64803 8.31546 6.93902 8.40273 7.21935 8.51793C7.25095 8.53967 7.28689 8.5544 7.32469 8.56107C7.36242 8.56773 7.40122 8.56613 7.43835 8.55646C7.47549 8.5468 7.51009 8.52926 7.53989 8.505C7.56962 8.4808 7.59375 8.4504 7.61075 8.416C7.62769 8.3816 7.63709 8.34393 7.63815 8.30553C7.63929 8.2672 7.63215 8.22906 7.61722 8.19373C7.60222 8.15833 7.57989 8.12667 7.55155 8.10073C7.52329 8.0748 7.48975 8.05526 7.45322 8.04346V8.0234Z" fill="#111111"/>
<path fill-rule="evenodd" clip-rule="evenodd" d="M15.4724 12.1199C14.7658 12.0257 14.0535 11.981 13.3407 11.9862C13.4141 11.4583 13.4877 10.9303 13.5478 10.4091C13.6347 9.58713 13.7015 8.77853 13.7416 7.95653C13.7817 7.1346 13.8017 6.32599 13.8151 5.5107C13.8365 5.10334 13.8365 4.69513 13.8151 4.28777C13.8008 4.05427 13.737 3.82649 13.628 3.61951C13.3749 3.24033 12.9843 2.97435 12.5387 2.87773C11.7215 2.74455 10.8911 2.71312 10.0661 2.78417C7.8074 2.83095 5.60879 3.28537 3.38346 3.45244H3.30327V2.99801C3.39683 2.08917 3.51711 1.18701 3.66413 0.324946C3.67792 0.294477 3.68501 0.261407 3.68493 0.227965C3.68484 0.194524 3.67759 0.161489 3.66365 0.131089C3.64972 0.100688 3.62943 0.0736293 3.60415 0.0517363C3.57887 0.0298434 3.54919 0.0136259 3.51711 0.00417753C3.48683 -0.00162441 3.45569 -0.00138061 3.42551 0.00489491C3.39531 0.0111705 3.36666 0.0233538 3.3412 0.0407441C3.31573 0.0581343 3.29396 0.080388 3.27713 0.106225C3.2603 0.132062 3.24874 0.160973 3.24313 0.191293C3.05906 1.0932 2.90084 2.00019 2.76865 2.91114C2.76865 3.09157 2.72187 3.27201 2.69515 3.45912C1.98179 3.48898 1.26723 3.46889 0.556689 3.39898C0.486763 3.39144 0.416686 3.41177 0.361646 3.45555C0.306605 3.49933 0.271037 3.56304 0.262651 3.63287C0.257971 3.66714 0.260159 3.70199 0.269086 3.73541C0.278013 3.76883 0.293503 3.80013 0.31465 3.82749C0.335798 3.85486 0.362181 3.87775 0.392263 3.89481C0.422344 3.91188 0.455521 3.92279 0.489862 3.92691C1.20089 4.02175 1.91771 4.06641 2.635 4.06056C2.56149 4.58849 2.48798 5.11643 2.42784 5.63767C2.34096 6.45296 2.27413 7.27493 2.23404 8.0902C2.19395 8.90553 2.17389 9.7208 2.16053 10.5361C2.13911 10.9435 2.13911 11.3517 2.16053 11.759C2.17484 11.9925 2.23862 12.2203 2.34765 12.4273C2.59761 12.8036 2.98291 13.0693 3.42356 13.1691C4.24073 13.3022 5.07125 13.3337 5.89615 13.2626C8.15487 13.2158 10.3535 12.7614 12.5788 12.5943H12.659V13.0487C12.5681 13.9435 12.4477 14.835 12.2981 15.7218C12.2923 15.7521 12.2926 15.7833 12.2989 15.8135C12.3051 15.8436 12.3173 15.8723 12.3347 15.8977C12.3521 15.9232 12.3743 15.945 12.4002 15.9618C12.4261 15.9787 12.4549 15.9902 12.4853 15.9958C12.5155 16.0016 12.5467 16.0014 12.5769 15.9951C12.6071 15.9888 12.6357 15.9767 12.6612 15.9593C12.6867 15.9419 12.7084 15.9196 12.7253 15.8938C12.7421 15.8679 12.7537 15.839 12.7593 15.8087C12.9464 14.9199 13.1001 14.0111 13.2337 13.0955C13.2337 12.9151 13.2805 12.7347 13.3073 12.5475C14.0206 12.5177 14.7351 12.5378 15.4457 12.6077C15.5156 12.6153 15.5857 12.5949 15.6407 12.5511C15.6958 12.5073 15.7313 12.4437 15.7397 12.3738C15.7389 12.3396 15.7313 12.3059 15.7173 12.2746C15.7035 12.2433 15.6835 12.2151 15.6587 12.1915C15.6339 12.1679 15.6047 12.1494 15.5727 12.1371C15.5407 12.1249 15.5067 12.119 15.4724 12.1199ZM12.9263 5.50402V8.411C12.9263 9.07927 12.8929 9.70073 12.8461 10.3489C12.8127 10.8903 12.7659 11.4383 12.7191 11.9795H12.5721C10.3535 12.0531 8.1482 12.4273 5.88947 12.3939C5.23463 12.4309 4.57795 12.4198 3.92476 12.3605C3.76416 12.36 3.6056 12.3245 3.46016 12.2564C3.31472 12.1883 3.18591 12.0893 3.08274 11.9662C3.02361 11.8293 2.99619 11.6808 3.00255 11.5318V7.6358C3.00255 6.96753 3.00255 6.34604 3.08274 5.69782C3.08274 5.15652 3.16293 4.60854 3.20971 4.06725H3.35673C5.57538 3.99373 7.78067 3.61951 10.0394 3.65292C10.6933 3.60125 11.3502 3.60125 12.0041 3.65292C12.1649 3.65244 12.3237 3.68754 12.4693 3.75571C12.6149 3.82387 12.7436 3.92342 12.8461 4.0472C12.9053 4.18409 12.9327 4.33259 12.9263 4.48157C12.9664 4.88253 12.9263 5.27681 12.9263 5.50402Z" fill="#111111"/>
</g>
<defs>
<clipPath id="clip0_8524_189975">
<rect width="16" height="16" fill="white"/>
</clipPath>
</defs>
</svg>
