<svg width="64" height="64" viewBox="0 0 64 64" fill="none" xmlns="http://www.w3.org/2000/svg">
<path d="M16.5 47L15.5 27.5L49 28L47.5 46L16.5 47Z" fill="#C8FD12"/>
<g clip-path="url(#clip0_9373_418524)">
<path d="M36.1818 37.1599C35.9119 37.1599 35.2671 37.1599 34.2324 37.0399L34.5474 36.3202C34.8801 35.6185 35.1412 34.885 35.3271 34.1309C35.3877 33.8528 35.3799 33.5642 35.304 33.29C35.2282 33.0157 35.0869 32.764 34.8922 32.5564C34.39 32.1386 33.7732 31.8826 33.1228 31.8217C31.9381 31.6567 30.4537 31.9417 29.584 31.8217C28.9316 31.6976 28.2644 31.6724 27.6046 31.7467C27.3497 31.8667 27.1548 32.4515 27.8595 32.6314C28.2344 32.7214 29.1642 32.8414 29.509 32.8864C30.2287 32.9762 31.3984 32.9912 32.418 33.1562C32.9428 33.2462 33.8125 33.6211 33.7525 33.8609C33.6027 34.4008 33.1078 35.5105 33.0178 35.7803L32.628 36.905H31.8483C28.6243 37.0249 28.5193 37.1749 28.2644 37.7447C28.0095 38.3146 31.6683 38.5094 31.8183 38.5244H32.0731L30.7236 42.4232C30.6802 42.5465 30.6876 42.6818 30.7437 42.7999C30.7999 42.9179 30.9004 43.0088 31.0234 43.0529C31.1428 43.0966 31.2745 43.091 31.3897 43.0376C31.5051 42.9842 31.5943 42.8872 31.6383 42.7681L33.4977 38.5394C34.2474 38.4886 34.9935 38.3933 35.7319 38.2546C35.922 38.2336 36.1084 38.1883 36.2868 38.1196C36.5566 37.9696 36.6166 37.7897 36.6016 37.6397C36.6025 37.5223 36.5604 37.4084 36.483 37.3201C36.4056 37.2316 36.2983 37.1746 36.1818 37.1599Z" fill="#111111"/>
<path d="M37.6364 19.8408C37.4671 20.9778 37.5908 22.1391 37.9963 23.2147C38.2673 23.7421 38.7218 24.1521 39.2743 24.3676C39.8266 24.583 40.4387 24.589 40.9952 24.3843C41.3738 24.2926 41.7233 24.1072 42.0115 23.8452C42.2998 23.5832 42.5174 23.253 42.6448 22.8848C42.8899 22.0434 42.9814 21.1646 42.9146 20.2907V18.1014C42.937 17.7694 42.8869 17.4365 42.7678 17.1258C42.6487 16.8151 42.4634 16.534 42.2249 16.302C41.4254 15.7597 40.4504 15.5401 39.4958 15.6872C39.4315 15.6852 39.3674 15.6961 39.3076 15.7193C39.2476 15.7426 39.1928 15.7776 39.1468 15.8223C39.1006 15.8671 39.0638 15.9207 39.0388 15.9799C39.0137 16.0391 39.0008 16.1028 39.001 16.1671C38.9641 16.0746 38.8957 15.9982 38.8078 15.9515C38.7199 15.9048 38.6183 15.8909 38.5211 15.9121C38.423 15.9396 38.3333 15.991 38.2601 16.0616C38.1868 16.1323 38.1322 16.22 38.1013 16.317C38.0119 16.8418 37.9766 17.3745 37.9963 17.9065L37.7863 18.8212C37.7081 19.1563 37.658 19.4974 37.6364 19.8408ZM38.881 19.226C38.881 19.226 39.1208 16.437 39.1208 16.332C39.1586 16.4202 39.2213 16.4956 39.3013 16.5488C39.3811 16.6021 39.4747 16.6309 39.5707 16.6319C40.9202 16.6319 41.4901 16.8868 41.6401 17.4116C41.6887 18.3657 41.6233 19.3222 41.4451 20.2607C41.4491 20.8412 41.3837 21.4202 41.2502 21.9851C41.1452 22.345 41.0102 22.7049 40.6354 22.7949C40.4891 22.8611 40.3298 22.8939 40.1692 22.8908C40.0087 22.8878 39.8507 22.8489 39.707 22.7771C39.5635 22.7052 39.4376 22.6022 39.3388 22.4756C39.2399 22.349 39.1706 22.2019 39.1358 22.0451C38.8975 21.1256 38.8114 20.1733 38.881 19.226Z" fill="#111111"/>
<path d="M26.825 19.376C26.825 19.5259 26.93 19.6759 27.5148 19.7358C28.3545 19.7358 28.7144 20.0058 29.869 20.0657H33.6328C34.6674 20.0657 35.2972 19.9758 36.3469 19.9008C36.8418 19.9008 37.2316 18.9411 36.5718 18.7762C35.4322 18.7312 34.6524 18.5363 33.4978 18.5363H30.4989C29.5716 18.5332 28.6451 18.5883 27.7247 18.7012C27.0949 18.7462 26.81 19.151 26.825 19.376Z" fill="#111111"/>
<path d="M48.4928 20.1407C47.9868 19.5903 47.3207 19.2126 46.5884 19.0611C45.8945 18.8776 45.1756 18.8067 44.4592 18.8512C43.3945 19.0011 43.6794 19.7359 44.2341 19.7359C44.7366 19.7309 45.2386 19.771 45.7337 19.8558C46.4818 19.9092 47.1826 20.2409 47.6981 20.7855C48.0475 21.4864 48.2467 22.2525 48.2828 23.0348C48.4328 24.2044 48.5528 25.7189 48.6278 27.3833C46.4235 27.3833 41.9999 27.2034 37.0366 27.1134H26.87C21.5017 27.1584 16.8383 27.3384 15.3688 27.3983C15.3593 25.136 15.5905 22.879 16.0585 20.6656C16.206 20.3948 16.4223 20.1676 16.6856 20.0071C16.9488 19.8465 17.2498 19.7581 17.558 19.7509C18.1808 19.5993 18.8223 19.5387 19.4624 19.5709C19.5472 19.5563 19.6251 19.5152 19.6849 19.4533C19.7446 19.3915 19.7832 19.3122 19.7949 19.227C19.8065 19.1418 19.7908 19.0551 19.7499 18.9794C19.709 18.9037 19.6451 18.8431 19.5674 18.8062C18.6385 18.605 17.6772 18.605 16.7483 18.8062C16.3804 18.8947 16.0376 19.0665 15.7465 19.3082C15.4553 19.55 15.2235 19.8553 15.0689 20.2007C14.4841 21.5803 13.8843 29.1977 14.0192 35.9454C14.1242 40.8489 14.709 45.2424 15.7886 46.562C16.5834 47.5217 18.6527 48.0615 21.2618 48.2714C25.3255 48.5414 30.7236 48.0915 33.5128 48.0915C37.0154 48.2024 40.5215 48.0872 44.0093 47.7465C45.5816 47.61 47.1108 47.1614 48.5078 46.427C48.9146 46.0821 49.1856 45.6038 49.2725 45.0774C49.8065 41.9982 50.0474 38.8752 49.9923 35.7506C49.9923 29.0328 49.4375 21.2504 48.4928 20.1407ZM48.118 43.323C48.0344 43.9811 47.868 44.6259 47.6231 45.2424C45.945 45.9447 44.1487 46.3214 42.3299 46.352C38.821 46.637 34.9523 46.502 33.5128 46.502C30.7537 46.502 25.4004 46.9668 21.3668 46.727C19.2975 46.607 17.588 46.397 16.9582 45.6473C15.9386 44.4627 15.5037 40.4291 15.3688 35.9754C15.2691 33.4125 15.2591 30.8468 15.3388 28.283C16.8383 28.283 21.4118 28.523 26.87 28.6279H37.0366C42.0299 28.538 46.4684 28.403 48.6578 28.343C48.6578 29.8425 48.7327 31.5369 48.6578 33.1865C48.6878 36.5732 48.5075 39.9585 48.118 43.323Z" fill="#111111"/>
<path d="M20.722 19.7958C20.6066 20.9965 20.7237 22.2082 21.0669 23.3646C21.3379 23.892 21.7924 24.302 22.3449 24.5175C22.8973 24.7329 23.5094 24.7389 24.0659 24.5342C24.4478 24.4461 24.801 24.2622 25.0921 23.9998C25.3833 23.7375 25.603 23.4054 25.7304 23.0347C25.9854 22.1849 26.077 21.2945 26.0003 20.4106V18.2213C26.0207 17.8895 25.9696 17.5572 25.8507 17.2468C25.7317 16.9364 25.5475 16.6551 25.3105 16.4219C24.5138 15.873 23.5381 15.6478 22.5814 15.7921C22.4502 15.7921 22.3243 15.8443 22.2315 15.9371C22.1387 16.0299 22.0866 16.1557 22.0866 16.287C22.0498 16.1945 21.9813 16.1181 21.8934 16.0714C21.8055 16.0247 21.7039 16.0108 21.6067 16.0321C21.5087 16.0595 21.419 16.1109 21.3457 16.1815C21.2724 16.2522 21.2178 16.3399 21.1869 16.4369C21.0743 16.9294 21.009 17.4315 20.9919 17.9364L20.827 18.7312V19.121L20.722 19.7958ZM21.9516 19.3609C21.9516 19.3609 22.1915 16.5869 22.1915 16.4669C22.2253 16.5591 22.2865 16.6388 22.3669 16.6951C22.4474 16.7514 22.5432 16.7816 22.6414 16.7818C23.9909 16.7818 24.5607 17.0367 24.7107 17.5615C24.7545 18.5162 24.684 19.4727 24.5008 20.4106C24.5021 20.991 24.4367 21.5696 24.3058 22.135C24.2158 22.4799 24.0809 22.8398 23.706 22.9298C23.5597 22.996 23.4005 23.0288 23.2399 23.0258C23.0793 23.0227 22.9214 22.9838 22.7777 22.912C22.6341 22.8401 22.5082 22.7372 22.4094 22.6105C22.3106 22.4839 22.2413 22.3368 22.2065 22.18C21.9655 21.261 21.8793 20.3083 21.9516 19.3609Z" fill="#111111"/>
</g>
<defs>
<clipPath id="clip0_9373_418524">
<rect width="36" height="36" fill="white" transform="translate(14 14)"/>
</clipPath>
</defs>
</svg>
