<svg width="16" height="16" viewBox="0 0 16 16" fill="none" xmlns="http://www.w3.org/2000/svg">
<g clip-path="url(#clip0_9378_421607)">
<path d="M8.04224 13.2434C3.50459 13.2434 0.900405 8.82575 0.449707 7.99236C0.859069 7.1563 3.2379 2.75732 8.04224 2.75732C12.8466 2.75732 15.2254 7.15497 15.6348 7.99236C15.1841 8.82575 12.5786 13.2434 8.04224 13.2434Z" fill="#FAFAFA"/>
<path d="M8.04287 3.0826C10.151 3.0826 12.0218 3.93866 13.6033 5.62811C14.4873 6.57217 15.034 7.52958 15.2687 7.98427C14.6673 9.04968 12.1952 12.9166 8.04287 12.9166C6.05873 12.9166 4.22527 12.0566 2.59049 10.3604C1.67176 9.40704 1.07438 8.43897 0.817031 7.98427C1.05038 7.52958 1.59842 6.57084 2.48248 5.62811C4.06393 3.93866 5.93472 3.0826 8.04287 3.0826ZM8.04287 2.43188C2.47448 2.43188 0.0876465 8.00028 0.0876465 8.00028C0.0876465 8.00028 2.78784 13.5687 8.04287 13.5687C13.2979 13.5687 15.9968 8.00028 15.9968 8.00028C15.9968 8.00028 13.6099 2.43188 8.04287 2.43188Z" fill="#111111" fill-opacity="0.12"/>
<path d="M8.04249 4.40008C11.6387 4.40008 14.1056 6.60157 15.1977 8.09501C15.3257 8.26969 15.463 7.42963 15.347 7.24695C14.3016 5.61217 11.9588 2.85864 8.04383 2.85864C4.12889 2.85864 1.78339 5.6135 0.73798 7.24828C0.620639 7.43096 0.777983 8.15901 0.925994 8.00034C2.06474 6.77758 4.44491 4.40008 8.04249 4.40008Z" fill="#B0BEC5"/>
<path d="M8.04214 11.9917C10.4834 11.9917 12.4624 10.0127 12.4624 7.57143C12.4624 5.13016 10.4834 3.15112 8.04214 3.15112C5.60087 3.15112 3.62183 5.13016 3.62183 7.57143C3.62183 10.0127 5.60087 11.9917 8.04214 11.9917Z" fill="#A7C930"/>
<path d="M8.04249 4.39934C9.49193 4.39934 10.7574 4.7567 11.8241 5.28207C11.0494 4.00465 9.64527 3.15259 8.04249 3.15259C6.40504 3.15259 4.97561 4.04465 4.21289 5.36741C5.28097 4.8047 6.55706 4.39934 8.04249 4.39934Z" fill="#7C7310"/>
<path d="M8.04234 9.62936C9.17865 9.62936 10.0998 8.7082 10.0998 7.57188C10.0998 6.43557 9.17865 5.5144 8.04234 5.5144C6.90603 5.5144 5.98486 6.43557 5.98486 7.57188C5.98486 8.7082 6.90603 9.62936 8.04234 9.62936Z" fill="#111111"/>
<path d="M11.3151 8.41159C11.8836 8.41159 12.3445 7.95071 12.3445 7.38219C12.3445 6.81366 11.8836 6.35278 11.3151 6.35278C10.7465 6.35278 10.2856 6.81366 10.2856 7.38219C10.2856 7.95071 10.7465 8.41159 11.3151 8.41159Z" fill="white"/>
<path d="M0.427515 8.4277C0.358177 8.4277 0.287505 8.41037 0.222167 8.37437C0.0154858 8.26103 -0.0605195 8.00101 0.0528218 7.79433C0.166163 7.58765 2.89035 2.43262 8.04272 2.43262C13.1951 2.43262 15.8393 7.48497 15.9486 7.68765C16.0606 7.89567 15.9846 8.15435 15.7766 8.26769C15.5686 8.3797 15.3099 8.3037 15.1966 8.09568C15.1725 8.05035 12.679 3.5807 8.04138 3.5807C3.40239 3.5807 0.826209 8.15969 0.800874 8.20636C0.723536 8.3477 0.578192 8.4277 0.427515 8.4277Z" fill="#5F4C06"/>
</g>
<defs>
<clipPath id="clip0_9378_421607">
<rect width="16" height="16" fill="white"/>
</clipPath>
</defs>
</svg>
