<svg width="16" height="16" viewBox="0 0 16 16" fill="none" xmlns="http://www.w3.org/2000/svg">
<path d="M14.9333 0H1.06667C0.477333 0 0 0.477333 0 1.06667V14.9333C0 15.5227 0.477333 16 1.06667 16H14.9333C15.5227 16 16 15.5227 16 14.9333V1.06667C16 0.477333 15.5227 0 14.9333 0Z" fill="#689F38"/>
<path d="M14.0933 0H1C0.449336 0.004 0.00400298 0.449333 2.97732e-06 1V14.0533C-0.00133036 14.6053 0.445336 15.052 0.997336 15.0533C0.99867 15.0533 0.99867 15.0533 1 15.0533H14.08C14.632 15.0547 15.0787 14.608 15.08 14.056C15.08 14.0547 15.08 14.0547 15.08 14.0533V1C15.092 0.46 14.6627 0.012 14.1227 0C14.1133 0 14.1027 0 14.0933 0Z" fill="#A5D500"/>
<path opacity="0.3" d="M4.76008 1.18662C4.76008 0.879951 4.54674 0.786618 3.32008 0.826618C2.29341 0.866618 1.78674 0.986618 1.48008 1.35995C1.17341 1.73328 1.09341 2.49328 1.08008 3.39995C1.08008 4.03995 1.08008 4.63995 1.41341 4.63995C1.86674 4.63995 1.86674 3.58662 2.24008 2.99995C2.96008 1.83995 4.76008 1.58662 4.76008 1.18662Z" fill="white"/>
<path d="M5.17343 14.0667C4.64543 14.0814 4.1721 13.744 4.01343 13.24L2.0001 7.17336C1.80543 6.53203 2.1681 5.85336 2.80943 5.65869C3.42943 5.47069 4.0881 5.80269 4.30676 6.41336L5.61343 10.3467L11.8934 2.40003C12.3094 1.87336 13.0734 1.78403 13.6001 2.20003C14.1268 2.61603 14.2161 3.38003 13.8001 3.90669L6.1201 13.6C5.8921 13.892 5.5441 14.064 5.17343 14.0667Z" fill="#FBF9F9"/>
</svg>
