<svg width="16" height="16" viewBox="0 0 16 16" fill="none" xmlns="http://www.w3.org/2000/svg">
<g clip-path="url(#clip0_4471_73251)">
<path d="M8.68183 0.135374C8.5397 0.261707 7.43429 2.45542 7.43429 2.45542L6.61182 5.77297L9.81224 5.47951C9.81224 5.47951 12.4744 0.528848 12.5284 0.414359C12.6245 0.206436 12.6758 0.120899 12.3086 0.120899C11.9415 0.119583 8.81474 0.0169376 8.68183 0.135374Z" fill="#176CC7"/>
<path d="M10.3386 5.2742C10.1793 5.18867 5.48925 5.11497 5.37871 5.2742C5.27869 5.41896 5.29317 6.08089 5.34186 6.16643C5.39055 6.25196 6.96708 6.98496 6.96708 6.98496L6.96576 7.2521C6.96576 7.2521 7.05261 7.46134 7.93168 7.46134C8.81074 7.46134 8.90154 7.28368 8.90154 7.28368L8.90944 7.01391C8.90944 7.01391 10.2899 6.32434 10.3623 6.26381C10.436 6.20196 10.4978 5.35974 10.3386 5.2742ZM8.89365 6.3704C8.89365 6.3704 8.8897 6.18617 8.7989 6.14011C8.7081 6.09405 7.24606 6.10194 7.12236 6.10852C6.99866 6.1151 6.99866 6.33619 6.99866 6.33619L5.99853 5.84928V5.7519L9.7227 5.77822L9.72928 5.88876L8.89365 6.3704Z" fill="#FCC417"/>
<path d="M7.38812 6.31128C7.26442 6.31128 7.19336 6.44024 7.19336 6.66264C7.19336 6.87056 7.26442 7.04559 7.42102 7.03243C7.54999 7.0219 7.59473 6.82451 7.58289 6.64948C7.57104 6.44156 7.54472 6.31128 7.38812 6.31128Z" fill="#FDFFFF"/>
<path d="M3.40356 11.5159C3.40356 14.6689 6.25394 16.0731 8.14893 16.0059C10.2387 15.9309 12.7416 14.3018 12.5903 11.2935C12.4469 8.44309 10.0492 7.0916 7.97259 7.10607C5.55911 7.12318 3.40356 8.76156 3.40356 11.5159Z" fill="#FCC417"/>
<path d="M8.08177 15.4571C8.04887 15.4571 8.01466 15.4571 7.98176 15.4558C6.99479 15.4229 6.01966 15.007 5.3064 14.3162C4.54314 13.5766 4.12467 12.5765 4.12993 11.5013C4.14178 8.87596 6.43682 7.65869 7.9936 7.65869C7.99755 7.65869 8.00281 7.65869 8.00676 7.65869C10.1163 7.6679 11.8481 9.3076 11.8968 11.5303C11.9178 12.5199 11.5125 13.5582 10.7176 14.3398C9.97545 15.0676 8.9911 15.4571 8.08177 15.4571ZM7.99097 8.09559C6.59473 8.09559 4.52999 9.23785 4.52472 11.5013C4.52077 13.1936 5.83147 14.9333 8.01466 15.007C8.84635 15.0334 9.70304 14.7149 10.3952 14.0345C11.1138 13.3279 11.5178 12.4172 11.5033 11.5355C11.4717 9.62343 9.90833 8.10217 8.01071 8.09428C8.00545 8.09428 7.99492 8.09559 7.99097 8.09559Z" fill="#FA912C"/>
<path d="M7.19882 7.55349C7.10802 7.42848 6.07894 7.45216 5.10644 8.40229C4.16816 9.31952 4.06683 10.1841 4.24712 10.2341C4.45109 10.2907 4.69981 9.37479 5.55913 8.60495C6.34871 7.89959 7.38043 7.80221 7.19882 7.55349Z" fill="#FEFFFA"/>
<path d="M11.1794 10.9578C10.8623 11.0026 11.1913 11.9527 10.4557 13.016C9.81742 13.9385 9.09364 14.2728 9.17786 14.4754C9.29103 14.7465 10.4504 14.0714 10.9873 12.9713C11.4742 11.9751 11.4163 10.9236 11.1794 10.9578Z" fill="#FEFFFA"/>
<path d="M6.93957 9.71303C6.87114 9.81436 6.93299 10.7026 6.97378 10.7421C7.05274 10.8211 7.65282 10.5381 7.65282 10.5381L7.63045 12.9135C7.63045 12.9135 7.1896 12.9082 7.14354 12.9253C7.05274 12.9595 7.06458 13.8754 7.1317 13.9202C7.19881 13.9649 8.99774 13.9886 9.06617 13.8978C9.1346 13.807 9.11749 13.0056 9.08591 12.9687C9.02932 12.9003 8.599 12.9279 8.599 12.9279C8.599 12.9279 8.63585 9.4301 8.624 9.31824C8.61216 9.20638 8.48846 9.13664 8.34107 9.17085C8.19368 9.20507 6.98299 9.64723 6.93957 9.71303Z" fill="#DF7916"/>
<path d="M2.94691 0.0668775C2.864 0.143203 6.03416 5.78869 6.03416 5.78869C6.03416 5.78869 6.56581 5.85712 7.75281 5.86765C8.93981 5.87818 9.52805 5.79922 9.52805 5.79922C9.52805 5.79922 7.06325 0.123464 6.91586 0.0668775C6.84348 0.0379262 5.86704 0.0273985 4.91296 0.0168708C3.95757 0.00502712 3.02587 -0.00681654 2.94691 0.0668775Z" fill="#2E9DF4"/>
</g>
<defs>
<clipPath id="clip0_4471_73251">
<rect width="16" height="16" fill="white"/>
</clipPath>
</defs>
</svg>
