<svg width="16" height="16" viewBox="0 0 16 16" fill="none" xmlns="http://www.w3.org/2000/svg">
<g clip-path="url(#clip0_1169_27124)">
<path d="M8 0C3.58154 0 0 3.58154 0 8C0 12.4185 3.58154 16 8 16C12.4185 16 16 12.4185 16 8C16 3.58154 12.4185 0 8 0ZM8.01108 10.3674C7.39692 10.9545 6.808 11.5674 6.20492 12.1655C5.59815 12.7674 4.736 12.7625 4.12369 12.1655C3.808 11.8578 3.48615 11.5563 3.41231 11.0862C3.34092 10.6234 3.42954 10.2111 3.76923 9.872C4.42646 9.21231 5.08308 8.55138 5.74523 7.89662C6.04862 7.59692 6.56246 7.52985 6.98585 7.73415C6.63446 8.10031 6.28923 8.45969 5.94215 8.81723C5.43754 9.33908 4.93723 9.86708 4.42215 10.3778C4.192 10.6062 4.16862 10.8332 4.34523 11.0874C4.43262 11.2123 4.52492 11.3372 4.63569 11.4425C5.09538 11.8794 5.31262 11.8702 5.76123 11.4302C6.55754 10.6486 7.35754 9.872 8.15754 9.09354C8.192 9.05969 8.23446 9.03262 8.29231 8.98585C8.42338 9.51385 8.42646 9.97046 8.01108 10.3674ZM7.95446 8.46585C7.79692 8.62523 7.64246 8.78769 7.47631 8.93908C7.34092 9.064 7.18277 9.09354 7.04369 8.94708C6.90462 8.80185 6.936 8.64862 7.06831 8.51385C7.54215 8.03569 8.01723 7.55938 8.49662 7.08738C8.55815 7.02646 8.64677 6.99385 8.75323 6.93108C8.84062 7.01231 8.96862 7.07508 8.98277 7.15754C9.00308 7.26831 8.97169 7.42831 8.89846 7.50831C8.59692 7.83754 8.272 8.14831 7.95446 8.46585ZM12.1686 6.20615C11.5502 6.81723 10.9391 7.43569 10.3225 8.04862C9.95631 8.41108 9.50462 8.48923 8.98585 8.27631C9.60123 7.64062 10.2105 7.01108 10.8222 6.38092C11.0782 6.11692 11.3329 5.85169 11.5982 5.59508C11.792 5.40923 11.8154 5.20615 11.68 4.98892C11.5938 4.85169 11.4954 4.71692 11.3815 4.60308C10.9077 4.12308 10.6874 4.128 10.2154 4.59077C9.39077 5.39508 8.55754 6.19508 7.68431 7.03877C7.56738 6.48123 7.56862 6.03754 7.97969 5.64985C8.592 5.07508 9.17169 4.46831 9.76431 3.87508C10.4203 3.22031 11.2455 3.21538 11.8923 3.89231C12.1342 4.14523 12.3846 4.42769 12.5095 4.74523C12.7218 5.28 12.5938 5.78769 12.1686 6.20615Z" fill="#111111"/>
</g>
<defs>
<clipPath id="clip0_1169_27124">
<rect width="16" height="16" fill="white"/>
</clipPath>
</defs>
</svg>
