<svg width="16" height="16" viewBox="0 0 16 16" fill="none" xmlns="http://www.w3.org/2000/svg">
<path d="M12.9732 5.33343L13.4999 4.16676L14.6665 3.64009C14.9265 3.52009 14.9265 3.15343 14.6665 3.03343L13.4999 2.50676L12.9732 1.33343C12.8532 1.07343 12.4865 1.07343 12.3665 1.33343L11.8399 2.50009L10.6665 3.02676C10.4065 3.14676 10.4065 3.51343 10.6665 3.63343L11.8332 4.16009L12.3599 5.33343C12.4799 5.59343 12.8532 5.59343 12.9732 5.33343ZM7.66653 6.33343L6.60653 4.00009C6.3732 3.48009 5.62653 3.48009 5.3932 4.00009L4.3332 6.33343L1.99986 7.39343C1.47986 7.63343 1.47986 8.37343 1.99986 8.60676L4.3332 9.66676L5.3932 12.0001C5.6332 12.5201 6.3732 12.5201 6.60653 12.0001L7.66653 9.66676L9.99986 8.60676C10.5199 8.36676 10.5199 7.62676 9.99986 7.39343L7.66653 6.33343ZM12.3599 10.6668L11.8332 11.8334L10.6665 12.3601C10.4065 12.4801 10.4065 12.8468 10.6665 12.9668L11.8332 13.4934L12.3599 14.6668C12.4799 14.9268 12.8465 14.9268 12.9665 14.6668L13.4932 13.5001L14.6665 12.9734C14.9265 12.8534 14.9265 12.4868 14.6665 12.3668L13.4999 11.8401L12.9732 10.6668C12.8532 10.4068 12.4799 10.4068 12.3599 10.6668Z" fill="#111111"/>
</svg>
