<svg width="16" height="16" viewBox="0 0 16 16" fill="none" xmlns="http://www.w3.org/2000/svg">
<circle cx="8" cy="8" r="8" fill="#111111"/>
<path d="M6.68212 6.64836H5.34454V5.08785C5.34454 4.74815 5.41177 4.43145 5.54624 4.13775C5.68071 3.84405 5.86648 3.58573 6.10357 3.3628C6.34065 3.13987 6.6202 2.96471 6.94221 2.83732C7.26422 2.70993 7.6163 2.64624 7.99847 2.64624C8.33817 2.64624 8.66549 2.70993 8.98042 2.83732C9.29536 2.96471 9.5749 3.13987 9.81906 3.3628C10.0632 3.58573 10.2578 3.84405 10.4029 4.13775C10.548 4.43145 10.6206 4.74815 10.6206 5.08785V6.64836H9.33605V5.38509C9.33605 4.93923 9.2122 4.59422 8.9645 4.35006C8.7168 4.1059 8.38064 3.98382 7.95601 3.98382C7.57384 3.98382 7.26599 4.1059 7.03244 4.35006C6.79889 4.59422 6.68212 4.93923 6.68212 5.38509V6.64836ZM11.2575 7.28531C11.4486 7.28531 11.6131 7.35431 11.7511 7.49231C11.8891 7.63032 11.9581 7.79486 11.9581 7.98594V11.2768C11.9581 11.4679 11.9245 11.6466 11.8573 11.8129C11.79 11.9792 11.698 12.1243 11.5813 12.2482C11.4645 12.372 11.3265 12.4693 11.1673 12.5401C11.008 12.6109 10.8329 12.6462 10.6418 12.6462H5.28085C5.08976 12.6462 4.91637 12.6109 4.76068 12.5401C4.60498 12.4693 4.47228 12.3755 4.36259 12.2588C4.25289 12.142 4.16797 12.0058 4.10781 11.8501C4.04766 11.6944 4.01758 11.5281 4.01758 11.3511V7.98594C4.01758 7.79486 4.08481 7.63032 4.21928 7.49231C4.35374 7.35431 4.51652 7.28531 4.7076 7.28531H5.34454H6.68212H9.33605H10.6206H11.2575Z" fill="white"/>
</svg>
