<svg width="16" height="16" viewBox="0 0 16 16" fill="none" xmlns="http://www.w3.org/2000/svg">
<path d="M3.97859 4.1001C2.98654 4.1001 2.16561 4.51295 1.60197 5.30396C1.06825 5.98966 0.807373 6.89316 0.807373 8.0001C0.807373 9.07831 1.06705 9.97822 1.61155 10.7094C2.16561 11.4872 2.98774 11.9001 3.97859 11.9001C4.75165 11.9001 5.59651 11.4178 6.53591 10.5239C6.98945 10.0871 7.51241 9.50673 8.11195 8.77196L8.73063 8.0001L8.37402 7.55254C7.69191 6.69451 7.06484 6.00163 6.52394 5.49184L6.3241 5.30875C5.49599 4.52253 4.71695 4.1001 3.97859 4.1001ZM3.97859 5.53612C4.24426 5.53612 4.65592 5.74434 5.17528 6.20387L5.53428 6.53296C5.90645 6.88359 6.32529 7.33235 6.78243 7.87325L6.88654 8.0001L6.76567 8.14729C6.29897 8.70614 5.8909 9.15251 5.54266 9.48758C4.84978 10.1458 4.29332 10.4641 3.97859 10.4641C3.44607 10.4641 3.06313 10.2714 2.77233 9.86334C2.41692 9.38586 2.2434 8.78632 2.2434 8.0001C2.2434 7.19233 2.41572 6.59638 2.75438 6.16079C3.06313 5.72879 3.44607 5.53612 3.97859 5.53612Z" fill="#111111"/>
<path d="M12.0225 4.1001C13.0134 4.1001 13.8343 4.51295 14.3979 5.30396C14.9317 5.98966 15.1925 6.89316 15.1925 8.0001C15.1925 9.07831 14.9329 9.97822 14.3896 10.7094C13.8343 11.4872 13.0134 11.9001 12.0225 11.9001C11.2483 11.9001 10.4046 11.4178 9.46401 10.5239C8.90547 9.97066 8.37926 9.38571 7.88797 8.77196L7.26929 8.00129L7.6259 7.55373C8.30921 6.69571 8.93507 6.00283 9.47717 5.49304L9.67582 5.30995C10.5039 4.52372 11.283 4.10129 12.0213 4.10129L12.0225 4.1001ZM12.0225 5.53612C11.7557 5.53612 11.344 5.74434 10.8258 6.20387L10.4656 6.53296C10.0935 6.88359 9.67582 7.33235 9.21869 7.87325L9.11338 8.0001L9.23544 8.14729C9.70215 8.70614 10.109 9.15251 10.4573 9.48758C11.1513 10.1458 11.7078 10.4641 12.0225 10.4641C12.555 10.4641 12.938 10.2714 13.2288 9.86334C13.5842 9.38586 13.7565 8.78632 13.7565 8.0001C13.7565 7.19233 13.5854 6.59638 13.2467 6.16079C12.938 5.72879 12.555 5.53612 12.0225 5.53612Z" fill="#111111"/>
</svg>
