<svg width="16" height="16" viewBox="0 0 16 16" fill="none" xmlns="http://www.w3.org/2000/svg">
<g clip-path="url(#clip0_4256_23252)">
<path d="M7.99976 0C3.58146 0 -0.000244141 3.5817 -0.000244141 8C-0.000244141 12.4183 3.58146 16 7.99976 16C12.4181 16 15.9998 12.4183 15.9998 8C15.9998 3.5817 12.4181 0 7.99976 0ZM11.35 8.53114L6.80453 11.5311C6.70861 11.5944 6.59736 11.6304 6.48259 11.6356C6.36782 11.6407 6.25381 11.6146 6.15265 11.5601C6.05149 11.5057 5.96696 11.4249 5.90803 11.3262C5.8491 11.2276 5.81797 11.1149 5.81794 11V5.00057C5.81794 4.88565 5.84907 4.77287 5.90801 4.67422C5.96695 4.57556 6.05151 4.49471 6.1527 4.44025C6.2539 4.38578 6.36795 4.35974 6.48276 4.36487C6.59756 4.37001 6.70883 4.40614 6.80476 4.46943L11.3502 7.46943C11.4381 7.52741 11.5102 7.60628 11.5601 7.69898C11.61 7.79168 11.6361 7.8953 11.6361 8.00057C11.6361 8.10584 11.61 8.20946 11.5601 8.30216C11.5102 8.39485 11.4381 8.47372 11.3502 8.53171L11.35 8.53114Z" fill="#111111"/>
<path d="M11.3499 8.53116L6.80446 11.5312C6.70854 11.5944 6.59729 11.6305 6.48252 11.6356C6.36775 11.6407 6.25374 11.6146 6.15258 11.5602C6.05142 11.5057 5.9669 11.4249 5.90797 11.3263C5.84904 11.2276 5.8179 11.1149 5.81787 11V5.00059C5.81788 4.88567 5.849 4.77289 5.90794 4.67424C5.96689 4.57559 6.05144 4.49473 6.15264 4.44027C6.25383 4.3858 6.36788 4.35976 6.48269 4.36489C6.59749 4.37003 6.70877 4.40616 6.80469 4.46945L11.3501 7.46945C11.438 7.52743 11.5101 7.60631 11.56 7.699C11.6099 7.7917 11.636 7.89532 11.636 8.00059C11.636 8.10586 11.6099 8.20948 11.56 8.30218C11.5101 8.39487 11.4378 8.47318 11.3499 8.53116Z" fill="white"/>
</g>
<defs>
<clipPath id="clip0_4256_23252">
<rect width="16" height="16" rx="8" fill="white"/>
</clipPath>
</defs>
</svg>
