<svg width="16" height="16" viewBox="0 0 16 16" fill="none" xmlns="http://www.w3.org/2000/svg">
<path d="M8.00005 1.30005C6.67492 1.30005 5.37954 1.693 4.27773 2.4292C3.17592 3.16541 2.31717 4.2118 1.81006 5.43607C1.30295 6.66033 1.17027 8.00748 1.42879 9.30715C1.68731 10.6068 2.32542 11.8006 3.26244 12.7377C4.19945 13.6747 5.39327 14.3128 6.69295 14.5713C7.99262 14.8298 9.33976 14.6971 10.564 14.19C11.7883 13.6829 12.8347 12.8242 13.5709 11.7224C14.3071 10.6206 14.7 9.32518 14.7 8.00005C14.7 6.2231 13.9942 4.51893 12.7377 3.26243C11.4812 2.00594 9.777 1.30005 8.00005 1.30005ZM3.21434 8.00005C3.21434 6.96456 3.55019 5.95701 4.17148 5.12862L4.69791 5.65505C4.83414 5.78858 4.94239 5.94792 5.01635 6.12377C5.0903 6.29961 5.12847 6.48843 5.12862 6.67919V7.70333C5.12879 7.89366 5.20453 8.07612 5.33919 8.21062L5.87519 8.74662C6.00969 8.88128 6.19216 8.95702 6.38248 8.95719H7.04291V9.61762C7.04308 9.80794 7.11882 9.99041 7.25348 10.1249L7.78948 10.6609C7.92414 10.7954 7.99988 10.9779 8.00005 11.1682V12.7858C6.7308 12.7858 5.51354 12.2816 4.61604 11.3841C3.71854 10.4866 3.21434 9.2693 3.21434 8.00005ZM9.18691 12.623L11.1012 10.2685C11.1869 10.1622 11.2405 10.0338 11.2557 9.89816C11.271 9.76254 11.2472 9.62538 11.1873 9.50276L10.6322 8.39248C10.5657 8.26262 10.4617 8.15576 10.3337 8.08578C10.2056 8.0158 10.0595 7.98593 9.91434 8.00005H7.04291V7.81819C7.04382 7.72873 7.0693 7.64124 7.11656 7.56529C7.16383 7.48933 7.23106 7.42782 7.31091 7.38748L7.67462 7.20562C7.77521 7.15359 7.8868 7.12643 8.00005 7.12643C8.1133 7.12643 8.22489 7.15359 8.32548 7.20562L8.95719 7.52148L9.32091 6.85148C9.39707 6.71037 9.43657 6.55239 9.43576 6.39205V5.57848C9.43636 5.39008 9.50816 5.20887 9.63676 5.07119L10.6609 4.02791C11.4292 4.54174 12.0322 5.26705 12.3972 6.11621C12.7621 6.96537 12.8734 7.90204 12.7175 8.81306C12.5616 9.72409 12.1453 10.5705 11.5187 11.25C10.8922 11.9295 10.0823 12.413 9.18691 12.6422V12.623Z" fill="#111111"/>
</svg>
