<svg width="16" height="16" viewBox="0 0 16 16" fill="none" xmlns="http://www.w3.org/2000/svg">
<g clip-path="url(#clip0_7709_137527)">
<path d="M8.00001 4.01636C4.96579 4.01636 2.39173 5.68068 1.43359 8.00015C2.39173 10.3196 4.96579 11.9839 8.00001 11.9839C11.0342 11.9839 13.6083 10.3196 14.5664 8.00015C13.6083 5.68068 11.0342 4.01636 8.00001 4.01636Z" fill="white"/>
<path d="M8.00005 10.9879C6.34989 10.9879 5.01221 9.65022 5.01221 8.00005C5.01221 6.34989 6.34989 5.01221 8.00005 5.01221C9.65022 5.01221 10.9879 6.34989 10.9879 8.00005C10.9879 9.65022 9.65022 10.9879 8.00005 10.9879Z" fill="white"/>
<path d="M6.00806 8.0002C6.00806 8.52848 6.21792 9.03513 6.59147 9.40868C6.96502 9.78224 7.47167 9.9921 7.99995 9.9921C8.52824 9.9921 9.03489 9.78224 9.40844 9.40868C9.78199 9.03513 9.99185 8.52848 9.99185 8.0002C9.99185 7.47191 9.78199 6.96527 9.40844 6.59171C9.03489 6.21816 8.52824 6.0083 7.99995 6.0083C7.47167 6.0083 6.96502 6.21816 6.59147 6.59171C6.21792 6.96527 6.00806 7.47191 6.00806 8.0002Z" fill="#111111"/>
</g>
<defs>
<clipPath id="clip0_7709_137527">
<rect width="13.1328" height="14.4" fill="white" transform="translate(1.43359 0.800049)"/>
</clipPath>
</defs>
</svg>
