<svg width="16" height="16" viewBox="0 0 16 16" fill="none" xmlns="http://www.w3.org/2000/svg">
<path fill-rule="evenodd" clip-rule="evenodd" d="M13.0149 11.9329C14.4028 10.5418 15.2144 9.09313 15.2144 7.40664C15.2144 3.98333 12.0808 1.2085 8.21436 1.2085C4.34792 1.2085 1.21436 3.98333 1.21436 7.40664C1.21436 10.8291 4.44937 13.1795 8.31581 13.1795V14.3149C8.31581 14.6745 8.68914 14.9058 9.00567 14.7345C9.99337 14.1989 11.8243 13.1251 13.0149 11.9329ZM4.81296 6.57069C5.36566 6.57069 5.81365 7.01545 5.81365 7.56327C5.81365 8.11191 5.36566 8.55666 4.81296 8.55666C4.26108 8.55666 3.81389 8.11191 3.81389 7.56327C3.81389 7.01464 4.26189 6.57069 4.81296 6.57069ZM9.21343 7.56327C9.21343 7.01545 8.76625 6.57069 8.21355 6.57069C7.66086 6.57069 7.21367 7.01545 7.21367 7.56327C7.21367 8.11191 7.66167 8.55666 8.21355 8.55666C8.76543 8.55666 9.21343 8.11191 9.21343 7.56327ZM11.6141 6.57069C12.166 6.57069 12.6132 7.01545 12.6132 7.56327C12.6132 8.11191 12.1668 8.55666 11.6141 8.55666C11.0614 8.55666 10.6134 8.11191 10.6134 7.56327C10.6134 7.01464 11.0614 6.57069 11.6141 6.57069Z" fill="#111111"/>
</svg>
