<svg width="16" height="16" viewBox="0 0 16 16" fill="none" xmlns="http://www.w3.org/2000/svg">
<mask id="mask0_1169_27122" style="mask-type:luminance" maskUnits="userSpaceOnUse" x="1" y="1" width="14" height="14">
<path d="M15 1H1V15H15V1Z" fill="white"/>
</mask>
<g mask="url(#mask0_1169_27122)">
<path fill-rule="evenodd" clip-rule="evenodd" d="M9.16659 8.875C9.01189 8.875 8.86349 8.93643 8.75411 9.04586C8.64474 9.15523 8.58325 9.30363 8.58325 9.45833C8.58325 9.61303 8.64474 9.76137 8.75411 9.87081C8.86349 9.98018 9.01189 10.0417 9.16659 10.0417H13.8333C13.988 10.0417 14.1364 9.98018 14.2457 9.87081C14.3551 9.76137 14.4166 9.61303 14.4166 9.45833C14.4166 9.30363 14.3551 9.15523 14.2457 9.04586C14.1364 8.93643 13.988 8.875 13.8333 8.875H9.16659ZM8.58325 11.5C8.58325 11.3453 8.64474 11.1969 8.75411 11.0875C8.86349 10.9781 9.01189 10.9167 9.16659 10.9167H13.8333C13.988 10.9167 14.1364 10.9781 14.2457 11.0875C14.3551 11.1969 14.4166 11.3453 14.4166 11.5C14.4166 11.6547 14.3551 11.803 14.2457 11.9125C14.1364 12.0219 13.988 12.0833 13.8333 12.0833H9.16659C9.01189 12.0833 8.86349 12.0219 8.75411 11.9125C8.64474 11.803 8.58325 11.6547 8.58325 11.5ZM8.58325 13.5417C8.58325 13.387 8.64474 13.2386 8.75411 13.1292C8.86349 13.0198 9.01189 12.9583 9.16659 12.9583H13.8333C13.988 12.9583 14.1364 13.0198 14.2457 13.1292C14.3551 13.2386 14.4166 13.387 14.4166 13.5417C14.4166 13.6964 14.3551 13.8447 14.2457 13.9541C14.1364 14.0635 13.988 14.125 13.8333 14.125H9.16659C9.01189 14.125 8.86349 14.0635 8.75411 13.9541C8.64474 13.8447 8.58325 13.6964 8.58325 13.5417Z" fill="#111111"/>
<path fill-rule="evenodd" clip-rule="evenodd" d="M6.28558 1.53346C5.87783 1.48008 5.3015 1.4375 4.5 1.4375C3.6985 1.4375 3.12217 1.48008 2.71442 1.53346C1.98525 1.62854 1.51946 2.20838 1.47775 2.89758C1.455 3.268 1.4375 3.78542 1.4375 4.5C1.4375 5.21458 1.455 5.73229 1.47746 6.10242C1.51946 6.79163 1.98554 7.37147 2.71442 7.46655C3.12217 7.51993 3.6985 7.56251 4.5 7.56251C5.3015 7.56251 5.87783 7.51993 6.28558 7.46655C7.01475 7.37147 7.48054 6.79163 7.52225 6.10242C7.545 5.732 7.5625 5.21458 7.5625 4.5C7.5625 3.78542 7.545 3.26771 7.52254 2.89758C7.48054 2.20838 7.01446 1.62854 6.28558 1.53346ZM1.4375 11.5C1.4375 9.80864 2.80862 8.43751 4.5 8.43751C6.19137 8.43751 7.5625 9.80864 7.5625 11.5C7.5625 13.1914 6.19137 14.5625 4.5 14.5625C2.80862 14.5625 1.4375 13.1914 1.4375 11.5ZM10.5646 2.00625C10.6741 1.86327 10.815 1.74743 10.9765 1.66769C11.1379 1.58796 11.3155 1.54649 11.4956 1.54649C11.6757 1.54649 11.8533 1.58796 12.0148 1.66769C12.1763 1.74743 12.3172 1.86327 12.4266 2.00625C12.8617 2.56077 13.2571 3.14526 13.6099 3.75538C13.9618 4.36585 14.2702 5.00034 14.533 5.65413C14.6022 5.82045 14.632 6.00046 14.6203 6.1802C14.6086 6.35993 14.5557 6.53456 14.4657 6.69054C14.3756 6.84653 14.2508 6.97965 14.101 7.07963C13.9512 7.17961 13.7804 7.24372 13.6018 7.26705C13.068 7.34318 12.3365 7.41668 11.4959 7.41668C10.7913 7.41615 10.0876 7.36605 9.39008 7.26676C9.21147 7.24349 9.04067 7.17938 8.89087 7.07945C8.74101 6.97953 8.61623 6.84641 8.52617 6.69044C8.4361 6.53448 8.38319 6.35987 8.37147 6.18015C8.3598 6.00043 8.38967 5.82043 8.45879 5.65413C8.72152 5.00032 9.02999 4.36583 9.38192 3.75538C9.73466 3.14541 10.1299 2.56073 10.5646 2.00625Z" fill="#111111"/>
</g>
</svg>
