<svg width="16" height="16" viewBox="0 0 16 16" fill="none" xmlns="http://www.w3.org/2000/svg">
<path d="M8.79995 7.99998C8.79995 7.55816 8.44178 7.19998 7.99995 7.19998C7.55812 7.19998 7.19995 7.55816 7.19995 7.99998C7.19995 8.44181 7.55812 8.79998 7.99995 8.79998C8.44178 8.79998 8.79995 8.44181 8.79995 7.99998Z" fill="#111111"/>
<path d="M8.79995 3.73332C8.79995 3.29149 8.44178 2.93332 7.99995 2.93332C7.55812 2.93332 7.19995 3.29149 7.19995 3.73332C7.19995 4.17515 7.55812 4.53332 7.99995 4.53332C8.44178 4.53332 8.79995 4.17515 8.79995 3.73332Z" fill="#111111"/>
<path d="M8.79995 12.2667C8.79995 11.8248 8.44178 11.4667 7.99995 11.4667C7.55812 11.4667 7.19995 11.8248 7.19995 12.2667C7.19995 12.7085 7.55812 13.0667 7.99995 13.0667C8.44178 13.0667 8.79995 12.7085 8.79995 12.2667Z" fill="#111111"/>
</svg>
