<svg width="16" height="16" viewBox="0 0 16 16" fill="none" xmlns="http://www.w3.org/2000/svg">
<path d="M8.23395 3.43738C8.15903 3.43836 8.08504 3.45409 8.01621 3.48369C7.94737 3.51329 7.88505 3.55617 7.83281 3.60988C7.78057 3.66359 7.73942 3.72707 7.71173 3.79669C7.68405 3.86631 7.67036 3.94071 7.67145 4.01563V4.37488C7.67036 4.4498 7.68405 4.52419 7.71173 4.59382C7.73942 4.66344 7.78057 4.72692 7.83281 4.78062C7.88505 4.83433 7.94737 4.87721 8.01621 4.90681C8.08504 4.93641 8.15903 4.95215 8.23395 4.95313C8.54445 4.95313 8.79645 4.69363 8.79645 4.37488V4.01563C8.79754 3.94071 8.78385 3.86631 8.75616 3.79669C8.72847 3.72707 8.68733 3.66359 8.63508 3.60988C8.58284 3.55617 8.52052 3.51329 8.45169 3.48369C8.38286 3.45409 8.30887 3.43836 8.23395 3.43738Z" fill="#111111"/>
<path d="M13.25 5.25113C13.25 5.22713 13.2395 5.20613 13.2365 5.18288C13.2484 5.09586 13.2403 5.00727 13.2126 4.92392C13.1849 4.84057 13.1384 4.76469 13.0767 4.70213L10.547 2.17313C10.4916 2.11773 10.4256 2.07415 10.3529 2.04501C10.2802 2.01588 10.2023 2.0018 10.124 2.00363C10.118 2.00363 10.1135 2.00063 10.1083 2.00063H9.65975L9.6575 1.99988L9.65225 2.00063H5.59775L5.5955 1.99988H2.57825L2.57 2.00138L2.5625 1.99988C2.43034 2.00205 2.30348 2.05216 2.2055 2.14088C2.19425 2.15138 2.1785 2.15663 2.168 2.16788C2.15525 2.17988 2.14925 2.19713 2.13875 2.21063C2.05144 2.30721 2.00214 2.4322 2 2.56238L2.0015 2.56988L2 2.57813V13.4216L2.0015 13.4314L2 13.4381C2 13.5791 2.05775 13.7036 2.14475 13.8011C2.153 13.8109 2.15825 13.8229 2.1665 13.8319C2.1815 13.8476 2.201 13.8551 2.2175 13.8686C2.31403 13.9507 2.43585 13.997 2.5625 13.9999L2.56925 13.9984L2.576 13.9999H12.674L12.6815 13.9984L12.6875 13.9999C12.8141 13.9972 12.9358 13.9506 13.0317 13.8679C13.0475 13.8544 13.0685 13.8469 13.0827 13.8311C13.0917 13.8221 13.097 13.8101 13.1045 13.8004C13.1954 13.7011 13.2466 13.5719 13.2485 13.4374L13.247 13.4299L13.2485 13.4209L13.25 5.25113ZM6.1565 3.12488H9.0935V5.39063H6.1565V3.12488ZM10.2897 12.8749H4.961V9.93338L5.69075 9.20363H9.55925L10.2897 9.93488V12.8749ZM12.125 12.8749H11.4148V9.74288C11.4148 9.73538 11.411 9.72788 11.4102 9.72188C11.413 9.64296 11.3995 9.56431 11.3705 9.49087C11.3414 9.41743 11.2975 9.35079 11.2415 9.29513L10.1967 8.25263C10.1415 8.19729 10.0756 8.15374 10.003 8.1246C9.93042 8.09547 9.85269 8.08136 9.7745 8.08313C9.76775 8.08313 9.76175 8.07938 9.7565 8.07938H5.501C5.4935 8.07938 5.48675 8.08313 5.47925 8.08388C5.40029 8.08115 5.32161 8.09465 5.24808 8.12355C5.17455 8.15244 5.10773 8.19612 5.05175 8.25188L4.00775 9.29513C3.95217 9.35154 3.90862 9.41865 3.87974 9.49239C3.85086 9.56613 3.83726 9.64497 3.83975 9.72413C3.83975 9.73013 3.836 9.73613 3.836 9.74288V12.8749H3.125V3.12488H5.0315V5.93738L5.033 5.94563L5.0315 5.95313C5.0315 6.08963 5.08775 6.21038 5.17175 6.30788C5.1815 6.32063 5.1875 6.33638 5.1995 6.34763C5.2115 6.35963 5.2265 6.36488 5.23925 6.37538C5.33706 6.46331 5.46325 6.5131 5.59475 6.51563L5.603 6.51413L5.60975 6.51563H9.6395L9.6485 6.51413L9.65675 6.51563C9.78832 6.51343 9.91462 6.4636 10.0122 6.37538C10.0258 6.36488 10.04 6.35963 10.052 6.34763C10.0648 6.33638 10.0693 6.31988 10.0798 6.30788C10.1678 6.21041 10.2179 6.08448 10.2207 5.95313L10.2192 5.94563L10.2207 5.93738V3.43538L12.125 5.34113V12.8749Z" fill="#111111"/>
</svg>
