<svg width="16" height="16" viewBox="0 0 16 16" fill="none" xmlns="http://www.w3.org/2000/svg">
<path d="M13.4004 3.65527C13.4004 3.07251 12.9275 2.59961 12.3447 2.59961H3.65527C3.07252 2.59961 2.59961 3.07252 2.59961 3.65527V9.8623C2.59974 10.445 3.07259 10.917 3.65527 10.917H5.82715C6.00017 10.917 6.16536 10.9919 6.2793 11.1221L8 13.0879L9.7207 11.1221C9.83464 10.9919 9.99983 10.917 10.1729 10.917H12.3447C12.9274 10.917 13.4003 10.445 13.4004 9.8623V3.65527ZM14.5996 9.8623C14.5995 11.1077 13.5902 12.1172 12.3447 12.1172H10.4443L8.45117 14.3955C8.33725 14.5255 8.17283 14.5996 8 14.5996C7.82717 14.5996 7.66275 14.5255 7.54883 14.3955L5.55566 12.1172H3.65527C2.40986 12.1172 1.40052 11.1077 1.40039 9.8623V3.65527C1.40039 2.40978 2.40978 1.40039 3.65527 1.40039H12.3447C13.5903 1.40039 14.5996 2.40978 14.5996 3.65527V9.8623Z" fill="#111111"/>
<path d="M5.51758 6.98608C5.41471 6.98608 5.33105 7.06976 5.33105 7.17261L5.3457 7.24487C5.37397 7.31169 5.44044 7.35815 5.51758 7.35815C5.59454 7.35805 5.6602 7.31153 5.68848 7.24487L5.70312 7.17261L5.68848 7.10034C5.66967 7.05567 5.63448 7.01962 5.58984 7.00073L5.51758 6.98608ZM6.53125 7.17261C6.5311 7.73223 6.0773 8.18613 5.51758 8.18628C4.99269 8.18628 4.56077 7.78722 4.50879 7.27612L4.50391 7.17261L4.50879 7.06909C4.56052 6.55774 4.99251 6.15894 5.51758 6.15894L5.62109 6.16382C6.13226 6.2158 6.53125 6.6478 6.53125 7.17261Z" fill="#111111"/>
<path d="M8.00024 6.98608C7.89737 6.98608 7.81372 7.06973 7.81372 7.17261L7.82837 7.24487C7.85663 7.3117 7.9231 7.35815 8.00024 7.35815C8.07721 7.35805 8.14287 7.31154 8.17114 7.24487L8.18579 7.17261L8.17114 7.09937C8.15225 7.05507 8.11687 7.0195 8.07251 7.00073L8.00024 6.98608ZM9.01392 7.17261C9.01377 7.73226 8.5599 8.18613 8.00024 8.18628C7.47542 8.18628 7.04344 7.78724 6.99146 7.27612L6.98657 7.17261L6.99146 7.06909C7.04319 6.55772 7.47523 6.15894 8.00024 6.15894L8.10376 6.16382C8.61488 6.2158 9.01392 6.64778 9.01392 7.17261Z" fill="#111111"/>
<path d="M10.4829 6.98608C10.38 6.98608 10.2964 7.06973 10.2964 7.17261L10.311 7.24487C10.3393 7.3117 10.4058 7.35815 10.4829 7.35815C10.5599 7.35805 10.6255 7.31154 10.6538 7.24487L10.6685 7.17261L10.6538 7.09937C10.6349 7.05507 10.5995 7.0195 10.5552 7.00073L10.4829 6.98608ZM11.4966 7.17261C11.4964 7.73226 11.0426 8.18613 10.4829 8.18628C9.95808 8.18628 9.52611 7.78724 9.47412 7.27612L9.46924 7.17261L9.47412 7.06909C9.52586 6.55772 9.9579 6.15894 10.4829 6.15894L10.5864 6.16382C11.0975 6.2158 11.4966 6.64778 11.4966 7.17261Z" fill="#111111"/>
</svg>
