<svg width="16" height="16" viewBox="0 0 16 16" fill="none" xmlns="http://www.w3.org/2000/svg">
<path d="M13.6779 4.49419C13.9574 4.31617 14.328 4.39832 14.506 4.67778C14.6841 4.95726 14.6019 5.32787 14.3225 5.50591L8.92792 8.94243C8.92114 8.94675 8.91436 8.95109 8.90742 8.95513C8.63289 9.11458 8.32059 9.19825 8.00312 9.19829C7.68557 9.19829 7.37342 9.11462 7.09882 8.95513C7.09187 8.95109 7.0851 8.94674 7.07831 8.94243L1.67792 5.50591C1.39857 5.32794 1.31649 4.95726 1.49433 4.67778C1.67229 4.39843 2.04297 4.31635 2.32246 4.49419L7.70331 7.91802C7.79446 7.97058 7.89788 7.9981 8.00312 7.9981C8.10785 7.99806 8.21017 7.97013 8.30097 7.91802L13.6779 4.49419Z" fill="#111111"/>
<path d="M13.4004 4.40039C13.4004 4.06902 13.1312 3.7998 12.7998 3.7998H3.2002C2.86882 3.7998 2.59961 4.06902 2.59961 4.40039V11.6006C2.59982 11.9318 2.86895 12.2002 3.2002 12.2002H12.7998C13.131 12.2002 13.4002 11.9318 13.4004 11.6006V4.40039ZM14.5996 11.6006C14.5994 12.5945 13.7938 13.4004 12.7998 13.4004H3.2002C2.20621 13.4004 1.4006 12.5945 1.40039 11.6006V4.40039C1.40039 3.40628 2.20608 2.60059 3.2002 2.60059H12.7998C13.7939 2.60059 14.5996 3.40628 14.5996 4.40039V11.6006Z" fill="#111111"/>
</svg>
