<svg width="16" height="16" viewBox="0 0 16 16" fill="none" xmlns="http://www.w3.org/2000/svg">
<path d="M12.8967 3.44259H3.10312V12.1312C3.10312 12.7412 3.59733 13.2362 4.20737 13.2362H11.7917C12.4017 13.2362 12.8967 12.7412 12.8967 12.1312V3.44259ZM13.9602 12.1312C13.9602 13.3287 12.9892 14.2997 11.7917 14.2997H4.20737C3.00989 14.2997 2.03882 13.3287 2.03882 12.1312V2.91044L2.05 2.80338C2.09956 2.56098 2.31393 2.3783 2.57097 2.3783H13.4281L13.536 2.38948C13.7781 2.43923 13.9602 2.65358 13.9602 2.91044V12.1312Z" fill="#111111"/>
<path d="M13.4281 5.09259L13.536 5.10378C13.7781 5.15352 13.9602 5.36787 13.9602 5.62474C13.9602 5.88161 13.7781 6.09596 13.536 6.1457L13.4281 6.15689H2.57097C2.27725 6.15689 2.03882 5.91846 2.03882 5.62474C2.03882 5.33102 2.27725 5.09259 2.57097 5.09259H13.4281ZM7.99961 7.8069L8.10667 7.81808C8.3491 7.86761 8.53176 8.08199 8.53176 8.33905C8.53176 8.59611 8.3491 8.81049 8.10667 8.86001L7.99961 8.8712H5.28532C4.9916 8.8712 4.75317 8.63277 4.75317 8.33905C4.75317 8.04533 4.9916 7.8069 5.28532 7.8069H7.99961ZM10.1819 3.5894V2.23186C10.1819 1.93813 10.4203 1.69971 10.714 1.69971C11.0078 1.69971 11.2462 1.93813 11.2462 2.23186V3.5894C11.246 3.88295 11.0076 4.12075 10.714 4.12075C10.4205 4.12075 10.1821 3.88295 10.1819 3.5894ZM4.75317 3.5894V2.23186C4.75317 1.93813 4.9916 1.69971 5.28532 1.69971C5.57905 1.69971 5.81747 1.93813 5.81747 2.23186V3.5894C5.81727 3.88295 5.57892 4.12075 5.28532 4.12075C4.99172 4.12075 4.75337 3.88295 4.75317 3.5894Z" fill="#111111"/>
</svg>
