<svg width="16" height="16" viewBox="0 0 16 16" fill="none" xmlns="http://www.w3.org/2000/svg">
<path d="M13.4004 5.75C13.4004 5.66737 13.3326 5.59961 13.25 5.59961H11.5996V12C11.5996 12.2387 11.6945 12.4679 11.8633 12.6367C12.0321 12.8055 12.2613 12.9004 12.5 12.9004C12.7387 12.9004 12.9679 12.8055 13.1367 12.6367C13.3055 12.4679 13.4004 12.2387 13.4004 12V5.75ZM9 10.4004C9.33137 10.4004 9.59961 10.6686 9.59961 11C9.59961 11.3314 9.33137 11.5996 9 11.5996H4C3.66863 11.5996 3.40039 11.3314 3.40039 11C3.40039 10.6686 3.66863 10.4004 4 10.4004H9ZM9 8.40039C9.33137 8.40039 9.59961 8.66863 9.59961 9C9.59961 9.33137 9.33137 9.59961 9 9.59961H4C3.66863 9.59961 3.40039 9.33137 3.40039 9C3.40039 8.66863 3.66863 8.40039 4 8.40039H9ZM6 4.40039C6.33137 4.40039 6.59961 4.66863 6.59961 5V7C6.59961 7.33137 6.33137 7.59961 6 7.59961H4C3.66863 7.59961 3.40039 7.33137 3.40039 7V5C3.40039 4.66863 3.66863 4.40039 4 4.40039H6ZM9 6.40039C9.33137 6.40039 9.59961 6.66863 9.59961 7C9.59961 7.33137 9.33137 7.59961 9 7.59961H8C7.66863 7.59961 7.40039 7.33137 7.40039 7C7.40039 6.66863 7.66863 6.40039 8 6.40039H9ZM4.59961 6.40039H5.40039V5.59961H4.59961V6.40039ZM9 4.40039C9.33137 4.40039 9.59961 4.66863 9.59961 5C9.59961 5.33137 9.33137 5.59961 9 5.59961H8C7.66863 5.59961 7.40039 5.33137 7.40039 5C7.40039 4.66863 7.66863 4.40039 8 4.40039H9ZM10.4004 3.25C10.4004 3.16737 10.3326 3.09961 10.25 3.09961H2.75C2.66737 3.09961 2.59961 3.16737 2.59961 3.25V12C2.59961 12.2387 2.6945 12.4679 2.86328 12.6367C3.03206 12.8055 3.26131 12.9004 3.5 12.9004H10.6055C10.4729 12.6214 10.4004 12.3148 10.4004 12V3.25ZM11.5996 4.40039H13.25C13.9954 4.40039 14.5996 5.00463 14.5996 5.75V12C14.5996 12.557 14.3792 13.0915 13.9854 13.4854C13.5915 13.8792 13.057 14.0996 12.5 14.0996H3.5C2.94305 14.0996 2.40847 13.8792 2.01465 13.4854C1.62082 13.0915 1.40039 12.557 1.40039 12V3.25C1.40039 2.50463 2.00463 1.90039 2.75 1.90039H10.25C10.9954 1.90039 11.5996 2.50463 11.5996 3.25V4.40039Z" fill="#111111"/>
</svg>
