<svg width="16" height="16" viewBox="0 0 16 16" fill="none" xmlns="http://www.w3.org/2000/svg">
<path d="M3.97822 6.97168C4.21254 6.73737 4.59254 6.73737 4.82686 6.97168C5.06116 7.20599 5.06117 7.586 4.82686 7.82031L4.05244 8.59473H8.59932C8.93069 8.59473 9.1999 8.86297 9.1999 9.19434C9.1999 9.5257 8.93068 9.79395 8.59932 9.79395H4.05244L4.82686 10.5684C5.06117 10.8027 5.06117 11.1827 4.82686 11.417C4.59254 11.6513 4.21254 11.6513 3.97822 11.417L2.18037 9.61816C1.94606 9.38385 1.94606 9.00482 2.18037 8.77051L3.97822 6.97168ZM3.20283 4.99805V3.19922C3.20283 2.72208 3.39278 2.26415 3.73018 1.92676C4.06756 1.58941 4.52554 1.40039 5.00264 1.40039H10.3981L10.5153 1.41211C10.6307 1.43514 10.7375 1.49173 10.822 1.57617L13.82 4.57324C13.9325 4.68576 13.9958 4.83892 13.9958 4.99805V12.791C13.9958 13.2681 13.8059 13.7261 13.4685 14.0635C13.1311 14.4007 12.6739 14.5907 12.197 14.5908L5.06611 14.5898C4.72749 14.6241 4.3858 14.5627 4.08076 14.4102C3.76029 14.2499 3.49426 13.9976 3.31807 13.6855C3.15531 13.3971 3.25741 13.0312 3.54561 12.8682C3.83416 12.7052 4.20105 12.8071 4.36397 13.0957C4.42258 13.1993 4.51037 13.2836 4.6169 13.3369C4.72361 13.3903 4.84432 13.41 4.9626 13.3945L5.03975 13.3896L12.197 13.3906C12.3557 13.3905 12.5076 13.3271 12.6198 13.2148C12.7322 13.1025 12.7956 12.9499 12.7956 12.791V6.19727H10.9978C10.5206 6.19727 10.0627 6.0073 9.72529 5.66992C9.3881 5.33262 9.19901 4.87533 9.19893 4.39844V2.59961H5.00264C4.84379 2.59961 4.69114 2.6631 4.57881 2.77539C4.46647 2.88773 4.40303 3.04034 4.40303 3.19922V4.99805C4.40281 5.32917 4.13458 5.59757 3.80342 5.59766C3.47218 5.59766 3.20305 5.32923 3.20283 4.99805ZM10.3981 4.39844C10.3982 4.5571 10.4618 4.70906 10.5739 4.82129C10.6863 4.93366 10.8389 4.99707 10.9978 4.99707H12.5466L10.3981 2.84863V4.39844Z" fill="#111111"/>
</svg>
