<svg width="16" height="16" viewBox="0 0 16 16" fill="none" xmlns="http://www.w3.org/2000/svg">
<path d="M2.40039 13.75V2.25C2.40039 1.50463 3.00463 0.900391 3.75 0.900391H7C8.75043 0.900391 10.4293 1.59527 11.667 2.83301C12.9047 4.07075 13.5996 5.74957 13.5996 7.5V13.75C13.5996 14.4954 12.9954 15.0996 12.25 15.0996H3.75C3.00463 15.0996 2.40039 14.4954 2.40039 13.75ZM8 11.4004C8.33137 11.4004 8.59961 11.6686 8.59961 12C8.59961 12.3314 8.33137 12.5996 8 12.5996H5.5C5.16863 12.5996 4.90039 12.3314 4.90039 12C4.90039 11.6686 5.16863 11.4004 5.5 11.4004H8ZM10.5 9.40039C10.8314 9.40039 11.0996 9.66863 11.0996 10C11.0996 10.3314 10.8314 10.5996 10.5 10.5996H5.5C5.16863 10.5996 4.90039 10.3314 4.90039 10C4.90039 9.66863 5.16863 9.40039 5.5 9.40039H10.5ZM9.59961 4.75C9.59961 4.78978 9.61542 4.82831 9.64355 4.85645C9.67169 4.88458 9.71022 4.90039 9.75 4.90039H10.75C11.1295 4.90039 11.501 4.97612 11.8447 5.11914C11.5857 4.59193 11.2416 4.10487 10.8184 3.68164C10.3948 3.2581 9.90755 2.91344 9.37988 2.6543C9.52322 2.99834 9.59961 3.37007 9.59961 3.75V4.75ZM3.59961 13.75C3.59961 13.8326 3.66737 13.9004 3.75 13.9004H12.25C12.3326 13.9004 12.4004 13.8326 12.4004 13.75V7.75L12.3916 7.58691C12.3541 7.2092 12.1877 6.85375 11.917 6.58301C11.6076 6.27357 11.1876 6.09961 10.75 6.09961H9.75C9.39196 6.09961 9.0481 5.95825 8.79492 5.70508C8.54175 5.4519 8.40039 5.10804 8.40039 4.75V3.75C8.40039 3.31239 8.22643 2.89244 7.91699 2.58301C7.60756 2.27357 7.18761 2.09961 6.75 2.09961H3.75C3.66737 2.09961 3.59961 2.16737 3.59961 2.25V13.75Z" fill="#111111"/>
</svg>
