<svg width="16" height="16" viewBox="0 0 16 16" fill="none" xmlns="http://www.w3.org/2000/svg">
<path d="M6.57874 12.4001C6.42291 12.4001 6.2923 12.347 6.18696 12.241C6.08147 12.135 6.02874 12.0036 6.02874 11.8468C6.02874 11.6901 6.08147 11.5598 6.18696 11.4559C6.2923 11.3521 6.42291 11.3001 6.57874 11.3001H9.41207C9.56791 11.3001 9.69855 11.3532 9.80404 11.4592C9.90938 11.5652 9.96207 11.6966 9.96207 11.8534C9.96207 12.0101 9.90938 12.1404 9.80404 12.2443C9.69855 12.3481 9.56791 12.4001 9.41207 12.4001H6.57874ZM4.1499 8.5501C3.99407 8.5501 3.86346 8.49704 3.75812 8.39096C3.65263 8.285 3.5999 8.15362 3.5999 7.9968C3.5999 7.84012 3.65263 7.70981 3.75812 7.60593C3.86346 7.50205 3.99407 7.4501 4.1499 7.4501H11.8499C12.0057 7.4501 12.1364 7.50315 12.2419 7.60923C12.3472 7.7152 12.3999 7.84657 12.3999 8.0034C12.3999 8.16007 12.3472 8.29039 12.2419 8.39426C12.1364 8.49814 12.0057 8.5501 11.8499 8.5501H4.1499ZM1.9499 4.7001C1.79407 4.7001 1.66347 4.64704 1.55812 4.54096C1.45264 4.435 1.3999 4.30362 1.3999 4.1468C1.3999 3.99012 1.45264 3.85981 1.55812 3.75593C1.66347 3.65205 1.79407 3.6001 1.9499 3.6001H14.0499C14.2057 3.6001 14.3364 3.65315 14.4419 3.75923C14.5472 3.8652 14.5999 3.99657 14.5999 4.1534C14.5999 4.31007 14.5472 4.44039 14.4419 4.54426C14.3364 4.64814 14.2057 4.7001 14.0499 4.7001H1.9499Z" fill="#111111"/>
<path d="M5.9292 11.8472C5.9292 11.6655 5.99091 11.5081 6.1167 11.3843C6.24177 11.2611 6.3982 11.1997 6.57861 11.1997H9.41162C9.59285 11.1997 9.7494 11.2634 9.87451 11.3892C9.99939 11.5148 10.0619 11.6714 10.062 11.853C10.062 12.0347 10.0001 12.1921 9.87451 12.3159C9.74927 12.4392 9.59217 12.5005 9.41162 12.5005H6.57861C6.39745 12.5005 6.24068 12.4369 6.11572 12.311C5.99095 12.1855 5.92928 12.0286 5.9292 11.8472ZM3.49951 7.99658C3.49956 7.81496 3.56225 7.65849 3.68799 7.53467C3.81311 7.41133 3.96937 7.3501 4.1499 7.3501H11.8501C12.0312 7.35014 12.1879 7.41282 12.313 7.53857C12.4379 7.66427 12.4995 7.82163 12.4995 8.00342C12.4995 8.18508 12.4376 8.34147 12.312 8.46533C12.1868 8.58862 12.0306 8.64986 11.8501 8.6499H4.1499C3.96868 8.6499 3.81199 8.58728 3.68701 8.46143C3.56198 8.33575 3.49951 8.17833 3.49951 7.99658ZM1.30029 4.14697C1.30029 3.96539 1.3622 3.80888 1.48779 3.68506C1.61289 3.56172 1.76922 3.50053 1.94971 3.50049H14.0503C14.2314 3.50058 14.3882 3.56325 14.5132 3.68896C14.6379 3.81461 14.6997 3.97216 14.6997 4.15381C14.6996 4.33532 14.6377 4.49195 14.5122 4.61572C14.387 4.73896 14.2307 4.8002 14.0503 4.80029H1.94971C1.76858 4.80025 1.61176 4.73761 1.48682 4.61182C1.36178 4.48617 1.30033 4.3287 1.30029 4.14697ZM6.12842 11.8472C6.1285 11.9788 6.17254 12.0843 6.2583 12.1704C6.34395 12.2566 6.4483 12.3003 6.57861 12.3003H9.41162C9.54264 12.3003 9.64819 12.2577 9.73389 12.1733C9.81896 12.0895 9.86182 11.9847 9.86182 11.853C9.86174 11.7214 9.81855 11.6159 9.73291 11.5298C9.64705 11.4435 9.54202 11.3999 9.41162 11.3999H6.57861C6.44768 11.3999 6.34281 11.4427 6.25732 11.5269C6.17214 11.6107 6.12842 11.7155 6.12842 11.8472ZM3.69971 7.99658C3.69971 8.1284 3.74277 8.23457 3.82861 8.3208C3.91432 8.4071 4.01946 8.44971 4.1499 8.44971H11.8501C11.9811 8.44966 12.0857 8.40711 12.1714 8.32275C12.2564 8.23887 12.3003 8.13507 12.3003 8.00342C12.3003 7.8718 12.2568 7.76633 12.1714 7.68018C12.0856 7.59387 11.9804 7.55034 11.8501 7.55029H4.1499C4.01884 7.55029 3.91415 7.59294 3.82861 7.67725C3.74347 7.76109 3.69975 7.86504 3.69971 7.99658ZM1.49951 4.14697C1.49955 4.27871 1.5436 4.38402 1.62939 4.47021C1.71507 4.55646 1.81936 4.60005 1.94971 4.6001H14.0503C14.1811 4.60001 14.286 4.55739 14.3716 4.47314C14.4566 4.38935 14.4994 4.28528 14.4995 4.15381C14.4995 4.02196 14.4563 3.91582 14.3706 3.82959C14.2849 3.7435 14.1804 3.69979 14.0503 3.69971H1.94971C1.81884 3.69975 1.71389 3.74252 1.62842 3.82666C1.54334 3.91052 1.49951 4.01542 1.49951 4.14697Z" fill="#111111"/>
</svg>
