<svg width="16" height="16" viewBox="0 0 16 16" fill="none" xmlns="http://www.w3.org/2000/svg">
<path fill-rule="evenodd" clip-rule="evenodd" d="M5.70671 3.81728L8.33871 1.96661C8.38869 1.9314 8.44738 1.91061 8.50838 1.90651C8.56938 1.90242 8.63033 1.91517 8.68457 1.94339C8.7388 1.97161 8.78423 2.0142 8.81588 2.06651C8.84754 2.11881 8.8642 2.17881 8.86404 2.23995V3.72661H10.6774V5.05995H6.12471C5.97137 5.06002 5.82274 5.00702 5.70404 4.90995C5.35871 4.66528 5.29738 4.10461 5.70604 3.81661L5.70671 3.81728ZM12.89 9.95928C12.7731 10.0919 12.7136 10.2655 12.7247 10.442C12.7357 10.6185 12.8164 10.7833 12.949 10.9003C13.0817 11.0172 13.2553 11.0767 13.4318 11.0657C13.6082 11.0546 13.7731 10.9739 13.89 10.8413C14.5809 10.0595 14.9615 9.05186 14.96 8.00861C14.9613 6.96527 14.5804 5.95759 13.8894 5.17595C13.4879 4.71997 12.9938 4.35484 12.44 4.10492C11.8863 3.855 11.2849 3.72603 10.6774 3.72661V5.05995C11.0959 5.05936 11.5104 5.14815 11.8919 5.32038C12.2734 5.4926 12.6137 5.74429 12.89 6.05861C13.3659 6.5966 13.628 7.29038 13.6267 8.00861C13.6282 8.72708 13.3661 9.42112 12.89 9.95928ZM3.11004 6.03928C3.16796 5.97362 3.21237 5.89719 3.24075 5.81437C3.26912 5.73154 3.28091 5.64394 3.27543 5.55656C3.26995 5.46918 3.24732 5.38373 3.20882 5.3051C3.17032 5.22647 3.1167 5.15619 3.05104 5.09828C2.98538 5.04037 2.90896 4.99595 2.82613 4.96758C2.74331 4.9392 2.6557 4.92741 2.56832 4.93289C2.48094 4.93837 2.3955 4.96101 2.31687 4.99951C2.23824 5.03801 2.16796 5.09162 2.11004 5.15728C1.41921 5.93902 1.03858 6.94669 1.04004 7.98995C1.04004 9.07528 1.44471 10.0679 2.11071 10.8233C2.5122 11.2793 3.0063 11.6444 3.56006 11.8943C4.11382 12.1442 4.7145 12.2732 5.32204 12.2726V10.9393C4.9035 10.9399 4.48965 10.8511 4.10818 10.6788C3.72672 10.5066 3.38642 10.2549 3.11004 9.94061C2.63404 9.40246 2.37193 8.70841 2.37338 7.98995C2.37338 7.24128 2.65071 6.55995 3.11004 6.03928ZM5.32204 12.2726H6.92471V13.7606C6.92468 13.8217 6.94143 13.8816 6.97313 13.9338C7.00483 13.986 7.05027 14.0285 7.10448 14.0567C7.1587 14.0848 7.2196 14.0975 7.28054 14.0934C7.34148 14.0892 7.40011 14.0685 7.45004 14.0333L10.0914 12.1766C10.1066 12.1663 10.1213 12.1551 10.1354 12.1433C10.249 12.0604 10.3335 11.9436 10.3766 11.8098C10.4198 11.6759 10.4195 11.5318 10.3758 11.3981C10.332 11.2645 10.2471 11.1481 10.1331 11.0656C10.0192 10.9832 9.88203 10.939 9.74138 10.9393H5.32204V12.2726Z" fill="#111111"/>
</svg>
