<svg width="16" height="16" viewBox="0 0 16 16" fill="none" xmlns="http://www.w3.org/2000/svg">
<path fill-rule="evenodd" clip-rule="evenodd" d="M8.00008 2.66671C7.26368 2.66671 6.66675 3.26366 6.66675 4.00004H9.33342C9.33342 3.26366 8.73648 2.66671 8.00008 2.66671ZM5.69017 2.66671C6.15125 1.86964 7.01301 1.33337 8.00008 1.33337C8.98715 1.33337 9.84895 1.86964 10.31 2.66671H11.3334C12.438 2.66671 13.3334 3.56214 13.3334 4.66671V12.6667C13.3334 13.7713 12.438 14.6667 11.3334 14.6667H4.66675C3.56218 14.6667 2.66675 13.7713 2.66675 12.6667V4.66671C2.66675 3.56214 3.56218 2.66671 4.66675 2.66671H5.69017ZM5.33341 4.00004H4.66675C4.29856 4.00004 4.00008 4.29852 4.00008 4.66671V12.6667C4.00008 13.0349 4.29856 13.3334 4.66675 13.3334H11.3334C11.7016 13.3334 12.0001 13.0349 12.0001 12.6667V4.66671C12.0001 4.29852 11.7016 4.00004 11.3334 4.00004H10.6667C10.6667 4.73642 10.0698 5.33337 9.33342 5.33337H6.66675C5.93037 5.33337 5.33341 4.73642 5.33341 4.00004Z" fill="#111111"/>
</svg>
