<svg width="16" height="16" viewBox="0 0 16 16" fill="none" xmlns="http://www.w3.org/2000/svg">
<path d="M1.40039 12.667V3.33301C1.40048 2.82037 1.60333 2.32831 1.96582 1.96582C2.32831 1.60333 2.82037 1.40048 3.33301 1.40039H6C6.33137 1.40039 6.59961 1.66863 6.59961 2C6.59961 2.33137 6.33137 2.59961 6 2.59961H3.33301C3.13863 2.5997 2.9519 2.677 2.81445 2.81445C2.677 2.9519 2.5997 3.13863 2.59961 3.33301V12.667C2.5997 12.8614 2.677 13.0481 2.81445 13.1855C2.9519 13.323 3.13863 13.4003 3.33301 13.4004H6C6.33137 13.4004 6.59961 13.6686 6.59961 14C6.59961 14.3314 6.33137 14.5996 6 14.5996H3.33301C2.82037 14.5995 2.32831 14.3967 1.96582 14.0342C1.60333 13.6717 1.40048 13.1796 1.40039 12.667ZM10.2422 4.24219C10.4764 4.00793 10.8565 4.00804 11.0908 4.24219L14.4238 7.57617C14.6581 7.81049 14.6581 8.18951 14.4238 8.42383L11.0908 11.7578C10.8565 11.992 10.4764 11.9921 10.2422 11.7578C10.0079 11.5236 10.008 11.1435 10.2422 10.9092L12.5527 8.59961H6C5.66863 8.59961 5.40039 8.33137 5.40039 8C5.40039 7.66863 5.66863 7.40039 6 7.40039H12.5527L10.2422 5.09082C10.008 4.85649 10.0079 4.47645 10.2422 4.24219Z" fill="#111111"/>
</svg>
