<svg width="16" height="16" viewBox="0 0 16 16" fill="none" xmlns="http://www.w3.org/2000/svg">
<path d="M13.3057 10.9551L12.8921 11.3601C12.8921 11.3601 12.8921 9.74012 11.5137 9.19995C11.5137 9.19995 11.3757 10.6847 10.6865 11.2249C9.99792 11.7651 8.61958 13.385 11.3762 14.6C11.3762 14.6 9.99792 13.1152 11.7899 12.0349C11.7899 12.0349 11.6518 12.575 12.341 13.1146C13.0301 13.6548 12.341 14.5994 12.341 14.5994C12.341 14.5994 15.6493 13.79 13.3057 10.9551Z" fill="#111111"/>
<path d="M10.0457 4.68945C10.0455 3.53546 9.10983 2.59961 7.95581 2.59961C6.80188 2.59972 5.86607 3.53553 5.86597 4.68945C5.86597 5.84347 6.80182 6.77919 7.95581 6.7793C9.10989 6.7793 10.0457 5.84353 10.0457 4.68945ZM11.2458 4.68945C11.2458 6.50628 9.77263 7.97949 7.95581 7.97949C6.13908 7.97939 4.66675 6.50621 4.66675 4.68945C4.66685 2.87279 6.13914 1.4005 7.95581 1.40039C9.77257 1.40039 11.2457 2.87272 11.2458 4.68945Z" fill="#111111"/>
<path d="M8.16334 9.05566C8.49453 9.05589 8.76295 9.32404 8.76295 9.65527C8.76295 9.98651 8.49453 10.2547 8.16334 10.2549C5.05587 10.2549 3.69838 11.57 3.08522 12.6055C2.96653 12.806 2.99675 12.9684 3.09889 13.1035C3.21748 13.2602 3.45953 13.4004 3.77662 13.4004H8.16334C8.49449 13.4006 8.7629 13.6688 8.76295 14C8.76295 14.3312 8.49453 14.5994 8.16334 14.5996H3.77662C3.11799 14.5996 2.50728 14.3103 2.14186 13.8271C1.76013 13.3221 1.67444 12.6335 2.05299 11.9941C2.88251 10.5932 4.63251 9.05566 8.16334 9.05566Z" fill="#111111"/>
</svg>
