<svg width="16" height="16" viewBox="0 0 16 16" fill="none" xmlns="http://www.w3.org/2000/svg">
<path d="M9.95557 4.85474C9.95531 3.77515 9.07916 2.89966 7.99951 2.89966C6.92008 2.89992 6.04469 3.77531 6.04443 4.85474C6.04443 5.93439 6.91992 6.81053 7.99951 6.81079C9.07932 6.81079 9.95557 5.93455 9.95557 4.85474ZM11.1548 4.85474C11.1548 6.59729 9.74206 8.01001 7.99951 8.01001C6.25718 8.00975 4.84521 6.59713 4.84521 4.85474C4.84547 3.11257 6.25734 1.7007 7.99951 1.70044C9.7419 1.70044 11.1545 3.11241 11.1548 4.85474Z" fill="#111111"/>
<path d="M8.00009 8.9729C9.68819 8.97291 10.9493 9.34159 11.8858 9.90063C12.8229 10.46 13.4006 11.1884 13.752 11.8538C14.0793 12.4735 13.9712 13.1213 13.5987 13.5891C13.2421 14.0366 12.6655 14.3 12.0509 14.3H3.94931C3.33448 14.3 2.75707 14.0368 2.40048 13.5891C2.02798 13.1213 1.9208 12.4735 2.24814 11.8538C2.59957 11.1884 3.17734 10.46 4.11435 9.90063C5.05093 9.34162 6.31203 8.9729 8.00009 8.9729ZM8.00009 10.1721C6.48999 10.1721 5.44876 10.501 4.72861 10.9309C4.00922 11.3604 3.57492 11.9121 3.30966 12.4143C3.21774 12.5884 3.24703 12.7244 3.33994 12.8411C3.44881 12.9777 3.66654 13.0999 3.94931 13.0999H12.0509C12.3337 13.0999 12.5514 12.9777 12.6602 12.8411C12.7532 12.7244 12.7824 12.5883 12.6905 12.4143C12.4252 11.912 11.9902 11.3605 11.2706 10.9309C10.5505 10.5011 9.50998 10.1721 8.00009 10.1721Z" fill="#111111"/>
</svg>
