<svg width="16" height="16" viewBox="0 0 16 16" fill="none" xmlns="http://www.w3.org/2000/svg">
<path d="M10.9378 2.779H4.33122C4.80963 2.18219 5.54477 1.80005 6.36919 1.80005H10.9378C12.8957 1.80005 14.201 3.10531 14.2008 5.06321V9.63164C14.2008 10.4559 13.8187 11.191 13.2221 11.6694L13.2218 5.06321C13.2218 3.75795 12.2431 2.779 10.9378 2.779Z" fill="#111111"/>
<path d="M5.06223 8.00007C5.6029 8.00007 6.04118 7.56174 6.04118 7.02112C6.04118 6.48045 5.6029 6.04217 5.06223 6.04217C4.52157 6.04217 4.08328 6.48045 4.08328 7.02112C4.08328 7.56174 4.52157 8.00007 5.06223 8.00007Z" fill="#111111"/>
<path fill-rule="evenodd" clip-rule="evenodd" d="M1.79907 6.36846C1.79907 4.92672 2.96785 3.75795 4.4096 3.75795H9.63065C11.0724 3.75795 12.2412 4.92672 12.2412 6.36846V11.5895C12.2412 13.0313 11.0724 14.2 9.63065 14.2H4.4096C2.96785 14.2 1.79907 13.0313 1.79907 11.5895V6.36846ZM4.4096 4.7369H9.63065C10.5318 4.7369 11.2623 5.46738 11.2623 6.36846V9.1287L10.7052 8.57173C10.3889 8.25533 10.1232 7.98964 9.88503 7.79904C9.63447 7.59855 9.36912 7.44285 9.04495 7.39674C8.88484 7.37393 8.72228 7.37393 8.56218 7.39674C8.238 7.44285 7.97265 7.59855 7.72209 7.79904C7.48391 7.98964 7.21823 8.25533 6.90188 8.57168L3.0233 12.4503C2.86783 12.2004 2.77802 11.9055 2.77802 11.5895V6.36846C2.77802 5.46738 3.50851 4.7369 4.4096 4.7369ZM10.0323 9.28318L11.2623 10.5131V11.5895C11.2623 12.4907 10.5318 13.2211 9.63065 13.2211H4.4096C4.1818 13.2211 3.9649 13.1745 3.76795 13.0901L7.57486 9.28318C7.91553 8.9425 8.14299 8.71602 8.33374 8.56341C8.517 8.41676 8.62008 8.37731 8.70011 8.3659C8.76873 8.35616 8.83839 8.35616 8.90701 8.3659C8.98704 8.37731 9.09012 8.41676 9.27338 8.56341C9.46413 8.71602 9.69159 8.9425 10.0323 9.28318Z" fill="#111111"/>
</svg>
