<svg width="16" height="16" viewBox="0 0 16 16" fill="none" xmlns="http://www.w3.org/2000/svg">
<path d="M13.8435 5.8589C13.8434 5.78425 13.7827 5.7234 13.708 5.7234H2.29103C2.21648 5.72356 2.15569 5.78435 2.15553 5.8589V7.28638C2.15556 7.36105 2.2164 7.42172 2.29103 7.42188H13.708C13.7828 7.42188 13.8435 7.36115 13.8435 7.28638V5.8589ZM15 7.28638C15 7.99974 14.4214 8.57836 13.708 8.57836H2.29103C1.5778 8.5782 1.00003 7.99965 1 7.28638V5.8589C1.00016 5.14575 1.57788 4.56803 2.29103 4.56787H13.708C14.4213 4.56787 14.9998 5.14565 15 5.8589V7.28638Z" fill="#111111"/>
<path d="M7.42212 14.4219V5.14564C7.42212 4.82634 7.68059 4.56787 7.99988 4.56787C8.31918 4.56787 8.57765 4.82634 8.57765 5.14564V14.4219C8.57765 14.7412 8.31918 14.9997 7.99988 14.9997C7.68059 14.9997 7.42212 14.7412 7.42212 14.4219Z" fill="#111111"/>
<path d="M2.427 12.9946V7.99989C2.427 7.68059 2.68547 7.42212 3.00477 7.42212C3.32407 7.42212 3.58253 7.68059 3.58253 7.99989V12.9946C3.58253 13.2198 3.67268 13.4358 3.8319 13.595C3.9911 13.7542 4.20712 13.8434 4.43224 13.8434H11.5677C11.7928 13.8434 12.0089 13.7542 12.1681 13.595C12.3272 13.4358 12.4165 13.2197 12.4165 12.9946V7.99989C12.4165 7.68071 12.6752 7.42232 12.9943 7.42212C13.3136 7.42212 13.573 7.68059 13.573 7.99989V12.9946C13.573 13.5264 13.3617 14.0367 12.9858 14.4127C12.6098 14.7887 12.0995 14.9998 11.5677 14.9999H4.43224C3.90045 14.9999 3.39023 14.7887 3.01418 14.4127C2.63812 14.0366 2.427 13.5265 2.427 12.9946Z" fill="#111111"/>
<path d="M12.4165 3.36188C12.4165 3.04219 12.2897 2.73543 12.0636 2.50934C11.8376 2.28331 11.5308 2.15657 11.2111 2.15647H11.2008C10.7194 2.14809 10.1949 2.37856 9.70459 2.92338C9.21137 3.47146 8.80292 4.28674 8.56129 5.28243C8.49829 5.54156 8.26622 5.72375 7.99953 5.72375C7.73288 5.72367 7.50071 5.54154 7.43776 5.28243C7.19611 4.28665 6.78773 3.47146 6.29446 2.92338C5.80413 2.37858 5.27965 2.14809 4.79829 2.15647H4.78888C4.46916 2.15647 4.16245 2.28332 3.93634 2.50934C3.71025 2.73544 3.58256 3.04213 3.58253 3.36188C3.58253 3.68167 3.71022 3.98829 3.93634 4.21441C4.16246 4.44051 4.46911 4.56728 4.78888 4.56728C5.10808 4.56739 5.36664 4.82676 5.36664 5.14599C5.36659 5.46518 5.10805 5.72364 4.78888 5.72375C4.16245 5.72375 3.56159 5.47507 3.11863 5.03213C2.67566 4.58916 2.427 3.98833 2.427 3.36188C2.42703 2.73546 2.67568 2.13457 3.11863 1.69163C3.55919 1.25115 4.15581 1.00361 4.77853 1.00094C4.78101 1.0009 4.78358 1.00098 4.78606 1.00094L4.78888 1V1.00094C5.68027 0.988848 6.50179 1.42463 7.15452 2.14989C7.48051 2.51215 7.76361 2.94411 7.99953 3.42681C8.23551 2.94393 8.51935 2.51225 8.84547 2.14989C9.49834 1.42448 10.3195 0.988652 11.2111 1.00094V1L11.213 1.00094C11.2155 1.00098 11.218 0.999958 11.2205 1L11.2196 1.00094C11.8428 1.00327 12.4405 1.25074 12.8814 1.69163C13.3242 2.13456 13.573 2.73552 13.573 3.36188C13.573 3.98822 13.3242 4.58918 12.8814 5.03213C12.4385 5.47501 11.8374 5.72366 11.2111 5.72375C10.8918 5.72375 10.6325 5.46524 10.6324 5.14599C10.6324 4.82669 10.8918 4.56728 11.2111 4.56728C11.5308 4.56718 11.8376 4.44045 12.0636 4.21441C12.2896 3.98831 12.4165 3.68155 12.4165 3.36188Z" fill="#111111"/>
</svg>
