<svg width="16" height="16" viewBox="0 0 16 16" fill="none" xmlns="http://www.w3.org/2000/svg">
<path d="M6.13965 1.2002C6.26232 1.2002 6.38263 1.22974 6.49023 1.28613L6.59277 1.35059L6.68359 1.43164C6.73975 1.49001 6.78643 1.55677 6.82129 1.62988L6.86426 1.74316L6.86621 1.74902L9.85938 12.3984L10.8877 8.74219C10.9963 8.35534 11.2293 8.01488 11.5498 7.77246C11.8701 7.53025 12.2606 7.39886 12.6621 7.39941H14.2002C14.5314 7.39963 14.7998 7.66876 14.7998 8C14.7997 8.33115 14.5313 8.5994 14.2002 8.59961H12.6611C12.5213 8.59931 12.385 8.64512 12.2734 8.72949C12.1619 8.81386 12.0807 8.93275 12.043 9.06738L10.5859 14.251L10.585 14.2559C10.5392 14.4127 10.4432 14.5504 10.3125 14.6484C10.1818 14.7464 10.0227 14.7998 9.85938 14.7998C9.69621 14.7997 9.53779 14.7463 9.40723 14.6484C9.27654 14.5504 9.18051 14.4127 9.13477 14.2559L9.13379 14.251L6.13867 3.59863L5.11133 7.25684C5.00317 7.64228 4.77275 7.98226 4.4541 8.22461C4.13541 8.46695 3.74606 8.59838 3.3457 8.59961H1.7998C1.4685 8.59961 1.2003 8.33128 1.2002 8C1.2002 7.66863 1.46843 7.39941 1.7998 7.39941H3.3418C3.48107 7.39902 3.61667 7.35381 3.72754 7.26953C3.83841 7.18523 3.91844 7.06672 3.95605 6.93262L5.41309 1.74902L5.41504 1.74316C5.4608 1.58646 5.55594 1.44855 5.68652 1.35059L5.79004 1.28613C5.89746 1.22994 6.01723 1.20022 6.13965 1.2002Z" fill="#111111"/>
</svg>
