<svg width="16" height="16" viewBox="0 0 16 16" fill="none" xmlns="http://www.w3.org/2000/svg">
<path d="M8.00002 5.00009C7.40668 5.00009 6.82666 5.17604 6.33331 5.50568C5.83996 5.83532 5.45545 6.30386 5.22838 6.85204C5.00132 7.40022 4.94191 8.00342 5.05766 8.58536C5.17342 9.1673 5.45914 9.70185 5.8787 10.1214C6.29826 10.541 6.83281 10.8267 7.41475 10.9424C7.99669 11.0582 8.59989 10.9988 9.14807 10.7717C9.69625 10.5447 10.1648 10.1601 10.4944 9.6668C10.8241 9.17345 11 8.59343 11 8.00009C10.9992 7.20469 10.6829 6.44211 10.1204 5.87968C9.558 5.31725 8.79542 5.00092 8.00002 5.00009ZM8.00002 10.0001C7.60446 10.0001 7.21778 9.88279 6.88888 9.66303C6.55998 9.44326 6.30364 9.13091 6.15226 8.76546C6.00089 8.4 5.96128 7.99787 6.03845 7.60991C6.11562 7.22195 6.3061 6.86558 6.58581 6.58588C6.86551 6.30617 7.22188 6.11569 7.60984 6.03852C7.9978 5.96135 8.39993 6.00095 8.76539 6.15233C9.13084 6.3037 9.4432 6.56005 9.66296 6.88895C9.88272 7.21785 10 7.60453 10 8.00009C10 8.53052 9.78931 9.03923 9.41423 9.4143C9.03916 9.78937 8.53045 10.0001 8.00002 10.0001ZM13.5 8.13509C13.5025 8.04509 13.5025 7.95509 13.5 7.86509L14.4325 6.70009C14.4814 6.63892 14.5153 6.56712 14.5313 6.49048C14.5474 6.41384 14.5452 6.33449 14.525 6.25884C14.3722 5.68421 14.1435 5.13249 13.845 4.61821C13.8059 4.55091 13.7517 4.49366 13.6866 4.45102C13.6215 4.40838 13.5473 4.38152 13.47 4.37259L11.9875 4.20759C11.9259 4.14259 11.8634 4.08009 11.8 4.02009L11.625 2.53384C11.616 2.45647 11.5891 2.38228 11.5463 2.31717C11.5036 2.25206 11.4462 2.19785 11.3788 2.15884C10.8643 1.86093 10.3126 1.63248 9.73815 1.47946C9.66244 1.45934 9.58307 1.45728 9.50643 1.47345C9.42978 1.48963 9.35801 1.52359 9.2969 1.57259L8.13502 2.50009C8.04502 2.50009 7.95502 2.50009 7.86502 2.50009L6.70002 1.56946C6.63885 1.52057 6.56706 1.48672 6.49041 1.47066C6.41377 1.45459 6.33443 1.45675 6.25877 1.47696C5.68424 1.63011 5.13255 1.85877 4.61815 2.15696C4.55084 2.19604 4.49359 2.25029 4.45095 2.31539C4.40831 2.3805 4.38145 2.45465 4.37252 2.53196L4.20752 4.01696C4.14252 4.07905 4.08002 4.14155 4.02002 4.20446L2.53377 4.37509C2.4564 4.38409 2.38221 4.41104 2.3171 4.45379C2.252 4.49655 2.19778 4.55392 2.15877 4.62134C1.86086 5.13582 1.63242 5.68749 1.4794 6.26196C1.45927 6.33767 1.45721 6.41704 1.47339 6.49368C1.48956 6.57033 1.52352 6.6421 1.57252 6.70321L2.50002 7.86509C2.50002 7.95509 2.50002 8.04509 2.50002 8.13509L1.5694 9.30009C1.5205 9.36126 1.48666 9.43305 1.47059 9.5097C1.45452 9.58634 1.45668 9.66568 1.4769 9.74134C1.62976 10.316 1.85844 10.8677 2.1569 11.382C2.19597 11.4493 2.25022 11.5065 2.31533 11.5492C2.38043 11.5918 2.45459 11.6187 2.5319 11.6276L4.0144 11.7926C4.07648 11.8576 4.13898 11.9201 4.2019 11.9801L4.37502 13.4663C4.38402 13.5437 4.41097 13.6179 4.45373 13.683C4.49648 13.7481 4.55385 13.8023 4.62127 13.8413C5.13575 14.1392 5.68742 14.3677 6.2619 14.5207C6.3376 14.5408 6.41697 14.5429 6.49362 14.5267C6.57026 14.5105 6.64203 14.4766 6.70315 14.4276L7.86502 13.5001C7.95502 13.5026 8.04502 13.5026 8.13502 13.5001L9.30002 14.4326C9.36119 14.4815 9.43299 14.5153 9.50963 14.5314C9.58627 14.5475 9.66562 14.5453 9.74127 14.5251C10.3159 14.3722 10.8676 14.1435 11.3819 13.8451C11.4492 13.806 11.5064 13.7518 11.5491 13.6867C11.5917 13.6216 11.6186 13.5474 11.6275 13.4701L11.7925 11.9876C11.8575 11.9259 11.92 11.8634 11.98 11.8001L13.4663 11.6251C13.5436 11.6161 13.6178 11.5891 13.6829 11.5464C13.748 11.5036 13.8023 11.4463 13.8413 11.3788C14.1392 10.8644 14.3676 10.3127 14.5206 9.73821C14.5408 9.66251 14.5428 9.58314 14.5267 9.50649C14.5105 9.42985 14.4765 9.35808 14.4275 9.29696L13.5 8.13509ZM12.4938 7.72884C12.5044 7.90952 12.5044 8.09066 12.4938 8.27134C12.4863 8.39504 12.5251 8.51709 12.6025 8.61384L13.4894 9.72196C13.3876 10.0454 13.2573 10.3591 13.1 10.6595L11.6875 10.8195C11.5645 10.8331 11.4509 10.8919 11.3688 10.9845C11.2485 11.1198 11.1203 11.2479 10.985 11.3682C10.8925 11.4504 10.8337 11.564 10.82 11.687L10.6631 13.0982C10.3628 13.2556 10.0491 13.3859 9.72565 13.4876L8.6169 12.6007C8.52817 12.5298 8.41796 12.4912 8.3044 12.4913H8.2744C8.09372 12.502 7.91257 12.502 7.7319 12.4913C7.6082 12.4839 7.48614 12.5226 7.3894 12.6001L6.27815 13.4876C5.95473 13.3858 5.64099 13.2555 5.34065 13.0982L5.18065 11.6876C5.16699 11.5646 5.1082 11.451 5.01565 11.3688C4.88034 11.2485 4.7522 11.1204 4.6319 10.9851C4.54973 10.8925 4.43615 10.8337 4.31315 10.8201L2.9019 10.6626C2.74452 10.3623 2.61421 10.0485 2.51252 9.72509L3.3994 8.61634C3.47684 8.51959 3.51559 8.39754 3.50815 8.27384C3.49752 8.09316 3.49752 7.91202 3.50815 7.73134C3.51559 7.60764 3.47684 7.48558 3.3994 7.38884L2.51252 6.27821C2.61429 5.9548 2.74459 5.64106 2.9019 5.34071L4.31252 5.18071C4.43553 5.16706 4.5491 5.10827 4.63127 5.01571C4.75158 4.88041 4.87971 4.75227 5.01502 4.63196C5.10794 4.54974 5.16698 4.43591 5.18065 4.31259L5.33752 2.90196C5.63783 2.74458 5.95158 2.61428 6.27502 2.51259L7.38377 3.39946C7.48052 3.4769 7.60257 3.51566 7.72627 3.50821C7.90695 3.49759 8.08809 3.49759 8.26877 3.50821C8.39247 3.51566 8.51453 3.4769 8.61127 3.39946L9.7219 2.51259C10.0453 2.61435 10.359 2.74466 10.6594 2.90196L10.8194 4.31259C10.8331 4.4356 10.8918 4.54917 10.9844 4.63134C11.1197 4.75164 11.2478 4.87978 11.3681 5.01509C11.4503 5.10764 11.5639 5.16643 11.6869 5.18009L13.0981 5.33696C13.2555 5.63728 13.3858 5.95102 13.4875 6.27446L12.6006 7.38321C12.5225 7.48077 12.4837 7.60409 12.4919 7.72884H12.4938Z" fill="#111111"/>
<path d="M6.23339 1.37994C6.32398 1.35582 6.41897 1.35389 6.51073 1.37311C6.60271 1.39239 6.68929 1.4326 6.76269 1.49127L7.90038 2.40045H8.0996L9.23437 1.4942L9.29198 1.45416C9.35128 1.41712 9.4166 1.39061 9.48534 1.37604C9.57727 1.35664 9.67287 1.35876 9.76366 1.38287C10.3466 1.53815 10.9066 1.77003 11.4287 2.07233C11.5096 2.11913 11.5786 2.18463 11.6299 2.26276C11.6811 2.34081 11.7138 2.42981 11.7246 2.52252L11.8945 3.97272C11.9416 4.01794 11.9881 4.06448 12.0342 4.11236L13.4814 4.2735L13.5498 4.28522C13.6177 4.30117 13.6825 4.32885 13.7412 4.36725C13.8193 4.41842 13.8847 4.48766 13.9316 4.56842C14.2344 5.09028 14.4669 5.65039 14.6221 6.23346C14.6462 6.32405 14.6481 6.41904 14.6289 6.5108C14.6096 6.60277 14.5694 6.68935 14.5107 6.76275L13.5996 7.90045C13.6009 7.96655 13.6009 8.03259 13.5996 8.09869L14.5059 9.23443L14.5459 9.29205C14.5829 9.35135 14.6094 9.41666 14.624 9.48541C14.6434 9.57734 14.6413 9.67293 14.6172 9.76373C14.4619 10.3467 14.23 10.9067 13.9277 11.4288C13.881 11.5096 13.8163 11.5787 13.7383 11.6299C13.6601 11.6812 13.5704 11.7139 13.4775 11.7247L12.0264 11.8946C11.9811 11.9416 11.9346 11.9882 11.8867 12.0342L11.7266 13.4815C11.7158 13.5742 11.6839 13.6632 11.6328 13.7413C11.5816 13.8194 11.5124 13.8848 11.4316 13.9317C10.9098 14.2345 10.3496 14.466 9.76659 14.6212C9.67593 14.6453 9.58109 14.6482 9.48925 14.629C9.39728 14.6097 9.3107 14.5695 9.2373 14.5108L8.09862 13.5997C8.03253 13.601 7.96648 13.601 7.90038 13.5997L6.76562 14.5059C6.69245 14.5645 6.60636 14.6047 6.51464 14.6241C6.42269 14.6435 6.32714 14.6414 6.23632 14.6172C5.65333 14.462 5.09339 14.2301 4.57128 13.9278C4.49048 13.881 4.42139 13.8163 4.37011 13.7383C4.3188 13.6602 4.28618 13.5704 4.27538 13.4776L4.10644 12.0264C4.05996 11.9815 4.01373 11.9353 3.96777 11.8878L2.5205 11.7266C2.4278 11.7159 2.33882 11.684 2.26073 11.6329C2.18261 11.5817 2.1172 11.5125 2.0703 11.4317C1.76758 10.91 1.53499 10.3505 1.37987 9.76764L1.3662 9.6983C1.35616 9.62895 1.35859 9.55826 1.37304 9.48932C1.39232 9.39735 1.43253 9.31077 1.4912 9.23736L2.40038 8.09869V7.90045L1.49413 6.76568C1.43553 6.69252 1.3954 6.60642 1.37597 6.51471C1.35656 6.42277 1.35868 6.3272 1.3828 6.23639C1.53809 5.65341 1.76995 5.09345 2.07226 4.57135C2.11907 4.49045 2.18456 4.42148 2.26269 4.37018C2.34073 4.319 2.42975 4.28624 2.52245 4.27545L3.97265 4.10943C4.01771 4.06279 4.06458 4.0169 4.1123 3.97076L4.27343 2.52057L4.28515 2.45221C4.3011 2.38428 4.32878 2.31948 4.36718 2.2608C4.41835 2.18268 4.48759 2.11727 4.56835 2.07037C5.09032 1.76783 5.65043 1.53533 6.23339 1.37994ZM6.28417 1.5733C5.71828 1.72417 5.17464 1.94951 4.66796 2.24322C4.61421 2.27448 4.56824 2.31816 4.53417 2.37018C4.51717 2.39617 4.50366 2.42418 4.49316 2.45318L4.47167 2.54303L4.30663 4.02838L4.30273 4.06451L4.27636 4.08893C4.21251 4.14991 4.1516 4.2118 4.09277 4.2735L4.06737 4.29986L4.03124 4.30377L2.54491 4.47467C2.48324 4.48191 2.42399 4.5031 2.37206 4.53717C2.32006 4.57132 2.2763 4.61713 2.24511 4.67096C1.95175 5.17766 1.72687 5.72237 1.57616 6.28815C1.56019 6.34848 1.55844 6.41163 1.57128 6.47272C1.58422 6.53401 1.61121 6.59181 1.65038 6.64068L2.57812 7.80279L2.5996 7.83014V8.16998L2.57812 8.19733L1.64745 9.36236C1.60834 9.4113 1.5812 9.46902 1.56835 9.53033C1.56195 9.56093 1.5597 9.59207 1.56054 9.62311L1.57323 9.71588L1.70019 10.1358C1.84085 10.5512 2.02266 10.9521 2.24316 11.3321C2.27441 11.3859 2.31808 11.4318 2.37011 11.4659C2.42204 11.4999 2.48132 11.5212 2.54296 11.5284L4.02538 11.6934L4.06152 11.6973L4.08691 11.7237C4.14775 11.7874 4.20895 11.8486 4.2705 11.9073L4.29687 11.9327L4.30077 11.9688L4.4746 13.4551C4.48184 13.5168 4.50304 13.5761 4.5371 13.628C4.57125 13.68 4.61708 13.7237 4.67089 13.7549C5.1776 14.0483 5.7223 14.2732 6.28808 14.4239C6.34842 14.4399 6.41156 14.4416 6.47265 14.4288C6.53395 14.4158 6.59173 14.3889 6.64062 14.3497L7.80273 13.4219L7.83105 13.3995L7.86816 13.4005C7.95604 13.4029 8.04394 13.4029 8.13183 13.4005L8.16894 13.3995L8.19726 13.4219L9.3623 14.3546C9.41123 14.3937 9.46895 14.4208 9.53026 14.4337C9.59153 14.4465 9.65533 14.4449 9.71581 14.4288L10.1357 14.3018C10.5511 14.1612 10.9521 13.9793 11.332 13.7588C11.3858 13.7276 11.4317 13.6839 11.4658 13.6319C11.4998 13.58 11.5211 13.5207 11.5283 13.459L11.6934 11.9766L11.6973 11.9405L11.7236 11.9151C11.7873 11.8547 11.8485 11.7934 11.9072 11.7315L11.9326 11.7051L11.9687 11.7012L13.4541 11.5255C13.5158 11.5182 13.576 11.497 13.6279 11.463C13.6799 11.4288 13.7237 11.383 13.7549 11.3292C14.0483 10.8225 14.2731 10.2787 14.4238 9.71295C14.4399 9.65246 14.4416 9.58865 14.4287 9.5274C14.4222 9.49676 14.4127 9.46665 14.3994 9.43854L14.3496 9.35943L13.4219 8.19733L13.3994 8.169L13.4004 8.1319C13.4028 8.04401 13.4028 7.95611 13.4004 7.86822L13.3994 7.83111L13.4219 7.80279L14.3545 6.63775C14.3936 6.58882 14.4207 6.5311 14.4336 6.46979C14.4464 6.40853 14.4449 6.3447 14.4287 6.28424C14.2781 5.71827 14.0527 5.17457 13.7588 4.66803C13.7275 4.61427 13.6838 4.56831 13.6318 4.53424C13.5799 4.50027 13.5206 4.47892 13.459 4.47174L11.9766 4.3067L11.9404 4.30279L11.915 4.27643C11.8546 4.21274 11.7934 4.15153 11.7314 4.09283L11.7051 4.06744L11.7012 4.03131L11.5254 2.54596C11.5181 2.48427 11.497 2.42406 11.4629 2.37213C11.4287 2.32011 11.3829 2.27637 11.3291 2.24518C10.8224 1.95178 10.2787 1.72698 9.71288 1.57623C9.6524 1.56015 9.58858 1.55846 9.52734 1.57135C9.4967 1.57781 9.46658 1.58735 9.43847 1.60065L9.35937 1.65045L8.19726 2.57818L8.16991 2.59967H7.83007L7.80273 2.57818L6.63769 1.64752C6.58875 1.6084 6.53103 1.58127 6.46972 1.56842C6.40846 1.55561 6.34463 1.55715 6.28417 1.5733ZM9.75194 2.41705C9.99858 2.49466 10.2396 2.58873 10.4736 2.6983L10.706 2.81354L10.7529 2.83795L10.7588 2.89068L10.9189 4.30084C10.9299 4.39914 10.9768 4.49103 11.0508 4.5567C11.189 4.6796 11.3204 4.81008 11.4434 4.9483C11.5091 5.02235 11.5998 5.07019 11.6982 5.08111L13.1621 5.24322L13.1865 5.2901C13.3466 5.59561 13.4795 5.91517 13.583 6.2442L13.5986 6.29498L13.5654 6.33697L12.6787 7.44537C12.6208 7.51768 12.5908 7.60804 12.5918 7.70025L12.5937 7.72272C12.6046 7.9073 12.6046 8.09282 12.5937 8.2774C12.5893 8.3514 12.6053 8.42471 12.6396 8.48932L12.6807 8.55182L13.5674 9.65924L13.6006 9.70123L13.585 9.75201C13.4814 10.0811 13.3485 10.4005 13.1885 10.7061L13.1641 10.753L13.1113 10.7588L11.6992 10.919C11.6009 10.93 11.509 10.9769 11.4434 11.0508C11.3205 11.1891 11.19 11.3205 11.0517 11.4434C10.9777 11.5092 10.9299 11.5999 10.9189 11.6983L10.7568 13.1622L10.71 13.1866C10.4044 13.3467 10.0849 13.4796 9.75585 13.5831L9.70507 13.5987L9.66308 13.5655L8.55468 12.6788C8.48375 12.6221 8.39546 12.5909 8.30468 12.5909H8.28027C8.09568 12.6017 7.91017 12.6017 7.72558 12.5909C7.62687 12.585 7.5294 12.6161 7.45214 12.6778L6.34081 13.5655L6.29882 13.5987L6.24804 13.5831C5.91899 13.4795 5.59952 13.3466 5.29394 13.1866L5.24706 13.1622L5.2412 13.1094L5.08105 11.6993C5.07281 11.6256 5.04487 11.5549 4.99999 11.4971L4.94921 11.4434C4.81113 11.3206 4.68039 11.1899 4.55761 11.0518C4.49188 10.9778 4.40014 10.9299 4.30175 10.919L2.83788 10.7559L2.81347 10.709C2.65333 10.4035 2.52045 10.0841 2.41698 9.75494L2.40136 9.70416L2.43456 9.66217L3.32128 8.55377C3.38312 8.4765 3.41402 8.37912 3.4082 8.28033C3.39736 8.09593 3.39736 7.91005 3.4082 7.72565C3.41266 7.65145 3.39685 7.57749 3.3623 7.51275L3.32128 7.45123L2.43456 6.34088L2.40136 6.29889L2.41698 6.24811C2.52053 5.91905 2.65342 5.59959 2.81347 5.29401L2.83788 5.24713L2.89062 5.24127L4.30077 5.08111C4.39907 5.07013 4.49096 5.02325 4.55663 4.94928L4.74706 4.74713C4.8122 4.682 4.87937 4.61892 4.94823 4.55768L4.94921 4.5567C5.02323 4.49101 5.07008 4.40018 5.08105 4.30182L5.24413 2.83795L5.29101 2.81354C5.59658 2.6534 5.916 2.52052 6.24511 2.41705L6.29589 2.40143L6.33788 2.43463L7.44628 3.32135C7.52368 3.3833 7.62174 3.41422 7.7207 3.40826C7.9051 3.39743 8.09 3.39743 8.27441 3.40826C8.37336 3.41422 8.47142 3.3833 8.54882 3.32135L9.65917 2.43463L9.70116 2.40143L9.75194 2.41705ZM8.67382 3.4776C8.55773 3.57053 8.41113 3.61739 8.26269 3.60846C8.08607 3.59808 7.90904 3.59808 7.73241 3.60846C7.62118 3.61515 7.51112 3.58992 7.41405 3.53815L7.32128 3.4776L6.25487 2.62506C5.97123 2.71719 5.69509 2.83086 5.42968 2.96686L5.28027 4.3233C5.26386 4.47129 5.19255 4.60843 5.08105 4.70709C5.01512 4.76573 4.95103 4.82637 4.88866 4.88873L4.70605 5.08209C4.60745 5.19316 4.47085 5.26297 4.32323 5.27936L2.96581 5.43365C2.82999 5.699 2.7171 5.97534 2.62499 6.25885L3.47753 7.32623L3.53808 7.419C3.58988 7.51609 3.61509 7.6261 3.60839 7.73736C3.59801 7.91399 3.59802 8.09102 3.60839 8.26764C3.61732 8.41605 3.57042 8.56269 3.47753 8.67877L2.62499 9.7442C2.71708 10.0279 2.83083 10.3039 2.96679 10.5694L4.32421 10.7208L4.43261 10.7432C4.53771 10.7752 4.63315 10.8358 4.70702 10.919C4.8246 11.0512 4.9498 11.1764 5.08202 11.294C5.19292 11.3925 5.26374 11.5285 5.28027 11.6758L5.43359 13.0333C5.69878 13.169 5.97447 13.283 6.2578 13.3751L7.32714 12.5215C7.44302 12.4289 7.58922 12.3829 7.7373 12.3917C7.91406 12.4021 8.09178 12.4021 8.26855 12.3917L8.27441 12.3907L8.30468 12.3917C8.44083 12.3916 8.57331 12.4375 8.67968 12.5225L9.74511 13.3751C10.0285 13.283 10.3041 13.1691 10.5693 13.0333L10.7207 11.6758C10.7371 11.5283 10.8079 11.3916 10.9189 11.293C11.0511 11.1754 11.1764 11.0503 11.2939 10.918L11.375 10.8428C11.4618 10.7754 11.5661 10.7321 11.6767 10.7198L13.0351 10.5655C13.171 10.3001 13.2839 10.0239 13.376 9.74029L12.5244 8.67584C12.4317 8.5599 12.3847 8.41386 12.3935 8.26568C12.4038 8.09206 12.4034 7.91784 12.3935 7.7442L12.3926 7.73541C12.3827 7.58571 12.4286 7.43744 12.5225 7.32037L13.375 6.25397C13.2829 5.97047 13.1681 5.69503 13.0322 5.42975L11.6758 5.27936C11.5282 5.26295 11.3915 5.19215 11.293 5.08111C11.2343 5.01518 11.1737 4.9511 11.1113 4.88873L10.918 4.70611C10.8071 4.60765 10.7362 4.47164 10.7197 4.32428L10.5654 2.96588C10.3 2.83009 10.0238 2.71713 9.74023 2.62506L8.67382 3.4776ZM10.9004 8.00006C10.8995 7.2312 10.5935 6.49393 10.0498 5.95025C9.57398 5.47445 8.94989 5.18075 8.28612 5.11432L7.99999 5.09967C7.42644 5.09967 6.86556 5.27028 6.38866 5.58893C5.91185 5.90758 5.53977 6.36085 5.3203 6.89068C5.10103 7.42032 5.04352 8.00325 5.15527 8.56549C5.26716 9.12802 5.54365 9.64527 5.94921 10.0508C6.35478 10.4564 6.87202 10.7329 7.43456 10.8448C7.99681 10.9565 8.57972 10.899 9.10937 10.6797C9.63921 10.4603 10.0925 10.0882 10.4111 9.61139C10.7298 9.13449 10.9004 8.57363 10.9004 8.00006ZM9.90038 8.00006C9.90038 7.6243 9.78882 7.25683 9.58007 6.9444C9.3714 6.6321 9.07449 6.38901 8.72753 6.24518C8.38035 6.10137 7.99746 6.06347 7.6289 6.13678C7.26052 6.21015 6.92185 6.3907 6.65624 6.65631C6.39063 6.92192 6.21008 7.26058 6.13671 7.62897C6.0634 7.99753 6.1013 8.38042 6.24511 8.7276C6.38894 9.07456 6.63203 9.37147 6.94433 9.58014C7.25676 9.78889 7.62423 9.90045 7.99999 9.90045C8.5039 9.90045 8.98742 9.70013 9.34374 9.34381C9.70006 8.98749 9.90038 8.50397 9.90038 8.00006ZM10.0996 8.00006C10.0996 8.55701 9.87917 9.09158 9.48534 9.48541C9.09152 9.87924 8.55695 10.0997 7.99999 10.0997C7.58466 10.0997 7.17834 9.9769 6.833 9.74615C6.48777 9.51541 6.21847 9.18741 6.05956 8.80377C5.9007 8.42021 5.85952 7.99808 5.94042 7.59088C6.02145 7.18352 6.22095 6.8084 6.51464 6.51471C6.80833 6.22102 7.18345 6.02152 7.59081 5.94049C7.99801 5.85959 8.42014 5.90077 8.8037 6.05963C9.18734 6.21854 9.51534 6.48784 9.74609 6.83307C9.97683 7.1784 10.0996 7.58473 10.0996 8.00006ZM11.0918 8.22955C11.0523 8.76187 10.8751 9.27674 10.5771 9.72272C10.2365 10.2323 9.75277 10.6298 9.18652 10.8643C8.62012 11.0989 7.99679 11.1597 7.3955 11.0401C6.79416 10.9205 6.24115 10.626 5.80761 10.1924C5.37408 9.7589 5.07956 9.20588 4.95995 8.60455C4.8404 8.00328 4.90113 7.37991 5.13573 6.81354C5.3703 6.2473 5.7678 5.76351 6.27734 5.42291C6.78712 5.08228 7.38688 4.90046 7.99999 4.90045C8.82186 4.90131 9.61024 5.22751 10.1914 5.80865C10.7726 6.38981 11.0987 7.17818 11.0996 8.00006L11.0918 8.22955Z" fill="#111111"/>
</svg>
