<svg width="16" height="16" viewBox="0 0 16 16" fill="none" xmlns="http://www.w3.org/2000/svg">
<g clip-path="url(#clip0_5238_339386)">
<path d="M10.6001 5.60034C10.6001 5.54736 10.5789 5.49623 10.5415 5.45874C10.504 5.42123 10.4529 5.40015 10.3999 5.40015H3.19971C3.14673 5.4002 3.09557 5.42128 3.05811 5.45874C3.02074 5.49622 2.99951 5.54741 2.99951 5.60034V12.8005C2.99963 12.8532 3.02093 12.9038 3.05811 12.9412C3.09557 12.9786 3.14673 12.9997 3.19971 12.9998H10.3999C10.4529 12.9998 10.504 12.9787 10.5415 12.9412C10.5787 12.9038 10.6 12.8533 10.6001 12.8005V5.60034ZM13.8003 4.48022C13.8003 3.8756 13.5598 3.29549 13.1323 2.86792C12.7048 2.44036 12.1247 2.19998 11.52 2.19995H10.9849L11.2378 2.46948L10.3618 3.29077L9.1626 2.0105C8.94624 1.77972 8.94627 1.42098 9.1626 1.19019L10.3618 -0.0900879L10.8003 0.320068L11.2378 0.730225L10.9849 0.999756H11.52C12.4429 0.999787 13.3284 1.36669 13.981 2.01929C14.6335 2.6719 14.9995 3.55734 14.9995 4.48022V6.40015H13.8003V4.48022ZM11.8003 12.8005C11.8002 13.1716 11.6524 13.5274 11.3901 13.7898C11.1276 14.0523 10.7712 14.2 10.3999 14.2H3.19971C2.82848 14.1999 2.47198 14.0523 2.20947 13.7898C1.94725 13.5274 1.80042 13.1715 1.80029 12.8005V5.60034C1.80029 5.22915 1.94707 4.87264 2.20947 4.61011C2.47198 4.3476 2.82847 4.2 3.19971 4.19995H10.3999C10.7712 4.19995 11.1276 4.34756 11.3901 4.61011C11.6526 4.87265 11.8003 5.2291 11.8003 5.60034V12.8005Z" fill="#111111"/>
</g>
<defs>
<clipPath id="clip0_5238_339386">
<rect width="16" height="16" fill="white"/>
</clipPath>
</defs>
</svg>
