<svg width="16" height="16" viewBox="0 0 16 16" fill="none" xmlns="http://www.w3.org/2000/svg">
<path d="M7.99992 1.33337C8.36812 1.33337 8.66658 1.63185 8.66658 2.00004V4.00004C8.66658 4.36823 8.36812 4.66671 7.99992 4.66671C7.63172 4.66671 7.33325 4.36823 7.33325 4.00004V2.00004C7.33325 1.63185 7.63172 1.33337 7.99992 1.33337ZM7.99992 11.3334C8.36812 11.3334 8.66658 11.6318 8.66658 12V14C8.66658 14.3682 8.36812 14.6667 7.99992 14.6667C7.63172 14.6667 7.33325 14.3682 7.33325 14V12C7.33325 11.6318 7.63172 11.3334 7.99992 11.3334ZM14.6666 8.00004C14.6666 8.36824 14.3681 8.66671 13.9999 8.66671H11.9999C11.6317 8.66671 11.3333 8.36824 11.3333 8.00004C11.3333 7.63184 11.6317 7.33337 11.9999 7.33337H13.9999C14.3681 7.33337 14.6666 7.63184 14.6666 8.00004ZM4.66658 8.00004C4.66658 8.36824 4.36811 8.66671 3.99992 8.66671H1.99992C1.63173 8.66671 1.33325 8.36824 1.33325 8.00004C1.33325 7.63184 1.63173 7.33337 1.99992 7.33337H3.99992C4.36811 7.33337 4.66658 7.63184 4.66658 8.00004ZM12.714 12.7141C12.4536 12.9744 12.0315 12.9744 11.7712 12.7141L10.3569 11.2998C10.0966 11.0395 10.0966 10.6174 10.3569 10.357C10.6173 10.0967 11.0394 10.0967 11.2997 10.357L12.714 11.7713C12.9743 12.0316 12.9743 12.4537 12.714 12.7141ZM5.6429 5.64302C5.38254 5.90337 4.96044 5.90337 4.70009 5.64302L3.28587 4.22881C3.02553 3.96845 3.02553 3.54635 3.28587 3.28599C3.54623 3.02565 3.96833 3.02565 4.22869 3.28599L5.6429 4.70021C5.90324 4.96056 5.90324 5.38267 5.6429 5.64302ZM3.28587 12.7141C3.02553 12.4537 3.02553 12.0316 3.28587 11.7713L4.70009 10.357C4.96044 10.0967 5.38254 10.0967 5.6429 10.357C5.90324 10.6174 5.90324 11.0395 5.6429 11.2998L4.22869 12.7141C3.96833 12.9744 3.54623 12.9744 3.28587 12.7141ZM10.3569 5.64302C10.0966 5.38267 10.0966 4.96056 10.3569 4.70021L11.7712 3.28599C12.0315 3.02565 12.4536 3.02565 12.714 3.28599C12.9743 3.54635 12.9743 3.96845 12.714 4.22881L11.2997 5.64302C11.0394 5.90337 10.6173 5.90337 10.3569 5.64302Z" fill="#111111"/>
</svg>
