<svg width="16" height="16" viewBox="0 0 16 16" fill="none" xmlns="http://www.w3.org/2000/svg">
<path d="M13.3333 11.9336C13.6646 11.9336 13.9329 11.6644 13.9329 11.3331C13.9327 11.0018 13.6645 10.7334 13.3333 10.7334H4.1155L5.7571 9.09087C5.99142 8.85655 5.99142 8.47655 5.7571 8.24223C5.52287 8.00835 5.14368 8.00835 4.90945 8.24223L2.24246 10.9092C2.00814 11.1435 2.00814 11.5235 2.24246 11.7579L4.90945 14.4239C5.14376 14.6582 5.52279 14.6582 5.7571 14.4239C5.99142 14.1896 5.99142 13.8105 5.7571 13.5762L4.1155 11.9336H13.3333ZM2.66628 5.26665H11.885L10.2425 6.90922C10.0081 7.14354 10.0081 7.52354 10.2425 7.75786C10.4768 7.99201 10.8568 7.99212 11.0911 7.75786L13.7571 5.09087L13.8343 4.99712C13.9882 4.7642 13.9622 4.44733 13.7571 4.24223L11.0911 1.57622C10.8568 1.3419 10.4768 1.3419 10.2425 1.57622C10.0084 1.81049 10.0084 2.1896 10.2425 2.42387L11.885 4.06645H2.66628C2.33506 4.06663 2.06667 4.33578 2.06667 4.66704C2.06685 4.99815 2.33517 5.26647 2.66628 5.26665Z" fill="#111111"/>
</svg>
