<svg width="16" height="16" viewBox="0 0 16 16" fill="none" xmlns="http://www.w3.org/2000/svg">
<mask id="mask0_7713_188510" style="mask-type:luminance" maskUnits="userSpaceOnUse" x="1" y="1" width="14" height="14">
<path d="M14.665 1.33496H1.33496V14.665H14.665V1.33496Z" fill="white"/>
</mask>
<g mask="url(#mask0_7713_188510)">
<path d="M5.61963 6.57164C5.61963 7.20298 5.87042 7.80838 6.31682 8.25482C6.76323 8.70121 7.3687 8.95198 7.99998 8.95198C8.63133 8.95198 9.23673 8.70121 9.68317 8.25482C10.1296 7.80838 10.3803 7.20298 10.3803 6.57164C10.3803 5.94033 10.1296 5.33488 9.68317 4.88848C9.23673 4.44207 8.63133 4.19128 7.99998 4.19128C7.3687 4.19128 6.76323 4.44207 6.31682 4.88848C5.87042 5.33488 5.61963 5.94033 5.61963 6.57164Z" fill="#111111"/>
<path d="M3.85864 11.9353C4.81658 10.6995 6.31537 9.90417 7.99991 9.90417C9.68449 9.90417 11.1833 10.6995 12.1412 11.9353C11.1004 13.0302 9.62989 13.7128 7.99991 13.7128C6.36998 13.7128 4.89945 13.0302 3.85864 11.9353Z" fill="#111111"/>
<path fill-rule="evenodd" clip-rule="evenodd" d="M9.03787 1.41518C8.64819 1.3542 8.28289 1.62064 8.22191 2.01029C8.16092 2.39994 8.42735 2.76525 8.81703 2.82622C11.321 3.21808 13.2368 5.38586 13.2368 7.99974C13.2368 10.892 10.8922 13.2365 7.99996 13.2365C5.78967 13.2365 3.89754 11.8669 3.12921 9.92754C2.98394 9.56085 2.56895 9.3814 2.20228 9.52664C1.83562 9.67194 1.65613 10.0869 1.80139 10.4536C2.77813 12.9191 5.18431 14.6647 7.99996 14.6647C11.6809 14.6647 14.665 11.6807 14.665 7.99974C14.665 4.67146 12.2261 1.91414 9.03787 1.41518ZM6.69022 2.83419C7.07214 2.73589 7.30208 2.34657 7.20377 1.96463C7.10546 1.58268 6.71617 1.35275 6.33423 1.45106C6.02751 1.53 5.72934 1.63021 5.4414 1.75C5.07727 1.9015 4.90488 2.31949 5.05638 2.68363C5.20788 3.04776 5.62588 3.22014 5.99001 3.06864C6.21587 2.97468 6.4497 2.8961 6.69022 2.83419ZM4.35273 4.14814C4.63572 3.87344 4.64242 3.42134 4.36772 3.13835C4.093 2.85537 3.64091 2.84866 3.35793 3.12337C2.90891 3.55925 2.52096 4.05802 2.20828 4.60569C2.01273 4.94818 2.13186 5.38435 2.47436 5.5799C2.81686 5.77544 3.25303 5.65632 3.44858 5.31381C3.69422 4.88357 3.99931 4.49124 4.35273 4.14814ZM2.81474 7.16762C2.86978 6.77711 2.59782 6.41591 2.20728 6.36086C1.81675 6.30582 1.45554 6.57778 1.4005 6.96833C1.35727 7.27504 1.33496 7.58812 1.33496 7.90599C1.33496 8.30039 1.65468 8.62014 2.04907 8.62014C2.44346 8.62014 2.76318 8.30039 2.76318 7.90599C2.76318 7.655 2.78078 7.4085 2.81474 7.16762Z" fill="#111111"/>
</g>
</svg>
