<svg width="16" height="16" viewBox="0 0 16 16" fill="none" xmlns="http://www.w3.org/2000/svg">
<path d="M4.32009 5.88439L1.78134 8.00002L4.32009 10.1156C4.372 10.1572 4.41509 10.2087 4.44686 10.2671C4.47862 10.3255 4.49842 10.3896 4.5051 10.4558C4.51177 10.5219 4.50518 10.5888 4.48572 10.6523C4.46626 10.7159 4.43432 10.775 4.39176 10.826C4.3492 10.8771 4.29688 10.9192 4.23786 10.9498C4.17885 10.9804 4.11432 10.999 4.04805 11.0043C3.98178 11.0097 3.91511 11.0018 3.85193 10.9811C3.78875 10.9604 3.73033 10.9273 3.68009 10.8838L0.680094 8.38377C0.623802 8.33684 0.578513 8.27812 0.547433 8.21175C0.516354 8.14538 0.500244 8.07299 0.500244 7.9997C0.500244 7.92642 0.516354 7.85403 0.547433 7.78766C0.578513 7.72129 0.623802 7.66257 0.680094 7.61564L3.68009 5.11564C3.78204 5.03077 3.91352 4.98988 4.04561 5.00195C4.17771 5.01402 4.2996 5.07807 4.38447 5.18002C4.46934 5.28196 4.51024 5.41344 4.49816 5.54554C4.48609 5.67763 4.42204 5.79952 4.32009 5.88439ZM15.3201 7.61564L12.3201 5.11564C12.2696 5.07362 12.2114 5.04195 12.1486 5.02244C12.0859 5.00293 12.02 4.99597 11.9546 5.00195C11.8892 5.00793 11.8256 5.02673 11.7674 5.05728C11.7093 5.08783 11.6577 5.12954 11.6157 5.18002C11.5309 5.28196 11.49 5.41344 11.502 5.54554C11.5141 5.67763 11.5782 5.79952 11.6801 5.88439L14.2188 8.00002L11.6801 10.1156C11.6282 10.1572 11.5851 10.2087 11.5533 10.2671C11.5216 10.3255 11.5018 10.3896 11.4951 10.4558C11.4884 10.5219 11.495 10.5888 11.5145 10.6523C11.5339 10.7159 11.5659 10.775 11.6084 10.826C11.651 10.8771 11.7033 10.9192 11.7623 10.9498C11.8213 10.9804 11.8859 10.999 11.9521 11.0043C12.0184 11.0097 12.0851 11.0018 12.1483 10.9811C12.2114 10.9604 12.2699 10.9273 12.3201 10.8838L15.3201 8.38377C15.3764 8.33684 15.4217 8.27812 15.4528 8.21175C15.4838 8.14538 15.4999 8.07299 15.4999 7.9997C15.4999 7.92642 15.4838 7.85403 15.4528 7.78766C15.4217 7.72129 15.3764 7.66257 15.3201 7.61564ZM10.1707 2.03002C10.109 2.00761 10.0435 1.99758 9.97787 2.00049C9.91227 2.00341 9.84789 2.01922 9.7884 2.04702C9.72891 2.07482 9.67548 2.11407 9.63116 2.16252C9.58684 2.21096 9.5525 2.26767 9.53009 2.32939L5.53009 13.3294C5.50759 13.3911 5.49748 13.4567 5.50035 13.5224C5.50322 13.5881 5.51901 13.6525 5.54682 13.7121C5.57462 13.7717 5.6139 13.8251 5.6624 13.8695C5.7109 13.9139 5.76767 13.9482 5.82947 13.9706C5.88425 13.9901 5.94196 14 6.00009 14C6.10278 14 6.20297 13.9684 6.28706 13.9095C6.37115 13.8505 6.43505 13.7672 6.47009 13.6706L10.4701 2.67064C10.4925 2.60892 10.5025 2.54339 10.4996 2.47779C10.4967 2.41219 10.4809 2.34781 10.4531 2.28832C10.4253 2.22884 10.386 2.17541 10.3376 2.13109C10.2891 2.08677 10.2324 2.05242 10.1707 2.03002Z" fill="#111111" stroke="#111111" stroke-width="0.3"/>
</svg>
