<svg width="16" height="16" viewBox="0 0 16 16" fill="none" xmlns="http://www.w3.org/2000/svg">
<path d="M15 8C15 11.866 11.866 15 8 15C4.13401 15 1 11.866 1 8C1 4.13401 4.13401 1 8 1C11.866 1 15 4.13401 15 8ZM2.5358 8C2.5358 11.0178 4.98221 13.4642 8 13.4642C11.0178 13.4642 13.4642 11.0178 13.4642 8C13.4642 4.98221 11.0178 2.5358 8 2.5358C4.98221 2.5358 2.5358 4.98221 2.5358 8Z" fill="#111111" fill-opacity="0.04"/>
<path d="M14.9682 8.66621C15.0943 7.34732 14.8435 6.01973 14.245 4.83773C13.6465 3.65573 12.7248 2.66786 11.5871 1.98893C10.4493 1.31 9.14231 0.967895 7.81786 1.00237C6.4934 1.03684 5.20593 1.44649 4.10507 2.18368C3.00421 2.92088 2.13517 3.95536 1.59894 5.1669C1.06272 6.37844 0.881333 7.71728 1.07587 9.02782C1.27041 10.3384 1.83287 11.5668 2.6979 12.5703C3.56293 13.5738 4.695 14.3113 5.96253 14.6969L6.40953 13.2277C5.42008 12.9267 4.53637 12.351 3.86112 11.5676C3.18587 10.7843 2.7468 9.82535 2.59494 8.80233C2.44309 7.7793 2.58468 6.73419 3.00326 5.78845C3.42184 4.84271 4.10023 4.03518 4.95957 3.45972C5.81892 2.88425 6.82393 2.56448 7.85782 2.53757C8.8917 2.51066 9.91199 2.77771 10.8001 3.30769C11.6882 3.83767 12.4077 4.60881 12.8749 5.5315C13.3421 6.45418 13.5379 7.49051 13.4395 8.52005L14.9682 8.66621Z" fill="#111111"/>
</svg>
