<svg width="16" height="16" viewBox="0 0 16 16" fill="none" xmlns="http://www.w3.org/2000/svg">
<g clip-path="url(#clip0_5238_45730)">
<path d="M14.0667 8.00024C14.0667 4.64982 11.3506 1.93304 8.00024 1.93286C4.64972 1.93286 1.93286 4.64972 1.93286 8.00024C1.93304 11.3506 4.64982 14.0667 8.00024 14.0667C11.3505 14.0665 14.0665 11.3505 14.0667 8.00024ZM15.2668 8.00024C15.2667 12.0133 12.0133 15.2667 8.00024 15.2668C3.98708 15.2668 0.733818 12.0134 0.733643 8.00024C0.733643 3.98697 3.98697 0.733643 8.00024 0.733643C12.0134 0.733818 15.2668 3.98708 15.2668 8.00024Z" fill="#111111"/>
<path d="M11.5666 5.05719C11.5452 5.02859 11.5139 5.00905 11.4788 5.00245C11.4437 4.99586 11.4074 5.00268 11.3771 5.02157C9.80676 6.02263 7.8766 7.59226 6.6732 8.99374C6.66171 9.00714 6.64565 9.01579 6.62815 9.01803C6.61064 9.02027 6.59292 9.01593 6.57843 9.00585L4.88839 7.82881C4.84571 7.79908 4.79365 7.78594 4.74198 7.79184C4.6903 7.79774 4.64255 7.82228 4.60767 7.86087L4.26211 8.24063C4.22539 8.28103 4.20552 8.33395 4.20658 8.38854C4.20764 8.44312 4.22955 8.49523 4.26781 8.53418L6.58413 10.8911C6.77295 11.0835 7.10924 11.008 7.22894 10.7664C8.02551 9.16117 10.2107 6.7451 11.739 5.52245C11.7684 5.49939 11.7876 5.46571 11.7924 5.42866C11.7972 5.39162 11.7872 5.35417 11.7647 5.32438L11.5666 5.05719Z" fill="#111111"/>
</g>
<defs>
<clipPath id="clip0_5238_45730">
<rect width="16" height="16" fill="white"/>
</clipPath>
</defs>
</svg>
