<svg width="16" height="16" viewBox="0 0 16 16" fill="none" xmlns="http://www.w3.org/2000/svg">
<path d="M10.3328 7.33348C10.8849 7.33348 11.3325 6.88588 11.3325 6.33373C11.3325 5.78159 10.8849 5.33398 10.3328 5.33398C9.78061 5.33398 9.33301 5.78159 9.33301 6.33373C9.33301 6.88588 9.78061 7.33348 10.3328 7.33348Z" fill="#111111"/>
<path d="M5.66723 7.33348C6.21938 7.33348 6.66698 6.88588 6.66698 6.33373C6.66698 5.78159 6.21938 5.33398 5.66723 5.33398C5.11508 5.33398 4.66748 5.78159 4.66748 6.33373C4.66748 6.88588 5.11508 7.33348 5.66723 7.33348Z" fill="#111111"/>
<path d="M7.99998 11.999C9.5196 11.999 10.8126 10.8926 11.3325 9.33301H4.66748C5.18735 10.8926 6.48036 11.999 7.99998 11.999Z" fill="#111111"/>
<path d="M7.9933 1.33496C4.31422 1.33496 1.33496 4.32088 1.33496 7.99996C1.33496 11.679 4.31422 14.665 7.9933 14.665C11.679 14.665 14.665 11.679 14.665 7.99996C14.665 4.32088 11.679 1.33496 7.9933 1.33496ZM7.99996 13.332C5.05403 13.332 2.66796 10.9459 2.66796 7.99996C2.66796 5.05403 5.05403 2.66796 7.99996 2.66796C10.9459 2.66796 13.332 5.05403 13.332 7.99996C13.332 10.9459 10.9459 13.332 7.99996 13.332Z" fill="#111111"/>
</svg>
