<svg width="16" height="16" viewBox="0 0 16 16" fill="none" xmlns="http://www.w3.org/2000/svg">
<path d="M13.7272 8.00047C13.7272 4.83748 11.1634 2.27301 8.00047 2.27281C4.83736 2.27281 2.27281 4.83736 2.27281 8.00047C2.27301 11.1634 4.83748 13.7272 8.00047 13.7272C11.1633 13.727 13.727 11.1633 13.7272 8.00047ZM15 8.00047C14.9998 11.8662 11.8662 14.9998 8.00047 15C4.13457 15 1.0002 11.8663 1 8.00047C1 4.13444 4.13444 1 8.00047 1C11.8663 1.0002 15 4.13457 15 8.00047Z" fill="#111111"/>
<path d="M9.90936 8.00047C9.90936 6.029 9.22924 4.12637 7.99921 2.60363C6.76957 4.12624 6.09093 6.02933 6.09093 8.00047C6.09101 9.97118 6.77 11.873 7.99921 13.3954C9.22882 11.8729 9.90928 9.97151 9.90936 8.00047ZM11.1822 8.00047C11.1821 10.5331 10.2075 12.9688 8.46086 14.8028C8.34079 14.9289 8.17422 15 8.00015 15C7.82608 15 7.65952 14.9288 7.53943 14.8028C5.79278 12.9688 4.81821 10.5331 4.81812 8.00047C4.81812 5.4677 5.79269 3.03126 7.53943 1.19718L7.63755 1.11308C7.74317 1.03993 7.86966 1 8.00015 1C8.17418 1.00004 8.3408 1.0712 8.46086 1.19718C10.2076 3.03126 11.1822 5.4677 11.1822 8.00047Z" fill="#111111"/>
<path d="M14.3636 7.36353C14.7151 7.36353 15 7.64847 15 7.99993C15 8.35139 14.7151 8.63634 14.3636 8.63634H1.63641C1.28495 8.63634 1 8.35139 1 7.99993C1 7.64847 1.28495 7.36353 1.63641 7.36353H14.3636Z" fill="#111111"/>
</svg>
