<svg width="16" height="16" viewBox="0 0 16 16" fill="none" xmlns="http://www.w3.org/2000/svg">
<path d="M13.9988 3.81213C14.3237 3.81213 14.5876 4.07515 14.5876 4.40002C14.5876 4.7249 14.3237 4.98792 13.9988 4.98792H9.19897C8.8741 4.98792 8.61108 4.7249 8.61108 4.40002C8.61108 4.07515 8.8741 3.81213 9.19897 3.81213H13.9988Z" fill="#111111"/>
<path d="M11.1833 1.58391C11.413 1.35419 11.7856 1.35419 12.0153 1.58391L14.4157 3.9843C14.645 4.21405 14.6453 4.58674 14.4157 4.81633L12.0153 7.21575C11.7856 7.44547 11.413 7.44547 11.1833 7.21575C10.9537 6.98602 10.9536 6.6134 11.1833 6.38372L13.1667 4.39934L11.1833 2.41594C10.9536 2.18622 10.9536 1.81363 11.1833 1.58391Z" fill="#111111"/>
<path d="M5.61011 3.2002C5.61011 3.03799 5.54606 2.8823 5.4314 2.76758C5.31667 2.65285 5.16103 2.58789 4.99878 2.58789H3.19897C3.03672 2.58789 2.88109 2.65285 2.76636 2.76758C2.65163 2.88231 2.58667 3.03795 2.58667 3.2002C2.58672 5.90845 3.66285 8.50587 5.57788 10.4209C7.49291 12.3359 10.0903 13.4121 12.7986 13.4121C12.9608 13.4121 13.1165 13.3472 13.2312 13.2324C13.3459 13.1177 13.4109 12.9621 13.4109 12.7998V11C13.4109 10.8378 13.3459 10.6821 13.2312 10.5674C13.1165 10.4527 12.9608 10.3887 12.7986 10.3887H10.9988C10.9038 10.3887 10.8103 10.4107 10.7253 10.4531C10.6405 10.4956 10.5665 10.5569 10.5095 10.6328L10.5066 10.6367L10.2937 10.916L10.2927 10.915C10.1292 11.1297 9.89831 11.2832 9.63647 11.3486C9.37448 11.4141 9.0977 11.3881 8.85229 11.2754C8.84776 11.2733 8.84311 11.2708 8.83862 11.2686C7.0555 10.3933 5.61249 8.95198 4.73511 7.16992L4.73413 7.16797C4.61395 6.92137 4.58308 6.64098 4.64624 6.37402C4.70948 6.10701 4.86274 5.86968 5.08081 5.70312L5.36597 5.48926C5.44187 5.43229 5.50321 5.35833 5.54565 5.27344C5.58813 5.18849 5.61011 5.09497 5.61011 5V3.2002ZM6.78687 5C6.78687 5.27761 6.72254 5.5515 6.59839 5.7998C6.47426 6.04805 6.29404 6.26411 6.07202 6.43066L5.7937 6.63867C5.79212 6.64018 5.79132 6.64241 5.79077 6.64453C5.79026 6.6467 5.79005 6.64927 5.79077 6.65137C6.55115 8.19537 7.80019 9.44489 9.34351 10.2061L9.35132 10.207C9.35385 10.2064 9.35655 10.2052 9.35815 10.2031V10.2021L9.57104 9.92285C9.7372 9.70262 9.95218 9.52379 10.199 9.40039C10.4473 9.27624 10.7212 9.21191 10.9988 9.21191H12.7986C13.2728 9.21191 13.7279 9.40005 14.0632 9.73535C14.3986 10.0707 14.5867 10.5257 14.5867 11V12.7998C14.5867 13.2741 14.3986 13.7291 14.0632 14.0645C13.7279 14.3998 13.2729 14.5879 12.7986 14.5879C9.77831 14.5878 6.88151 13.3886 4.74585 11.2529C2.61019 9.11727 1.41094 6.22047 1.41089 3.2002C1.41089 2.72593 1.59897 2.27091 1.93433 1.93555C2.26969 1.60019 2.72471 1.41211 3.19897 1.41211H4.99878C5.47305 1.41211 5.92807 1.60019 6.26343 1.93555C6.59873 2.2709 6.78687 2.72597 6.78687 3.2002V5Z" fill="#111111"/>
</svg>
