<svg width="16" height="16" viewBox="0 0 16 16" fill="none" xmlns="http://www.w3.org/2000/svg">
<path d="M12.7332 8C12.7332 7.22688 12.1068 6.59979 11.3337 6.59961H4.66675C3.89355 6.59961 3.26636 7.22678 3.26636 8V12C3.26636 12.7732 3.89355 13.4004 4.66675 13.4004H11.3337C12.1068 13.4002 12.7332 12.7731 12.7332 12V8ZM13.9333 12C13.9333 13.4359 12.7696 14.5994 11.3337 14.5996H4.66675C3.23082 14.5996 2.06714 13.436 2.06714 12V8C2.06714 6.56402 3.23082 5.40039 4.66675 5.40039H11.3337C12.7696 5.40057 13.9333 6.56414 13.9333 8V12Z" fill="#111111"/>
<path d="M10.7333 6V5.33301C10.7331 3.82358 9.50934 2.59961 7.99988 2.59961C7.04897 2.59966 6.21108 3.08517 5.72059 3.82422C5.53736 4.10033 5.16466 4.17541 4.88855 3.99219C4.61281 3.80893 4.53763 3.4371 4.72059 3.16113C5.42395 2.10121 6.62996 1.40044 7.99988 1.40039C10.1721 1.40039 11.9333 3.16084 11.9335 5.33301V6C11.9335 6.33137 11.6643 6.59961 11.3329 6.59961C11.0017 6.59936 10.7333 6.33122 10.7333 6Z" fill="#111111"/>
<path d="M8 11C8.55228 11 9 10.5523 9 10C9 9.44772 8.55228 9 8 9C7.44772 9 7 9.44772 7 10C7 10.5523 7.44772 11 8 11Z" fill="#111111"/>
</svg>
