<svg width="16" height="16" viewBox="0 0 16 16" fill="none" xmlns="http://www.w3.org/2000/svg">
<path d="M13.4004 8C13.4004 6.56783 12.8311 5.19433 11.8184 4.18164C10.8057 3.16896 9.43216 2.59961 8 2.59961C6.76932 2.59962 5.58221 3.02045 4.62988 3.78125L12.2178 11.3691C12.9785 10.4168 13.4004 9.23064 13.4004 8ZM2.59961 8C2.59961 9.43216 3.16896 10.8057 4.18164 11.8184C5.19433 12.8311 6.56783 13.4004 8 13.4004C9.23064 13.4004 10.4168 12.9785 11.3691 12.2178L3.78125 4.62988C3.02045 5.58221 2.59962 6.76932 2.59961 8ZM14.5996 8C14.5996 9.75044 13.9047 11.4292 12.667 12.667C11.4292 13.9047 9.75044 14.5996 8 14.5996C6.24957 14.5996 4.57075 13.9047 3.33301 12.667C2.09528 11.4292 1.40039 9.75042 1.40039 8C1.4004 6.24957 2.09527 4.57075 3.33301 3.33301C4.57075 2.09527 6.24957 1.4004 8 1.40039C9.75042 1.40039 11.4292 2.09528 12.667 3.33301C13.9047 4.57075 14.5996 6.24957 14.5996 8Z" fill="#111111"/>
</svg>
