<svg width="16" height="16" viewBox="0 0 16 16" fill="none" xmlns="http://www.w3.org/2000/svg">
<path d="M6.57874 12.4001C6.42291 12.4001 6.2923 12.347 6.18696 12.241C6.08147 12.135 6.02874 12.0036 6.02874 11.8468C6.02874 11.6901 6.08147 11.5598 6.18696 11.4559C6.2923 11.3521 6.42291 11.3001 6.57874 11.3001H9.41207C9.56791 11.3001 9.69855 11.3532 9.80404 11.4592C9.90938 11.5652 9.96207 11.6966 9.96207 11.8534C9.96207 12.0101 9.90938 12.1404 9.80404 12.2443C9.69855 12.3481 9.56791 12.4001 9.41207 12.4001H6.57874ZM4.1499 8.5501C3.99407 8.5501 3.86346 8.49704 3.75812 8.39096C3.65263 8.285 3.5999 8.15362 3.5999 7.9968C3.5999 7.84012 3.65263 7.70981 3.75812 7.60593C3.86346 7.50205 3.99407 7.4501 4.1499 7.4501H11.8499C12.0057 7.4501 12.1364 7.50315 12.2419 7.60923C12.3472 7.7152 12.3999 7.84657 12.3999 8.0034C12.3999 8.16007 12.3472 8.29039 12.2419 8.39426C12.1364 8.49814 12.0057 8.5501 11.8499 8.5501H4.1499ZM1.9499 4.7001C1.79407 4.7001 1.66347 4.64704 1.55812 4.54096C1.45264 4.435 1.3999 4.30362 1.3999 4.1468C1.3999 3.99012 1.45264 3.85981 1.55812 3.75593C1.66347 3.65205 1.79407 3.6001 1.9499 3.6001H14.0499C14.2057 3.6001 14.3364 3.65315 14.4419 3.75923C14.5472 3.8652 14.5999 3.99657 14.5999 4.1534C14.5999 4.31007 14.5472 4.44039 14.4419 4.54426C14.3364 4.64814 14.2057 4.7001 14.0499 4.7001H1.9499Z" fill="#111111"/>
</svg>
