<svg width="16" height="16" viewBox="0 0 16 16" fill="none" xmlns="http://www.w3.org/2000/svg">
<path d="M4.70667 5.95992L3.33333 5.33325L4.70667 4.70659L5.33333 3.33325L5.96 4.70659L7.33333 5.33325L5.96 5.95992L5.33333 7.33325L4.70667 5.95992ZM5.33333 13.9999L5.96 12.6266L7.33333 11.9999L5.96 11.3733L5.33333 9.99992L4.70667 11.3733L3.33333 11.9999L4.70667 12.6266L5.33333 13.9999ZM2.91333 8.24659L2 8.66659L2.91333 9.08659L3.33333 9.99992L3.75333 9.08659L4.66667 8.66659L3.75333 8.24659L3.33333 7.33325L2.91333 8.24659ZM12.6667 13.6066C12.6667 14.1266 12.1067 14.4399 11.66 14.1799C9.47333 12.9066 8 10.5266 8 7.99992C8 6.17992 8.72 4.48659 9.83333 3.16659L8.56667 1.89992C8.36 1.69325 8.50667 1.33325 8.80667 1.33325H12.3333C12.52 1.33325 12.6667 1.47992 12.6667 1.66659V5.19325C12.6667 5.49325 12.3067 5.63992 12.1 5.42659L10.7867 4.11325C9.89333 5.21325 9.33333 6.58659 9.33333 7.99992C9.33333 10.0866 10.5733 12.0066 12.34 13.0333C12.54 13.1533 12.6667 13.3733 12.6667 13.6066Z" fill="#111111"/>
</svg>
