<svg width="16" height="16" viewBox="0 0 16 16" fill="none" xmlns="http://www.w3.org/2000/svg">
<path d="M9.12755 10.6157V8.61421C9.12755 8.31823 9.23628 8.0324 9.43291 7.81125L12.0784 4.83613C12.1131 4.79717 12.1324 4.7468 12.1325 4.69457V4.10814C12.1324 4.05156 12.1098 3.99733 12.0697 3.95739C12.0296 3.91744 11.9753 3.89504 11.9188 3.89509H4.08153C4.05355 3.89508 4.02584 3.90059 3.99999 3.91129C3.97414 3.92199 3.95065 3.93769 3.93086 3.95747C3.91108 3.97726 3.89538 4.00075 3.88468 4.0266C3.87398 4.05245 3.86847 4.08016 3.86848 4.10814V4.69521C3.86848 4.74737 3.88731 4.79783 3.92192 4.83684L6.56254 7.81196C6.75854 8.03297 6.86641 8.31816 6.86648 8.61357V12.0321C6.86654 12.0448 6.86999 12.0572 6.87647 12.0681C6.88296 12.079 6.89224 12.088 6.90336 12.0941C6.91448 12.1002 6.92703 12.1032 6.9397 12.1028C6.95238 12.1024 6.96471 12.0986 6.97543 12.0918L9.02827 10.7961C9.05867 10.7768 9.0837 10.7502 9.10105 10.7186C9.11841 10.6871 9.12752 10.6517 9.12755 10.6157ZM13.127 4.69457C13.127 4.99055 13.0183 5.2763 12.8216 5.49753L10.1762 8.47265C10.1414 8.51161 10.1221 8.56198 10.122 8.61421V10.6157C10.122 11.0302 9.90962 11.4159 9.5592 11.6372L7.50706 12.9336C6.79727 13.3817 5.87208 12.8716 5.87201 12.0321V8.6135C5.87173 8.56152 5.85247 8.51143 5.81785 8.47265L3.17795 5.49682C2.98178 5.27586 2.8734 4.99068 2.87329 4.69521V4.10814C2.87329 3.44085 3.41431 2.8999 4.08153 2.8999H11.9188C12.586 2.8999 13.127 3.44092 13.127 4.10814V4.69457Z" fill="#111111"/>
</svg>
