<svg width="16" height="16" viewBox="0 0 16 16" fill="none" xmlns="http://www.w3.org/2000/svg">
<mask id="mask0_5821_451057" style="mask-type:luminance" maskUnits="userSpaceOnUse" x="3" y="1" width="10" height="14">
<path d="M12.9201 1.30005H3.07983V14.7H12.9201V1.30005Z" fill="white"/>
</mask>
<g mask="url(#mask0_5821_451057)">
<path d="M11.1872 3.60145L8.70916 1.30005H7.25216L9.19482 3.10474H5.07217C3.9739 3.10474 3.07983 3.99881 3.07983 5.09708V10.0972H4.07324V5.09708C4.07324 4.54519 4.52028 4.09815 5.07217 4.09815H9.19482L7.26319 5.89181H8.7202L11.1872 3.60145Z" fill="#111111"/>
<path d="M4.81323 12.3987L7.29124 14.7001H8.74823L6.80557 12.8954H10.9282C12.0265 12.8954 12.9206 12.0014 12.9206 10.9031V5.90295H11.9271V10.9031C11.9271 11.455 11.4801 11.902 10.9282 11.902H6.80557L8.73719 10.1084H7.28021L4.81323 12.3987Z" fill="#111111"/>
</g>
</svg>
