<svg width="16" height="16" viewBox="0 0 16 16" fill="none" xmlns="http://www.w3.org/2000/svg">
<path d="M9.43251 13.0906L14.3557 8.16951C14.4154 8.10979 14.4628 8.03889 14.4952 7.96085C14.5275 7.88281 14.5441 7.79917 14.5441 7.7147C14.5441 7.63023 14.5275 7.54659 14.4952 7.46856C14.4628 7.39052 14.4154 7.31962 14.3557 7.2599L9.43251 2.33885C9.26842 2.17649 9.06004 2.06621 8.83351 2.02185C8.60699 1.97748 8.3724 2.00101 8.15919 2.08947C7.94453 2.17812 7.76105 2.32856 7.63205 2.52168C7.50305 2.7148 7.43434 2.9419 7.43465 3.17415V5.02695C3.18312 5.37636 1.1381 9.19702 1.00091 12.9848C0.99214 13.1867 1.04684 13.3862 1.15731 13.5554C1.26779 13.7246 1.42849 13.8549 1.61685 13.928C1.80349 14.0045 2.00941 14.0205 2.20565 13.9738C2.40188 13.9272 2.57855 13.8202 2.71081 13.6679L2.94947 13.3957C4.16776 12.0066 5.32389 10.6868 7.43465 10.4639V12.2567C7.43465 12.7333 7.71904 13.1584 8.15919 13.3414C8.37246 13.4302 8.60724 13.4539 8.83395 13.4095C9.06067 13.3651 9.26918 13.2546 9.43322 13.092L9.43251 13.0906ZM8.72225 11.9844V9.14343H8.07917C5.24315 9.14343 3.67616 10.644 2.36211 12.1166C2.72939 9.25061 4.37927 6.28598 8.07845 6.28598H8.72154V3.44424L12.9938 7.71435L8.72297 11.9844H8.72225Z" fill="#111111"/>
</svg>
